<svg width="138" height="56" viewBox="0 0 138 56" fill="none" xmlns="http://www.w3.org/2000/svg">
<path d="M31.2225 0.342049V31.0057C31.1466 31.0063 31.0714 31.0083 30.9955 31.0083C23.513 31.0083 16.0306 31.0083 8.54819 31.0083C8.49605 31.0083 8.44391 31.0103 8.39177 31.007C8.35613 31.0043 8.32115 30.9938 8.29013 30.9878C8.23667 30.6638 8.25317 23.4869 8.30861 23.2903H8.50067C13.4744 23.2903 18.4489 23.2903 23.4226 23.2903C23.651 23.2903 23.6523 23.2889 23.6523 23.0599C23.6523 18.0631 23.6523 13.0662 23.6523 8.07C23.6523 8.03238 23.6516 7.9941 23.6516 7.95648C23.6516 7.88718 23.614 7.85154 23.548 7.84626C23.4866 7.84164 23.4253 7.84098 23.3639 7.84098C18.499 7.84164 13.6335 7.84295 8.76863 7.84493C8.61749 7.84493 8.46569 7.84956 8.31455 7.85418C8.19443 7.85748 8.17793 7.87398 8.17133 7.99674C8.16803 8.05812 8.16935 8.11949 8.16935 8.18153C8.16935 13.0979 8.16935 18.0142 8.16935 22.9306C8.16935 22.9873 8.17133 23.0441 8.16803 23.1008C8.16605 23.1371 8.15615 23.1721 8.15021 23.2045C7.96739 23.2348 0.640727 23.2262 0.519287 23.1926C0.519287 15.6237 0.519288 8.04953 0.519948 0.47537C0.519948 0.43907 0.529849 0.40277 0.537769 0.35129H0.753586C10.8344 0.35129 20.9146 0.35129 30.9955 0.35129C31.0707 0.35129 31.1466 0.346671 31.2218 0.344031L31.2225 0.342049Z" fill="#A3B8C7"/>
<path d="M31.2227 55.2534C31.166 55.254 31.1092 55.2554 31.0525 55.2554C28.6435 55.2554 26.2345 55.2554 23.8255 55.2554C23.7555 55.2554 23.6855 55.2554 23.6202 55.2554C23.5872 55.1385 23.578 34.9122 23.6083 34.7195C23.6697 34.7162 23.7344 34.7095 23.7984 34.7095C26.212 34.7095 28.6263 34.7095 31.0399 34.7089C31.1006 34.7089 31.162 34.701 31.2227 34.697V55.2534Z" fill="#A3B8C7"/>
<path d="M0.540737 55.2554C0.531497 55.2006 0.522918 55.1689 0.520938 55.1372C0.518298 55.0851 0.519616 55.0329 0.519616 54.9808C0.519616 47.1162 0.519616 39.2517 0.519616 31.3871C0.519616 31.3257 0.520938 31.2644 0.521598 31.2023C0.522918 31.1442 0.554597 31.1165 0.610697 31.1145C0.648317 31.1132 0.686599 31.1126 0.724219 31.1126C3.13784 31.1126 5.55212 31.1126 7.96574 31.1126C7.97498 31.1126 7.98488 31.1126 7.99412 31.1126C8.1644 31.1145 8.1677 31.1185 8.16968 31.2888C8.16968 31.3264 8.16968 31.3647 8.16968 31.4023C8.16968 39.2576 8.16968 47.1123 8.16968 54.9676C8.16968 55.029 8.1677 55.0904 8.16836 55.1524C8.16836 55.2243 8.13272 55.2554 8.06276 55.2534C8.02052 55.2521 7.97762 55.254 7.93472 55.254C5.53958 55.254 3.1451 55.254 0.749956 55.254C0.683956 55.254 0.618616 55.254 0.539416 55.254L0.540737 55.2554Z" fill="#A3B8C7"/>
<path d="M19.694 55.227C19.5614 55.2606 12.2539 55.2672 12.0862 55.2382C12.0803 55.2111 12.0704 55.1801 12.0677 55.1491C12.0644 55.1068 12.0664 55.0639 12.0664 55.0217C12.0664 48.3306 12.0664 41.6395 12.0664 34.9485C12.0664 34.6897 12.04 34.7102 12.3014 34.7102C14.6866 34.7102 17.0719 34.7102 19.4578 34.7102C19.7026 34.7102 19.694 34.6983 19.694 34.9385C19.694 41.6389 19.694 48.3399 19.694 55.0402C19.694 55.1009 19.694 55.1623 19.694 55.227Z" fill="#A3B8C7"/>
<path d="M36.8057 12.8979C37.5878 12.9012 38.3699 12.919 39.1513 12.8999C39.449 12.8926 39.5988 12.9791 39.7248 13.2589C40.5142 15.0138 41.326 16.7589 42.1312 18.5066C42.1853 18.624 42.2454 18.7382 42.3332 18.9164C43.0519 17.3529 43.7343 15.8619 44.4227 14.3736C44.6478 13.8872 44.7679 13.2285 45.152 12.9758C45.521 12.7329 46.1691 12.9117 46.6945 12.9078C47.0443 12.9051 47.394 12.9078 47.7768 12.9078V23.0685H45.0702V18.7554C45.0372 18.7448 45.0042 18.7336 44.9712 18.723C44.9151 18.8306 44.8544 18.9369 44.8036 19.0471C44.2346 20.2813 43.6585 21.5129 43.1054 22.7543C42.9879 23.0177 42.8315 23.0632 42.5648 23.1041C41.8863 23.2077 41.5748 22.922 41.3313 22.3068C40.9003 21.2198 40.3703 20.1724 39.88 19.1091C39.8265 18.9936 39.7611 18.8834 39.6285 18.7877V23.0982H36.807V12.8992L36.8057 12.8979Z" fill="#3D3E3B"/>
<path d="M86.1751 12.3309C86.1711 15.7398 86.1665 19.1494 86.1625 22.5583C86.1625 22.7174 86.1625 22.8764 86.1625 23.0619H83.3998C83.3826 22.8817 83.3641 22.6896 83.3457 22.4903C81.0832 23.5193 79.1527 23.2869 78.0392 21.864C77.073 20.6285 77.104 18.5231 78.1072 17.3047C79.2259 15.9451 81.1776 15.7207 83.2618 16.7351V12.3309H86.1757H86.1751ZM83.2711 19.6358C83.2711 18.7653 82.7615 18.3086 81.7894 18.3072C80.8739 18.3059 80.3308 18.7871 80.3248 19.6048C80.3182 20.4456 80.8581 20.9281 81.8026 20.9248C82.7688 20.9215 83.2711 20.4806 83.2711 19.6358Z" fill="#3D3E3B"/>
<path d="M115.149 12.3309V23.0599H112.252V22.5926C112.252 19.3335 112.252 16.0738 112.252 12.8147C112.252 12.6537 112.241 12.492 112.235 12.3309C113.207 12.3309 114.177 12.3309 115.149 12.3309Z" fill="#3D3E3B"/>
<path d="M118.143 12.3309C118.675 12.5573 119.138 12.8464 119.285 13.4655C119.472 14.2509 119.051 15.0112 118.29 15.2409C117.495 15.4805 116.66 15.097 116.4 14.3723C116.117 13.5803 116.48 12.752 117.246 12.4412C117.33 12.4068 117.413 12.3679 117.496 12.3309C117.712 12.3309 117.927 12.3309 118.143 12.3309Z" fill="#3D3E3B"/>
<path d="M96.7567 35.92V26.3652H98.7645V47.2594H96.8036V44.9402C96.6954 45.0425 96.6558 45.0702 96.628 45.1065C95.4645 46.6456 93.9115 47.4964 92.0001 47.6706C90.0782 47.8455 88.2909 47.4739 86.7788 46.1962C85.5354 45.1455 84.8101 43.7819 84.5355 42.1887C84.2048 40.2681 84.3435 38.391 85.3051 36.6546C86.4924 34.5102 88.3503 33.4074 90.7903 33.2952C92.5829 33.2127 94.252 33.5869 95.6558 34.7749C96.038 35.0983 96.3561 35.4989 96.7567 35.9193V35.92ZM96.8036 40.5492C96.7548 39.8806 96.8293 39.1731 96.6346 38.5501C95.8888 36.1675 93.6917 34.8488 91.222 35.0151C89.0136 35.1636 87.3359 36.5351 86.6983 38.6346C86.429 39.5203 86.3789 40.4251 86.4779 41.3518C86.7221 43.636 88.248 45.4042 90.4478 45.8965C92.7109 46.4028 95.0724 45.3725 96.2333 43.4394C96.7831 42.5239 96.8023 41.5537 96.8043 40.5492H96.8036Z" fill="#3D3E3B"/>
<path d="M46.3301 47.2905C45.7711 47.2905 45.2582 47.2746 44.7474 47.2971C44.4768 47.3089 44.3521 47.2265 44.2524 46.9631C42.4829 42.2692 40.7016 37.5799 38.9229 32.8893C38.2886 31.2168 37.6564 29.5437 37.0241 27.8706C36.9818 27.7598 36.9422 27.6482 36.8809 27.4819C37.5772 27.4819 38.2312 27.468 38.8833 27.4964C38.9836 27.501 39.1183 27.6792 39.1658 27.8046C40.0013 30.0051 40.8263 32.2088 41.6513 34.4132C42.8209 37.537 43.9884 40.6608 45.1579 43.7845C45.2048 43.9093 45.2609 44.0301 45.3414 44.2188C45.4252 44.0235 45.4906 43.8862 45.544 43.745C47.5379 38.4458 49.5344 33.148 51.5157 27.8436C51.6272 27.5453 51.7672 27.4628 52.0655 27.4753C52.6298 27.4991 53.1961 27.4819 53.8396 27.4819C51.3276 34.109 48.8321 40.6911 46.3301 47.2918V47.2905Z" fill="#3D3E3B"/>
<path d="M66.948 41.3175H55.1511C55.1934 42.7319 55.6164 43.9166 56.7146 44.793C57.8063 45.6636 59.1032 45.9467 60.4562 46.0002C62.1286 46.0655 63.7588 45.818 65.327 45.2128C65.3989 45.1851 65.4742 45.1659 65.595 45.1283C65.595 45.6893 65.6121 46.2114 65.5811 46.7308C65.5745 46.839 65.4042 46.9994 65.2834 47.0278C64.434 47.2284 63.5853 47.4548 62.722 47.5716C61.1525 47.7848 59.5797 47.7987 58.0287 47.3789C55.3795 46.6608 53.6252 44.6162 53.3143 41.8851C53.1401 40.3539 53.1962 38.8451 53.7202 37.3793C54.5894 34.9465 56.6308 33.4331 59.2147 33.3064C60.3499 33.251 61.4812 33.2648 62.5741 33.6324C64.966 34.4363 66.3058 36.1503 66.7302 38.5884C66.8813 39.4576 66.876 40.3539 66.9486 41.3181L66.948 41.3175ZM64.9798 39.7645C64.9488 39.4583 64.935 39.191 64.8934 38.9283C64.6116 37.1542 63.7443 35.8322 61.9616 35.2758C60.7248 34.8904 59.4622 34.8864 58.2175 35.2488C56.3391 35.7953 54.9689 37.8446 55.1881 39.7645H64.9798Z" fill="#3D3E3B"/>
<path d="M115.5 40.5532C115.42 41.6198 115.28 42.6573 114.868 43.6413C114.161 45.3316 112.961 46.5434 111.244 47.1809C109.236 47.9274 107.198 47.9366 105.207 47.1275C102.895 46.1876 101.632 44.3819 101.247 41.9603C100.996 40.3796 101.107 38.8141 101.753 37.3205C102.794 34.9095 105.223 33.1381 108.736 33.2853C111.871 33.4166 114.407 35.3702 115.175 38.4023C115.353 39.1019 115.396 39.8358 115.501 40.5539L115.5 40.5532ZM113.38 40.5539C113.438 37.4677 111.646 35.2541 108.841 35.0244C106.554 34.8369 104.508 35.7755 103.595 38.0729C103.242 38.9613 103.138 39.8998 103.179 40.8495C103.309 43.8644 105.107 45.7309 107.628 45.9784C109.949 46.2061 112.009 45.2867 112.953 42.9978C113.28 42.2045 113.406 41.367 113.379 40.5539H113.38Z" fill="#3D3E3B"/>
<path d="M96.8749 23.1879C94.59 23.0889 92.7796 22.3497 91.7903 20.3315C90.3621 17.4202 91.719 13.451 95.8592 12.8966C97.5983 12.6636 99.2041 13.0068 100.526 14.1994C102.1 15.6197 102.509 17.442 101.985 19.4358C101.474 21.3835 100.099 22.5167 98.1765 22.9972C97.7098 23.1134 97.2208 23.1384 96.8756 23.1873L96.8749 23.1879ZM96.7324 20.3532C98.1547 20.3532 99.1348 19.389 99.1341 17.9898C99.1341 16.5893 98.1593 15.6395 96.7238 15.6408C95.2909 15.6422 94.2996 16.5926 94.2838 17.9799C94.2679 19.3672 95.2857 20.3532 96.7324 20.3532Z" fill="#3D3E3B"/>
<path d="M71.5975 47.2726H69.5581V33.736H71.5289V35.7108C71.6846 35.5451 71.7658 35.4646 71.8404 35.3781C73 34.0324 74.5048 33.3856 76.2439 33.3143C77.0148 33.2826 77.8167 33.3315 78.5638 33.513C80.3161 33.9387 81.51 35.4448 81.7133 37.3449C81.7648 37.8261 81.7925 38.3118 81.7938 38.7956C81.8011 41.4521 81.7971 44.1086 81.7971 46.7651V47.266H79.7597V46.7724C79.7597 44.17 79.7683 41.5669 79.7525 38.9646C79.7492 38.4154 79.7129 37.8544 79.5954 37.3198C79.2713 35.8447 78.2582 35.0653 76.6036 35.0052C74.4368 34.9267 72.8317 35.9088 71.6919 37.7073C71.6074 37.8406 71.6001 38.0392 71.5995 38.2075C71.5942 41.0528 71.5955 43.8981 71.5955 46.7433C71.5955 46.9044 71.5955 47.0654 71.5955 47.2726H71.5975Z" fill="#3D3E3B"/>
<path d="M136.672 35.8395C135.751 35.5913 134.859 35.2956 133.943 35.1194C132.879 34.9148 131.795 34.9148 130.74 35.2323C129.519 35.5999 128.99 36.7318 129.462 37.9211C129.633 38.3547 129.973 38.63 130.378 38.7857C131.23 39.1131 132.105 39.381 132.963 39.6945C133.808 40.0034 134.673 40.278 135.476 40.674C137.008 41.429 137.559 42.6223 137.441 44.2908C137.324 45.9249 136.403 46.9849 134.735 47.4099C132.318 48.0257 129.983 47.6937 127.736 46.6384C127.431 46.4952 127.288 46.3038 127.319 45.9513C127.353 45.5494 127.332 45.1428 127.337 44.7389C127.337 44.7158 127.36 44.6934 127.389 44.6386C127.502 44.694 127.618 44.7468 127.731 44.8062C129.258 45.6194 130.878 46.0682 132.615 45.9956C133.134 45.9738 133.661 45.8834 134.162 45.7408C134.832 45.5494 135.286 45.0854 135.377 44.372C135.477 43.5879 135.379 42.8256 134.626 42.3794C134.11 42.0738 133.545 41.8362 132.979 41.633C132.068 41.3063 131.129 41.0588 130.22 40.7268C129.706 40.5387 129.207 40.2852 128.739 39.9995C126.832 38.8359 126.939 35.8718 128.146 34.6983C128.868 33.9961 129.741 33.6008 130.716 33.4364C132.569 33.1249 134.388 33.2496 136.161 33.9195C136.536 34.0614 136.735 34.239 136.682 34.6785C136.634 35.0858 136.672 35.5029 136.672 35.8382L136.672 35.8395Z" fill="#3D3E3B"/>
<path d="M63.9092 16.1457C64.224 17.3219 64.5349 18.4848 64.8464 19.6477C64.8781 19.651 64.9104 19.655 64.9421 19.6583C65.255 18.4947 65.5678 17.3318 65.8833 16.1596H68.7516C67.9695 18.4769 67.194 20.7717 66.4126 23.0876C65.6048 23.0876 64.8108 23.0969 64.0181 23.0757C63.9237 23.0731 63.7845 22.9226 63.7501 22.8144C63.4505 21.8798 63.1707 20.9393 62.8836 20.0008C62.8572 19.9137 62.8202 19.8299 62.7509 19.647C62.475 20.5638 62.2242 21.3875 61.9787 22.2131C61.8054 22.7961 61.4206 23.0878 60.8244 23.0883C60.3525 23.0883 59.8806 23.0784 59.4093 23.0922C59.1994 23.0982 59.1051 23.0282 59.0371 22.8249C58.3131 20.6575 57.5778 18.4934 56.8465 16.3286C56.83 16.2804 56.8281 16.2276 56.8142 16.1464C57.7092 16.1464 58.583 16.1385 59.4562 16.1583C59.5479 16.1603 59.6872 16.3114 59.7175 16.4183C59.9928 17.3879 60.2482 18.3633 60.5102 19.3368C60.5412 19.4523 60.5762 19.5665 60.6402 19.7863C60.7273 19.4985 60.7914 19.3071 60.8435 19.1131C61.0838 18.2175 61.3134 17.3186 61.5682 16.4269C61.6005 16.3147 61.7583 16.1629 61.8632 16.1589C62.5358 16.1345 63.209 16.1464 63.9119 16.1464L63.9092 16.1457Z" fill="#3D3E3B"/>
<path d="M53.8302 18.8194C53.8408 18.3911 53.5887 18.195 53.2976 18.1627C52.567 18.0822 51.8298 18.0366 51.0945 18.0386C50.6702 18.0393 50.2458 18.1581 49.7554 18.234C49.7554 17.7086 49.7429 17.1918 49.7693 16.677C49.7732 16.5992 49.9508 16.5021 50.0643 16.4625C51.1249 16.0969 52.2231 15.9722 53.33 16.1088C53.9761 16.1886 54.6387 16.3246 55.2354 16.5754C56.2128 16.9866 56.7243 17.7825 56.727 18.8669C56.7296 20.2542 56.727 21.6422 56.727 23.0586H54.0619C54.0454 22.8982 54.0289 22.7332 54.0071 22.5194C53.2263 23.0223 52.3914 23.2335 51.5216 23.1497C50.9573 23.0955 50.3692 22.9662 49.8617 22.7246C48.9601 22.2956 48.7073 21.4713 48.7839 20.5202C48.8532 19.6596 49.2756 19.0464 50.0748 18.725C51.1856 18.2782 52.3122 18.3363 53.4375 18.6808C53.5517 18.7158 53.6633 18.76 53.8296 18.8194H53.8302ZM52.7142 20.0536C52.7109 20.0675 52.7069 20.0813 52.7036 20.0952C52.6363 20.0952 52.569 20.0912 52.5017 20.0952C52.0166 20.1275 51.7473 20.3895 51.7578 20.8172C51.7677 21.2205 52.0416 21.5049 52.5109 21.47C52.8858 21.4416 53.2699 21.3254 53.6105 21.165C53.7444 21.1023 53.8283 20.8133 53.8283 20.6271C53.8283 20.5077 53.6547 20.3381 53.5207 20.2806C53.2666 20.1711 52.9841 20.1255 52.7135 20.0529L52.7142 20.0536Z" fill="#3D3E3B"/>
<path d="M76.5303 23.0652H73.889C73.8738 22.8929 73.8606 22.7352 73.852 22.6355C73.2527 22.8031 72.6627 23.017 72.0535 23.1252C71.313 23.2572 70.5738 23.1543 69.8815 22.8401C68.941 22.4131 68.5568 21.7029 68.6136 20.5393C68.6572 19.6424 69.1706 18.9606 70.0729 18.6551C71.144 18.2921 72.2192 18.3482 73.2871 18.6874C73.3887 18.7197 73.4897 18.7554 73.5913 18.7877C73.6012 18.791 73.6151 18.7804 73.6593 18.7653C73.6765 18.4075 73.4342 18.1997 73.1458 18.168C72.4027 18.0861 71.6516 18.0419 70.9038 18.0419C70.4794 18.0419 70.0557 18.1601 69.5792 18.2333C69.5792 17.7245 69.564 17.2295 69.5924 16.7364C69.5983 16.6401 69.7607 16.5107 69.8768 16.4705C70.9487 16.0956 72.0601 15.9695 73.1808 16.1121C73.827 16.1946 74.4896 16.3299 75.0842 16.584C76.0426 16.9932 76.5514 17.7792 76.5554 18.8471C76.5607 20.1684 76.5574 21.4898 76.556 22.8117C76.556 22.8896 76.5409 22.9675 76.5303 23.0652ZM72.5465 20.0536L72.536 20.0952C72.4687 20.0952 72.4013 20.0912 72.334 20.0952C71.8483 20.1262 71.5777 20.3869 71.5862 20.8133C71.5942 21.2172 71.8674 21.5043 72.336 21.47C72.7109 21.4422 73.095 21.3267 73.4369 21.167C73.5715 21.1043 73.6567 20.8165 73.658 20.6311C73.6586 20.5116 73.487 20.34 73.3537 20.282C73.0996 20.1717 72.8178 20.1255 72.5472 20.0529L72.5465 20.0536Z" fill="#3D3E3B"/>
<path d="M105.888 16.1688C105.9 16.386 105.91 16.584 105.916 16.7147C106.513 16.514 107.1 16.2183 107.714 16.1391C108.31 16.0619 108.958 16.1187 109.541 16.2738C110.487 16.5259 111.017 17.277 111.068 18.2089C111.154 19.7949 111.107 21.3875 111.114 22.9774C111.114 23.0005 111.091 23.0229 111.068 23.0665H108.275C108.268 22.9074 108.256 22.7636 108.255 22.6197C108.253 21.5412 108.262 20.4628 108.251 19.3844C108.243 18.5996 107.975 18.3033 107.317 18.3072C106.543 18.3119 105.996 18.7864 105.995 19.4556C105.995 20.5209 105.995 21.5855 105.995 22.6507C105.995 22.782 105.995 22.9134 105.995 23.0658H103.128V16.1688H105.887H105.888Z" fill="#3D3E3B"/>
<path d="M128.527 23.0731H125.679C125.671 22.9187 125.658 22.7761 125.658 22.6335C125.656 21.5683 125.66 20.5037 125.655 19.4385C125.652 18.7435 125.454 18.4089 125.015 18.3211C124.413 18.2003 123.68 18.5151 123.454 19.0101C123.402 19.1256 123.4 19.2702 123.399 19.4015C123.395 20.6126 123.397 21.8237 123.397 23.0612H120.534V16.1741H123.284C123.299 16.384 123.313 16.5899 123.331 16.8486C124.085 16.285 124.897 16.05 125.782 16.0652C127.531 16.0956 128.465 16.9714 128.518 18.7191C128.562 20.1572 128.527 21.598 128.527 23.0731H128.527Z" fill="#3D3E3B"/>
<path d="M136.891 20.9175C136.891 21.4416 136.906 21.9392 136.88 22.4355C136.875 22.5431 136.746 22.7075 136.642 22.7378C134.97 23.2355 133.277 23.3899 131.598 22.8144C129.952 22.2507 129.187 20.8832 129.408 19.0385C129.593 17.4882 130.784 16.3569 132.43 16.1391C133.351 16.017 134.259 16.0276 135.148 16.3088C136.625 16.7754 137.472 17.9376 137.48 19.484C137.481 19.7513 137.48 20.0186 137.48 20.3288H132.132C132.291 20.7783 132.606 21.0172 132.972 21.0634C133.7 21.1551 134.441 21.2066 135.174 21.1862C135.731 21.1703 136.283 21.0172 136.891 20.9169V20.9175ZM132.084 18.6273H134.75C134.531 18.098 134.094 18.0195 133.652 17.9964C133.074 17.9654 132.489 17.9621 132.084 18.6273Z" fill="#3D3E3B"/>
<path d="M120.238 47.2793H118.207V33.7268H120.153V36.2078C121.616 34.1994 123.692 33.7446 125.988 33.7004V35.3544C125.161 35.4791 124.352 35.5438 123.573 35.7299C122.123 36.0771 121.002 36.8856 120.399 38.296C120.302 38.523 120.246 38.7864 120.245 39.0332C120.234 41.6231 120.238 44.2129 120.238 46.8027C120.238 46.9486 120.238 47.0945 120.238 47.2799V47.2793Z" fill="#3D3E3B"/>
<path d="M116.408 16.1609H119.242V23.0566H116.408V16.1609Z" fill="#3D3E3B"/>
</svg>
