<svg width="313" height="264" viewBox="0 0 313 264" fill="none" xmlns="http://www.w3.org/2000/svg">
<g clip-path="url(#clip0_934_8727)">
<path d="M187.27 20.5249V3.20618C173.997 6.50651 161.813 12.3221 149.861 20.5089L187.27 20.5249Z" fill="#A2B8C6"/>
<path d="M284.102 26.7649H192.494V140.466H284.102V26.7649Z" fill="#A2B8C6"/>
<path d="M187.315 26.7644H141.327C131.049 34.4545 120.5 42.2407 108.187 46.6785C104.07 48.1685 99.9045 49.4742 95.707 50.6838V140.466H187.315V26.7644Z" fill="#A2B8C6"/>
<path d="M302.2 44.9562C298.732 38.7267 294.386 33.0289 289.295 28.038V140.466H298.715C313.198 111.491 317.941 73.5136 302.2 44.9562Z" fill="#A2B8C6"/>
<path d="M90.4678 52.1516C85.4773 53.5214 80.4467 54.8111 75.4161 56.1569C35.9963 66.6907 11.5562 102.113 16.0822 140.468H90.4678V52.1516Z" fill="#A2B8C6"/>
<path d="M289.295 146.706V156.071C290.454 154.522 291.562 152.92 292.619 151.264C293.565 149.782 294.478 148.252 295.375 146.698L289.295 146.706Z" fill="#A2B8C6"/>
<path d="M284.102 146.706H192.494V194.657C200.112 194.753 207.666 195.362 215.372 194.52C240.669 191.765 266.591 181.415 284.102 162.334V146.706Z" fill="#A2B8C6"/>
<path d="M192.494 20.5261H280.562C262.69 7.21258 239.516 0.595901 217.583 0.0672073C209.172 -0.181021 200.76 0.487796 192.494 2.06182V20.5261Z" fill="#A2B8C6"/>
<path d="M187.315 146.703H95.707V214.953C111.592 215.225 127.549 210.659 142.609 205.549C154.576 201.495 166.64 197.298 179.281 195.407C181.935 195.021 184.61 194.791 187.291 194.718L187.315 146.703Z" fill="#A2B8C6"/>
<path d="M90.4607 146.706H17.0684C22.8519 174.742 45.1692 200.304 73.2381 210.83C78.775 212.898 84.5702 214.195 90.4607 214.683V146.706Z" fill="#A2B8C6"/>
<g opacity="0.7">
<path d="M187.268 20.5277V3.20892C173.995 6.50925 161.811 12.3249 149.859 20.5116L187.268 20.5277Z" fill="white"/>
<path d="M284.102 26.7674H192.494V140.469H284.102V26.7674Z" fill="white"/>
<path d="M187.313 26.763H141.325C131.047 34.4531 120.498 42.2393 108.185 46.6771C104.068 48.1671 99.9026 49.4728 95.7051 50.6824V140.464H187.313V26.763Z" fill="white"/>
<path d="M302.194 44.9535C298.726 38.7241 294.38 33.0262 289.289 28.0353V140.463H298.709C313.192 111.489 317.935 73.511 302.194 44.9535Z" fill="white"/>
<path d="M90.4678 52.1475C85.4773 53.5173 80.4467 54.807 75.4161 56.1527C35.9963 66.6865 11.5562 102.109 16.0822 140.463H90.4678V52.1475Z" fill="white"/>
<path d="M289.289 146.702V156.067C290.448 154.518 291.556 152.916 292.613 151.26C293.559 149.778 294.472 148.248 295.369 146.694L289.289 146.702Z" fill="white"/>
<path d="M284.102 146.704H192.494V194.655C200.112 194.751 207.666 195.36 215.372 194.519C240.669 191.763 266.591 181.414 284.102 162.333V146.704Z" fill="white"/>
<path d="M192.494 20.5245H280.562C262.69 7.211 239.516 0.594314 217.583 0.0656203C209.172 -0.182608 200.76 0.486209 192.494 2.06024V20.5245Z" fill="white"/>
<path d="M187.313 146.704H95.7051V214.953C111.59 215.226 127.547 210.66 142.607 205.549C154.574 201.496 166.638 197.298 179.279 195.408C181.933 195.021 184.608 194.791 187.289 194.719L187.313 146.704Z" fill="white"/>
<path d="M90.4607 146.704H17.0684C22.8519 174.741 45.1692 200.302 73.2381 210.828C78.775 212.897 84.5702 214.193 90.4607 214.681V146.704Z" fill="white"/>
</g>
<path d="M302.162 165.834H298.766H145.389H141.992V172.627H145.389V241.678H298.766V172.627H302.162V165.834Z" fill="#A2B8C6"/>
<path opacity="0.5" d="M302.162 165.834H298.766H145.389H141.992V172.627H145.389V241.678H298.766V172.627H302.162V165.834Z" fill="white"/>
<path d="M149.469 201.912H191.308V179.563H149.469V201.912ZM150.318 180.412H190.459V201.063H150.318V180.412Z" fill="white"/>
<path d="M201.482 201.912H243.313V179.563H201.482V201.912ZM202.332 180.412H242.464V201.063H202.332V180.412Z" fill="white"/>
<path d="M253.352 179.563V201.912H295.182V179.563H253.352ZM294.333 201.063H254.201V180.412H294.333V201.063Z" fill="white"/>
<path d="M149.469 231.909H191.308V209.552H149.469V231.909ZM150.318 210.401H190.459V231.06H150.318V210.401Z" fill="white"/>
<path d="M201.482 231.909H243.313V209.552H201.482V231.909ZM202.332 210.401H242.464V231.06H202.332V210.401Z" fill="white"/>
<path d="M253.352 231.909H295.182V209.552H253.352V231.909ZM254.201 210.401H294.333V231.06H254.201V210.401Z" fill="white"/>
<path d="M170.902 193.563C174.654 193.563 177.695 192.422 177.695 191.015C177.695 189.608 174.654 188.468 170.902 188.468C167.151 188.468 164.109 189.608 164.109 191.015C164.109 192.422 167.151 193.563 170.902 193.563Z" fill="white"/>
<path d="M222.539 193.567C226.291 193.567 229.332 192.427 229.332 191.02C229.332 189.613 226.291 188.473 222.539 188.473C218.787 188.473 215.746 189.613 215.746 191.02C215.746 192.427 218.787 193.567 222.539 193.567Z" fill="white"/>
<path d="M275.703 193.567C279.455 193.567 282.496 192.426 282.496 191.02C282.496 189.613 279.455 188.472 275.703 188.472C271.951 188.472 268.91 189.613 268.91 191.02C268.91 192.426 271.951 193.567 275.703 193.567Z" fill="white"/>
<path d="M170.894 218.471C167.145 218.471 164.109 219.609 164.109 221.019C164.109 222.429 167.145 223.566 170.894 223.566C174.643 223.566 177.687 222.429 177.687 221.019C177.687 219.609 174.651 218.471 170.894 218.471Z" fill="white"/>
<path d="M222.607 218.471C218.858 218.471 215.822 219.609 215.822 221.019C215.822 222.429 218.858 223.566 222.607 223.566C226.356 223.566 229.4 222.429 229.4 221.019C229.4 219.609 226.364 218.471 222.607 218.471Z" fill="white"/>
<path d="M275.703 218.471C271.954 218.471 268.91 219.609 268.91 221.019C268.91 222.428 271.954 223.566 275.703 223.566C279.452 223.566 282.496 222.428 282.496 221.019C282.496 219.609 279.452 218.471 275.703 218.471Z" fill="white"/>
<path d="M83.6368 159.911C80.5448 164.493 76.2351 170.461 73.9361 175.251C74.8092 172.095 75.6664 169.115 76.4434 166.44C77.6209 164.133 80.7771 158.285 84.4539 154.424C89.0759 149.474 91.0545 146.301 88.5633 146.021C86.841 145.829 81.7944 152.55 78.6302 159.23C79.3191 156.947 79.8639 155.225 80.1923 154.184C80.3445 153.727 80.4887 153.214 80.6329 152.678C83.9082 148.103 86.8888 143.325 89.5566 138.371C94.2267 129.64 95.7327 121.405 92.6166 124.953C89.7488 128.214 84.7583 144.419 80.8011 152.053C81.1295 150.739 81.4499 149.281 81.7303 147.847C82.291 146.462 83.028 145.052 83.4446 143.77C84.0934 141.808 84.6622 139.813 85.1188 137.794C85.8712 134.645 86.253 131.419 86.2562 128.182C86.3357 124.379 85.2997 120.636 83.2763 117.416C82.7396 116.614 79.4633 111.712 78.47 114.211C78.342 114.629 78.3173 115.072 78.3979 115.501C78.8786 119.674 80.3925 123.512 81.3298 127.573C82.7316 133.653 81.8024 143.866 81.3298 148.208C81.1535 148.889 80.9293 149.746 80.6649 150.731C81.3138 143.161 78.0375 134.198 75.0015 132.636C71.2446 130.697 74.9294 138.307 77.8292 144.948C79.2059 147.856 79.8521 151.057 79.7117 154.272C79.1189 156.459 78.438 158.91 77.7331 161.393C77.5969 161.738 77.4607 162.074 77.3325 162.411C77.6571 160.79 77.7915 159.136 77.7331 157.484C77.4527 153.142 72.5342 144.451 69.266 145.677C65.9977 146.902 71.5329 151.492 74.4888 156.827C75.9996 159.753 76.5756 163.072 76.139 166.336C76.139 166.528 76.0749 166.72 76.0509 166.912C75.7144 168.042 75.378 169.139 75.0495 170.173C74.2485 172.576 73.5676 174.883 72.8867 177.11C73.7233 173.882 74.0902 170.55 73.9761 167.217C73.5676 160.849 69.8427 154.841 66.7667 154.024C63.6906 153.206 69.5623 163.58 71.5329 169.412C72.6044 172.818 72.7864 176.441 72.0616 179.938C71.1084 183.094 70.2112 186.202 69.29 189.502C69.5503 185.19 69.4592 180.863 69.0176 176.565C68.4168 169.484 64.2113 164.958 61.3035 165.142C58.3957 165.326 61.4317 169.348 65.6132 177.959C67.8204 182.481 68.8036 187.502 68.4649 192.522C68.0884 193.916 67.6638 195.342 67.3114 196.832C66.8628 198.53 66.5103 200.372 66.1979 202.263C65.7734 200.581 65.1485 198.113 64.4196 195.39C63.5707 192.376 62.9547 189.302 62.5772 186.194C62.1847 182.581 61.2314 178.079 57.6908 176.197C57.4512 176.028 57.1774 175.914 56.8887 175.863C56.6001 175.811 56.3037 175.825 56.0207 175.901C55.7377 175.978 55.475 176.116 55.2514 176.305C55.0278 176.495 54.8487 176.731 54.7269 176.998C54.3945 177.771 54.3187 178.63 54.5106 179.449C54.981 181.904 55.7897 184.282 56.9137 186.514C56.2126 187.846 55.8938 189.346 55.9925 190.848C55.9925 191.417 56.0406 191.977 56.0807 192.53C55.7682 191.961 55.4719 191.433 55.1915 190.928C54.6845 190.08 54.0587 189.308 53.333 188.637C53.514 187.31 53.605 185.971 53.6054 184.632C53.6054 182.869 51.5467 178.4 49.6883 181.716C48.9513 183.038 49.0875 185.649 49.0154 187.379C48.5107 187.852 48.3585 188.829 48.7831 190.375C48.3618 194.389 48.5726 198.443 49.4079 202.391L48.7751 201.27C47.8649 196.637 47.3291 191.938 47.173 187.219C46.8686 179.441 48.1022 173.033 45.9874 170.629C43.8726 168.226 42.6791 176.677 43.5843 185.849C44.0142 190.055 45.1347 194.16 46.9006 198.001C44.8179 194.26 42.7592 190.447 40.8126 186.787C40.0116 184.816 38.025 179.513 38.5136 174.13C39.1304 167.337 39.579 161.786 36.9996 157.965C34.4202 154.144 33.8835 156.619 35.1492 164.581C36.0143 170.053 36.9355 177.358 38.5296 182.429C37.0156 179.521 35.5978 176.757 34.3321 174.25C33.6112 171.759 31.929 165.334 31.929 160.007C31.929 153.239 31.2 149.594 29.1974 151.06C27.8036 152.101 28.7007 160.456 30.9437 167.489C29.8943 165.35 29.1013 163.708 28.6447 162.739C28.4364 162.298 28.2041 161.834 27.9397 161.337C27.2238 155.761 26.1536 150.236 24.7355 144.795C22.1962 135.183 17.6783 128.182 17.8145 132.892C17.9426 137.234 25.3604 152.486 27.6754 160.768C27.0185 159.583 26.2575 158.301 25.4885 157.06C24.9518 155.666 24.5273 154.136 23.9585 152.91C23.0854 151.036 22.1481 149.185 21.0988 147.399C19.5003 144.577 17.5752 141.953 15.3632 139.581C12.8243 136.746 9.51009 134.719 5.83073 133.749C4.88549 133.525 -0.850036 132.147 0.127246 134.71C0.314363 135.098 0.588479 135.438 0.928297 135.704C4.1325 138.427 7.84938 140.197 11.342 142.528C16.5167 146.013 22.805 154.112 25.4004 157.62L26.634 159.927C21.9479 153.951 13.4327 149.634 10.1484 150.563C6.07906 151.709 13.9694 154.761 20.6181 157.636C23.6107 158.822 26.2675 160.722 28.3563 163.172C29.4137 165.166 30.5912 167.425 31.7688 169.724C31.9049 170.069 32.0331 170.405 32.1773 170.733C31.3062 169.328 30.2738 168.03 29.1013 166.864C25.8971 163.884 16.4046 160.889 14.8586 164.013C13.3125 167.137 20.4659 166.712 26.2816 168.595C29.4157 169.686 32.1336 171.724 34.0598 174.426L34.3882 174.915C34.9169 175.972 35.4135 176.998 35.8862 177.983C36.9756 180.274 38.017 182.429 39.0423 184.528C37.4527 181.584 35.4453 178.886 33.0825 176.517C28.4364 172.143 21.6114 170.293 18.7837 171.815C15.956 173.337 27.355 176.894 32.7701 179.825C35.8778 181.582 38.4838 184.106 40.34 187.155C41.7979 190.111 43.2638 193.003 44.8419 196.039C42.0714 192.71 39.0362 189.61 35.766 186.771C30.4951 182.012 24.327 181.58 22.3324 183.686C20.3378 185.793 25.2963 186.674 34.22 190.095C38.9153 191.897 43.0576 194.896 46.2357 198.794C46.9086 200.068 47.5975 201.374 48.3345 202.727C49.2162 204.354 50.1814 205.935 51.2263 207.462C49.7684 206.516 47.6216 205.139 45.2344 203.649C42.5575 202.028 40.0106 200.201 37.6164 198.186C34.8608 195.782 31.0879 193.171 27.2028 194.18C26.9142 194.224 26.6386 194.33 26.3953 194.491C26.152 194.652 25.9469 194.865 25.7942 195.113C25.6416 195.362 25.5452 195.641 25.5118 195.931C25.4784 196.221 25.5087 196.515 25.6007 196.792C25.8836 197.584 26.4145 198.264 27.1147 198.73C30.7674 201.566 35.6779 202.928 39.9315 204.594C43.8296 206.129 47.8249 207.406 51.8912 208.415C52.9005 209.865 53.9579 211.291 55.0072 212.661L53.1007 212.717C50.8418 212.781 40.6524 208.167 35.4776 206.677C30.3028 205.187 25.4645 208.006 30.8876 210.922C36.3107 213.838 51.0581 213.189 51.0581 213.189L55.3116 213.085C56.313 214.367 57.2983 215.576 58.2195 216.69H38.017V222.297H42.0222L45.2264 242.227H72.1337L75.3379 222.313H79.3432V216.706H65.9496C65.8414 214.285 65.9056 211.86 66.1419 209.448C67.0342 208.539 68.0257 207.733 69.0977 207.045C74.9775 202.984 84.9425 202.647 87.594 194.829C88.2348 192.939 87.5139 190.519 85.2549 190.624C83.6528 190.704 81.9145 192.122 80.9052 193.291C77.5408 197.176 75.0095 201.205 70.6358 204.145C70.4355 204.282 67.6799 206.476 66.3101 207.838C66.4623 206.565 66.6545 205.203 66.9029 203.737C67.9597 201.862 69.1652 200.076 70.5076 198.394C74.0883 193.956 79.5354 191.353 83.4045 187.115C84.5901 185.817 86.1521 181.155 82.5314 182.309C80.9293 182.829 79.0228 185.265 77.7651 186.386C74.2084 189.59 70.5557 193.003 68.2326 197.216C68.3287 196.8 68.4329 196.415 68.529 195.959C71.0288 191.959 73.8413 188.164 76.94 184.608C82.0828 178.752 87.3537 174.923 87.4418 171.727C87.5299 168.531 80.8972 173.89 75.2658 181.227C72.7113 184.593 70.7301 188.358 69.4021 192.37C70.4355 188.212 71.5329 184.023 72.6063 180.002C73.3433 177.999 75.5302 172.792 79.5595 169.179C84.6461 164.637 88.7635 160.889 89.4925 156.363C90.2214 151.837 88.1547 153.223 83.6368 159.911ZM55.1915 211.435C54.4332 210.399 53.6321 209.267 52.7883 208.038C52.284 205.946 51.9491 203.816 51.787 201.67C51.6773 199.832 51.7606 197.988 52.0354 196.167C53.4005 197.859 54.8523 199.479 56.3851 201.021C56.3486 202.625 56.1527 204.222 55.8003 205.788C55.7763 206.02 55.2636 209.504 55.1915 211.435ZM59.5492 216.706C58.5158 215.608 57.3864 214.303 56.1608 212.701C56.1915 211.43 56.3662 210.167 56.6814 208.936C57.1719 206.995 57.8758 205.114 58.7802 203.328C60.6787 205.131 62.0725 206.332 62.0725 206.332L65.2767 209.136C65.0284 211.94 64.8842 214.559 64.7961 216.69L59.5492 216.706ZM65.3168 208.647L63.8829 207.39C63.0818 206.669 61.64 203.881 60.0699 200.677C60.7444 199.325 61.3382 197.934 61.8482 196.511C63.5465 199.659 65.0524 202.119 65.9416 203.424C65.7253 205.171 65.485 206.933 65.3168 208.647Z" fill="#A2B8C6"/>
<path opacity="0.5" d="M83.6368 159.911C80.5448 164.493 76.2351 170.461 73.9361 175.251C74.8092 172.095 75.6664 169.115 76.4434 166.44C77.6209 164.133 80.7771 158.285 84.4539 154.424C89.0759 149.474 91.0545 146.301 88.5633 146.021C86.841 145.829 81.7944 152.55 78.6302 159.23C79.3191 156.947 79.8639 155.225 80.1923 154.184C80.3445 153.727 80.4887 153.214 80.6329 152.678C83.9082 148.103 86.8888 143.325 89.5566 138.371C94.2267 129.64 95.7327 121.405 92.6166 124.953C89.7488 128.214 84.7583 144.419 80.8011 152.053C81.1295 150.739 81.4499 149.281 81.7303 147.847C82.291 146.462 83.028 145.052 83.4446 143.77C84.0934 141.808 84.6622 139.813 85.1188 137.794C85.8712 134.645 86.253 131.419 86.2562 128.182C86.3357 124.379 85.2997 120.636 83.2763 117.416C82.7396 116.614 79.4633 111.712 78.47 114.211C78.342 114.629 78.3173 115.072 78.3979 115.501C78.8786 119.674 80.3925 123.512 81.3298 127.573C82.7316 133.653 81.8024 143.866 81.3298 148.208C81.1535 148.889 80.9293 149.746 80.6649 150.731C81.3138 143.161 78.0375 134.198 75.0015 132.636C71.2446 130.697 74.9294 138.307 77.8292 144.948C79.2059 147.856 79.8521 151.057 79.7117 154.272C79.1189 156.459 78.438 158.91 77.7331 161.393C77.5969 161.738 77.4607 162.074 77.3325 162.411C77.6571 160.79 77.7915 159.136 77.7331 157.484C77.4527 153.142 72.5342 144.451 69.266 145.677C65.9977 146.902 71.5329 151.492 74.4888 156.827C75.9996 159.753 76.5756 163.072 76.139 166.336C76.139 166.528 76.0749 166.72 76.0509 166.912C75.7144 168.042 75.378 169.139 75.0495 170.173C74.2485 172.576 73.5676 174.883 72.8867 177.11C73.7233 173.882 74.0902 170.55 73.9761 167.217C73.5676 160.849 69.8427 154.841 66.7667 154.024C63.6906 153.206 69.5623 163.58 71.5329 169.412C72.6044 172.818 72.7864 176.441 72.0616 179.938C71.1084 183.094 70.2112 186.202 69.29 189.502C69.5503 185.19 69.4592 180.863 69.0176 176.565C68.4168 169.484 64.2113 164.958 61.3035 165.142C58.3957 165.326 61.4317 169.348 65.6132 177.959C67.8204 182.481 68.8036 187.502 68.4649 192.522C68.0884 193.916 67.6638 195.342 67.3114 196.832C66.8628 198.53 66.5103 200.372 66.1979 202.263C65.7734 200.581 65.1485 198.113 64.4196 195.39C63.5707 192.376 62.9547 189.302 62.5772 186.194C62.1847 182.581 61.2314 178.079 57.6908 176.197C57.4512 176.028 57.1774 175.914 56.8887 175.863C56.6001 175.811 56.3037 175.825 56.0207 175.901C55.7377 175.978 55.475 176.116 55.2514 176.305C55.0278 176.495 54.8487 176.731 54.7269 176.998C54.3945 177.771 54.3187 178.63 54.5106 179.449C54.981 181.904 55.7897 184.282 56.9137 186.514C56.2126 187.846 55.8938 189.346 55.9925 190.848C55.9925 191.417 56.0406 191.977 56.0807 192.53C55.7682 191.961 55.4719 191.433 55.1915 190.928C54.6845 190.08 54.0587 189.308 53.333 188.637C53.514 187.31 53.605 185.971 53.6054 184.632C53.6054 182.869 51.5467 178.4 49.6883 181.716C48.9513 183.038 49.0875 185.649 49.0154 187.379C48.5107 187.852 48.3585 188.829 48.7831 190.375C48.3618 194.389 48.5726 198.443 49.4079 202.391L48.7751 201.27C47.8649 196.637 47.3291 191.938 47.173 187.219C46.8686 179.441 48.1022 173.033 45.9874 170.629C43.8726 168.226 42.6791 176.677 43.5843 185.849C44.0142 190.055 45.1347 194.16 46.9006 198.001C44.8179 194.26 42.7592 190.447 40.8126 186.787C40.0116 184.816 38.025 179.513 38.5136 174.13C39.1304 167.337 39.579 161.786 36.9996 157.965C34.4202 154.144 33.8835 156.619 35.1492 164.581C36.0143 170.053 36.9355 177.358 38.5296 182.429C37.0156 179.521 35.5978 176.757 34.3321 174.25C33.6112 171.759 31.929 165.334 31.929 160.007C31.929 153.239 31.2 149.594 29.1974 151.06C27.8036 152.101 28.7007 160.456 30.9437 167.489C29.8943 165.35 29.1013 163.708 28.6447 162.739C28.4364 162.298 28.2041 161.834 27.9397 161.337C27.2238 155.761 26.1536 150.236 24.7355 144.795C22.1962 135.183 17.6783 128.182 17.8145 132.892C17.9426 137.234 25.3604 152.486 27.6754 160.768C27.0185 159.583 26.2575 158.301 25.4885 157.06C24.9518 155.666 24.5273 154.136 23.9585 152.91C23.0854 151.036 22.1481 149.185 21.0988 147.399C19.5003 144.577 17.5752 141.953 15.3632 139.581C12.8243 136.746 9.51009 134.719 5.83073 133.749C4.88549 133.525 -0.850036 132.147 0.127246 134.71C0.314363 135.098 0.588479 135.438 0.928297 135.704C4.1325 138.427 7.84938 140.197 11.342 142.528C16.5167 146.013 22.805 154.112 25.4004 157.62L26.634 159.927C21.9479 153.951 13.4327 149.634 10.1484 150.563C6.07906 151.709 13.9694 154.761 20.6181 157.636C23.6107 158.822 26.2675 160.722 28.3563 163.172C29.4137 165.166 30.5912 167.425 31.7688 169.724C31.9049 170.069 32.0331 170.405 32.1773 170.733C31.3062 169.328 30.2738 168.03 29.1013 166.864C25.8971 163.884 16.4046 160.889 14.8586 164.013C13.3125 167.137 20.4659 166.712 26.2816 168.595C29.4157 169.686 32.1336 171.724 34.0598 174.426L34.3882 174.915C34.9169 175.972 35.4135 176.998 35.8862 177.983C36.9756 180.274 38.017 182.429 39.0423 184.528C37.4527 181.584 35.4453 178.886 33.0825 176.517C28.4364 172.143 21.6114 170.293 18.7837 171.815C15.956 173.337 27.355 176.894 32.7701 179.825C35.8778 181.582 38.4838 184.106 40.34 187.155C41.7979 190.111 43.2638 193.003 44.8419 196.039C42.0714 192.71 39.0362 189.61 35.766 186.771C30.4951 182.012 24.327 181.58 22.3324 183.686C20.3378 185.793 25.2963 186.674 34.22 190.095C38.9153 191.897 43.0576 194.896 46.2357 198.794C46.9086 200.068 47.5975 201.374 48.3345 202.727C49.2162 204.354 50.1814 205.935 51.2263 207.462C49.7684 206.516 47.6216 205.139 45.2344 203.649C42.5575 202.028 40.0106 200.201 37.6164 198.186C34.8608 195.782 31.0879 193.171 27.2028 194.18C26.9142 194.224 26.6386 194.33 26.3953 194.491C26.152 194.652 25.9469 194.865 25.7942 195.113C25.6416 195.362 25.5452 195.641 25.5118 195.931C25.4784 196.221 25.5087 196.515 25.6007 196.792C25.8836 197.584 26.4145 198.264 27.1147 198.73C30.7674 201.566 35.6779 202.928 39.9315 204.594C43.8296 206.129 47.8249 207.406 51.8912 208.415C52.9005 209.865 53.9579 211.291 55.0072 212.661L53.1007 212.717C50.8418 212.781 40.6524 208.167 35.4776 206.677C30.3028 205.187 25.4645 208.006 30.8876 210.922C36.3107 213.838 51.0581 213.189 51.0581 213.189L55.3116 213.085C56.313 214.367 57.2983 215.576 58.2195 216.69H38.017V222.297H42.0222L45.2264 242.227H72.1337L75.3379 222.313H79.3432V216.706H65.9496C65.8414 214.285 65.9056 211.86 66.1419 209.448C67.0342 208.539 68.0257 207.733 69.0977 207.045C74.9775 202.984 84.9425 202.647 87.594 194.829C88.2348 192.939 87.5139 190.519 85.2549 190.624C83.6528 190.704 81.9145 192.122 80.9052 193.291C77.5408 197.176 75.0095 201.205 70.6358 204.145C70.4355 204.282 67.6799 206.476 66.3101 207.838C66.4623 206.565 66.6545 205.203 66.9029 203.737C67.9597 201.862 69.1652 200.076 70.5076 198.394C74.0883 193.956 79.5354 191.353 83.4045 187.115C84.5901 185.817 86.1521 181.155 82.5314 182.309C80.9293 182.829 79.0228 185.265 77.7651 186.386C74.2084 189.59 70.5557 193.003 68.2326 197.216C68.3287 196.8 68.4329 196.415 68.529 195.959C71.0288 191.959 73.8413 188.164 76.94 184.608C82.0828 178.752 87.3537 174.923 87.4418 171.727C87.5299 168.531 80.8972 173.89 75.2658 181.227C72.7113 184.593 70.7301 188.358 69.4021 192.37C70.4355 188.212 71.5329 184.023 72.6063 180.002C73.3433 177.999 75.5302 172.792 79.5595 169.179C84.6461 164.637 88.7635 160.889 89.4925 156.363C90.2214 151.837 88.1547 153.223 83.6368 159.911ZM55.1915 211.435C54.4332 210.399 53.6321 209.267 52.7883 208.038C52.284 205.946 51.9491 203.816 51.787 201.67C51.6773 199.832 51.7606 197.988 52.0354 196.167C53.4005 197.859 54.8523 199.479 56.3851 201.021C56.3486 202.625 56.1527 204.222 55.8003 205.788C55.7763 206.02 55.2636 209.504 55.1915 211.435ZM59.5492 216.706C58.5158 215.608 57.3864 214.303 56.1608 212.701C56.1915 211.43 56.3662 210.167 56.6814 208.936C57.1719 206.995 57.8758 205.114 58.7802 203.328C60.6787 205.131 62.0725 206.332 62.0725 206.332L65.2767 209.136C65.0284 211.94 64.8842 214.559 64.7961 216.69L59.5492 216.706ZM65.3168 208.647L63.8829 207.39C63.0818 206.669 61.64 203.881 60.0699 200.677C60.7444 199.325 61.3382 197.934 61.8482 196.511C63.5465 199.659 65.0524 202.119 65.9416 203.424C65.7253 205.171 65.485 206.933 65.3168 208.647Z" fill="white"/>
<path d="M88.1066 262.49C106.679 262.49 121.735 259.23 121.735 255.209C121.735 251.187 106.679 247.927 88.1066 247.927C69.5343 247.927 54.4785 251.187 54.4785 255.209C54.4785 259.23 69.5343 262.49 88.1066 262.49Z" fill="#A2B8C6"/>
<path opacity="0.5" d="M88.1066 262.49C106.679 262.49 121.735 259.23 121.735 255.209C121.735 251.187 106.679 247.927 88.1066 247.927C69.5343 247.927 54.4785 251.187 54.4785 255.209C54.4785 259.23 69.5343 262.49 88.1066 262.49Z" fill="white"/>
<path d="M210.142 262.49C228.714 262.49 243.77 259.23 243.77 255.209C243.77 251.187 228.714 247.927 210.142 247.927C191.57 247.927 176.514 251.187 176.514 255.209C176.514 259.23 191.57 262.49 210.142 262.49Z" fill="#A2B8C6"/>
<path opacity="0.5" d="M210.142 262.49C228.714 262.49 243.77 259.23 243.77 255.209C243.77 251.187 228.714 247.927 210.142 247.927C191.57 247.927 176.514 251.187 176.514 255.209C176.514 259.23 191.57 262.49 210.142 262.49Z" fill="white"/>
<path d="M153.633 122.264C154.988 123.112 156.146 124.24 157.029 125.572C158.039 127.407 162.268 128.6 162.268 128.6H163.83L164.471 135.946C162.861 135.999 161.255 136.154 159.665 136.411C158.727 136.618 157.773 136.738 156.813 136.771C156.813 136.771 151.855 130.531 151.029 129.337C150.204 128.144 150.116 125.669 150.485 125.204C150.853 124.739 153.633 122.264 153.633 122.264Z" fill="white" stroke="#263238" stroke-width="0.50848" stroke-linecap="round" stroke-linejoin="round"/>
<path d="M147.102 134.752C147.102 134.752 144.346 135.673 145.54 136.41C146.154 136.683 146.837 136.758 147.496 136.626C148.154 136.494 148.756 136.161 149.217 135.673C149.673 134.936 148.224 134.383 147.102 134.752Z" fill="white" stroke="#263238" stroke-width="0.50848" stroke-linecap="round" stroke-linejoin="round"/>
<path d="M144.077 126.308C144.077 126.308 152.248 123.368 152.616 123.64C152.985 123.913 153.626 126.396 153.626 126.396C153.626 126.396 159.313 129.792 159.778 131.082C160.146 133.084 160.146 135.136 159.778 137.138C159.497 137.603 157.943 138.147 157.374 138.332C156.801 138.474 156.202 138.474 155.628 138.332C155.356 138.244 150.942 135.127 150.942 135.127C150.942 135.127 146.448 135.584 145.439 135.584C144.429 135.584 143.412 135.496 143.412 135.496L144.077 126.308Z" fill="white" stroke="#263238" stroke-width="0.50848" stroke-linecap="round" stroke-linejoin="round"/>
<path d="M154.242 129.772C154.242 129.772 157.27 131.431 157.919 132.344C158.568 133.257 159.201 137.214 159.201 137.214" stroke="#263238" stroke-width="0.50848" stroke-linecap="round" stroke-linejoin="round"/>
<path d="M152.945 131.452C152.945 131.452 156.526 133.374 156.886 134.295C157.229 135.471 157.497 136.667 157.688 137.876" stroke="#263238" stroke-width="0.50848" stroke-linecap="round" stroke-linejoin="round"/>
<path d="M154.814 124.008C154.814 124.008 150.865 128.414 149.944 128.878C149.022 129.343 148.846 128.782 148.342 128.414C147.837 128.045 151.281 123.095 151.193 122.726C151.675 122.371 152.261 122.187 152.859 122.203C153.457 122.219 154.032 122.434 154.494 122.815" fill="white"/>
<path d="M154.814 124.008C154.814 124.008 150.865 128.414 149.944 128.878C149.022 129.343 148.846 128.782 148.342 128.414C147.837 128.045 151.281 123.095 151.193 122.726C151.675 122.371 152.261 122.187 152.859 122.203C153.457 122.219 154.032 122.434 154.494 122.815" stroke="#263238" stroke-width="0.50848" stroke-linecap="round" stroke-linejoin="round"/>
<path d="M148.942 133.773L148.798 134.27C148.507 135.148 148.338 136.061 148.293 136.985C148.477 137.354 149.583 137.722 149.951 137.17C150.32 136.617 151.049 133.869 150.864 133.501C150.68 133.132 149.959 131.538 148.942 133.773Z" fill="white" stroke="#263238" stroke-width="0.50848" stroke-linecap="round" stroke-linejoin="round"/>
<path d="M152.523 133.372C152.235 133.733 150.921 137.69 151.241 138.179C151.562 138.667 152.892 138.828 153.26 138.275C153.629 137.722 154.91 134.27 154.542 133.469C154.173 132.668 153.837 131.81 152.523 133.372Z" fill="white" stroke="#263238" stroke-width="0.50848" stroke-linecap="round" stroke-linejoin="round"/>
<path d="M154.757 134.197L154.621 134.517C154.22 135.47 153.075 138.346 153.379 138.883C153.683 139.419 155.486 139.684 155.854 138.795C156.223 137.905 157.512 134.477 156.655 133.652C156.521 133.492 156.343 133.374 156.143 133.313C155.943 133.252 155.73 133.251 155.529 133.308C155.329 133.366 155.149 133.48 155.012 133.638C154.874 133.796 154.786 133.99 154.757 134.197Z" fill="white" stroke="#263238" stroke-width="0.50848" stroke-linecap="round" stroke-linejoin="round"/>
<path d="M91.6237 56.9859C91.6237 56.9859 92.1044 59.9418 91.5516 61.1193C90.9989 62.2969 90.1738 64.7641 90.1738 64.7641L102.366 75.5783C102.366 75.5783 106.083 70.8921 106.772 69.9709C107.461 69.0497 108.374 67.8321 108.374 67.8321C108.374 67.8321 102.382 64.0431 101.164 61.2875C99.9467 58.5319 100.547 55.0233 97.96 54.4706C95.3727 53.9179 92.3847 55.3357 91.6237 56.9859Z" fill="white" stroke="#263238" stroke-width="0.50848" stroke-linecap="round" stroke-linejoin="round"/>
<path d="M114.786 38.7409C114.786 38.7409 119.88 38.6688 118.847 33.7824C117.814 28.896 105.902 27.8546 103.699 30.1296C101.496 32.4046 101.841 33.3338 101.841 33.3338C101.841 33.3338 91.5793 33.0614 88.9598 38.6367C86.3404 44.212 87.5179 51.4535 89.2402 55.2345C90.9624 59.0155 93.8542 59.432 95.3682 58.9514C96.8822 58.4708 97.9797 57.5736 97.9797 56.1958C97.9797 54.818 98.9489 51.5176 100.118 52.3427C101.288 53.1678 102.522 53.4402 104.596 51.4455C106.671 49.4509 109.619 46.9677 108.521 44.973C107.424 42.9784 105.558 42.9063 106.591 42.0092C107.624 41.112 113.48 40.4071 114.025 39.8063C114.328 39.4894 114.584 39.1306 114.786 38.7409Z" fill="#263238" stroke="#263238" stroke-width="0.50848" stroke-linecap="round" stroke-linejoin="round"/>
<path d="M114.543 35.8062C114.543 35.8062 115.264 37.2561 108.407 39.0584C101.55 40.8608 89.9831 41.2213 89.6387 45.5549" stroke="white" stroke-width="0.50848" stroke-linecap="round" stroke-linejoin="round"/>
<path d="M101.239 44.1104C101.239 44.1104 92.94 46.6337 91.1296 49.5255C89.3193 52.4173 91.8586 54.9326 91.8586 54.9326" stroke="white" stroke-width="0.50848" stroke-linecap="round" stroke-linejoin="round"/>
<path d="M114.791 38.7422C114.791 38.7422 116.721 45.2788 116.721 46.5925C116.721 47.9062 115.343 49.2039 115.96 50.6538C116.577 52.1037 118.644 54.9234 118.644 55.8206C118.644 56.7178 115.616 57.6069 115.616 57.6069C115.616 57.6069 113.068 67.2195 112.516 68.4211C111.963 69.6227 110.112 69.7989 107.901 69.2222C105.691 68.6454 99.8509 65.5694 98.2889 63.1662C96.7268 60.7631 97.8723 56.6857 97.8723 56.6857C97.8723 56.6857 94.6681 55.2438 94.0192 52.2159C93.3704 49.1879 95.7415 47.1853 97.8082 47.8742C98.3891 48.046 98.9277 48.3371 99.3898 48.7288C99.8518 49.1205 100.227 49.6043 100.492 50.1492C100.492 50.1492 100.7 50.9021 101.293 50.7019C101.886 50.5016 102.462 49.252 103.015 49.1799C103.568 49.1078 107.493 47.738 107.02 46.224C106.548 44.71 101.645 44.6219 101.99 42.9157C102.334 41.2094 114.791 38.7422 114.791 38.7422Z" fill="white" stroke="#263238" stroke-width="0.50848" stroke-linecap="round" stroke-linejoin="round"/>
<path d="M108.643 56.2229L106.648 57.6007" stroke="#263238" stroke-width="0.50848" stroke-linecap="round" stroke-linejoin="round"/>
<path d="M107.871 57.1191C107.871 57.1191 108.496 58.7693 111.075 59.322Z" fill="white"/>
<path d="M107.871 57.1191C107.871 57.1191 108.496 58.7693 111.075 59.322" stroke="#263238" stroke-width="0.50848" stroke-linecap="round" stroke-linejoin="round"/>
<path d="M108.01 57.601C108.01 57.601 106.841 60.8052 108.282 61.5261C109.724 62.247 110.349 59.2591 110.349 59.2591L108.01 57.601Z" fill="black"/>
<path d="M115.719 51.168C115.639 52.8422 115.215 54.18 114.774 54.1559C114.333 54.1319 114.053 52.7621 114.141 51.0879C114.229 49.4137 114.646 48.084 115.086 48.1C115.527 48.116 115.807 49.4938 115.719 51.168Z" fill="white" stroke="#263238" stroke-width="0.50848" stroke-linecap="round" stroke-linejoin="round"/>
<path d="M114.142 49.4783H100.092" stroke="#263238" stroke-width="0.50848" stroke-linecap="round" stroke-linejoin="round"/>
<path d="M113.207 47.6258C113.312 47.2502 113.504 46.9045 113.767 46.6165C114.03 46.3285 114.356 46.1062 114.721 45.9676C115.899 45.6232 116.099 46.248 116.099 46.248" fill="white"/>
<path d="M113.207 47.6258C113.312 47.2502 113.504 46.9045 113.767 46.6165C114.03 46.3285 114.356 46.1062 114.721 45.9676C115.899 45.6232 116.099 46.248 116.099 46.248" stroke="#263238" stroke-width="0.50848" stroke-linecap="round" stroke-linejoin="round"/>
<path d="M65.4554 164.32L108.151 163.038C108.151 163.038 110.811 192.597 110.17 193.245C109.529 193.894 67.2017 195.649 67.2017 195.649C67.2017 195.649 63.9254 195.881 63.4608 194.415C62.9962 192.949 65.4554 164.32 65.4554 164.32Z" fill="white" stroke="#263238" stroke-width="0.50848" stroke-linecap="round" stroke-linejoin="round"/>
<path d="M65.4933 164.318C65.4933 164.318 61.488 193.605 62.185 194.438C62.8819 195.271 66.1902 195.872 67.2396 195.632C68.2008 195.455 65.4933 164.318 65.4933 164.318Z" fill="white" stroke="#263238" stroke-width="0.50848" stroke-linecap="round" stroke-linejoin="round"/>
<path d="M77.9915 244.564C75.6444 245.998 74.5069 248.417 75.0596 250.347C75.6123 252.278 75.7886 252.462 77.2625 252.75C78.7364 253.039 85.3371 252.013 92.4825 250.82C99.6279 249.626 100.661 249.354 101.294 248.345C101.927 247.335 103.04 246.326 95.9671 245.14C88.8938 243.955 88.2529 242.657 88.2529 242.657C88.2529 242.657 81.7564 242.265 77.9915 244.564Z" fill="#A2B8C6" stroke="#263238" stroke-width="0.50848" stroke-linecap="round" stroke-linejoin="round"/>
<path d="M101.101 246.473C100.62 247.458 99.1142 249.229 94.38 249.798C89.3734 250.398 80.3135 251.303 75.5312 251.712C75.8597 252.393 76.2602 252.513 77.2615 252.737C78.7274 253.01 85.3361 252 92.4815 250.807C99.6269 249.613 100.66 249.341 101.293 248.332C101.702 247.723 102.254 247.114 101.101 246.473Z" fill="#263238" stroke="#263238" stroke-width="0.50848" stroke-linecap="round" stroke-linejoin="round"/>
<path d="M90.7443 247.042C90.7443 247.042 98.09 250.534 102.135 251.359C106.181 252.185 107.182 252.281 106.725 253.562C106.269 254.844 106.173 255.22 100.02 256.686C93.8684 258.152 87.1636 256.502 84.2238 255.949C81.2839 255.397 80.3707 256.23 79.089 255.677C77.8073 255.124 78.1678 252.369 78.1678 252.369L90.7443 247.042Z" fill="#A2B8C6" stroke="#263238" stroke-width="0.50848" stroke-linecap="round" stroke-linejoin="round"/>
<path d="M99.9691 256.689C105.136 255.456 106.025 254.999 106.45 254.118C100.842 256.521 93.4085 255.528 87.737 254.879C84.0842 254.454 80.5997 254.078 78.1244 253.878C78.1114 254.234 78.191 254.587 78.3552 254.903C78.5195 255.218 78.7629 255.486 79.0616 255.68C80.3433 256.233 81.2645 255.408 84.1964 255.952C87.1282 256.497 93.817 258.155 99.9691 256.689Z" fill="#263238" stroke="#263238" stroke-width="0.50848" stroke-linecap="round" stroke-linejoin="round"/>
<path d="M82.4423 179.567C82.4423 179.567 81.1526 190.029 78.5812 194.531C76.0098 199.033 72.5253 202.149 71.9725 208.67C71.4198 215.19 73.2542 241.817 73.4385 244.116C73.6227 246.415 72.6374 247.144 73.6227 248.61C74.24 249.509 74.9143 250.368 75.6414 251.181L78.6774 248.522C78.6774 248.522 80.8802 241.449 80.3275 227.951C79.7748 214.453 79.8709 205.369 82.258 196.366C84.6452 187.362 85.1018 184.983 83.9963 181.49C82.8909 177.997 82.4423 179.567 82.4423 179.567Z" fill="#263238" stroke="#263238" stroke-width="0.50848" stroke-linecap="round" stroke-linejoin="round"/>
<path d="M76.6443 157.872C76.6443 157.872 79.6723 163.584 80.3612 165.082C81.0501 166.58 82.6282 183.954 81.3946 189.738C80.161 195.522 75.3546 205.35 75.7872 213.978C76.2198 222.605 76.5883 245.475 76.5883 245.747C76.3121 247.111 76.3121 248.517 76.5883 249.881C77.0449 252.356 78.4227 253.085 78.4227 253.085C80.7603 251.997 83.1854 251.107 85.6722 250.426C90.1741 249.136 91.4558 247.301 91.4558 247.301C91.0629 246.112 90.6029 244.946 90.078 243.809C89.4371 242.527 88.3397 240.509 88.5239 239.86C88.7082 239.211 89.9017 218.103 92.2889 211.126C94.676 204.149 96.0458 196.803 98.0725 190.371C100.099 183.938 104.929 166.708 104.929 162.302V156.887L76.2839 156.334L76.6443 157.872Z" fill="#263238" stroke="#263238" stroke-width="0.50848" stroke-linecap="round" stroke-linejoin="round"/>
<path d="M79.0615 199.01C78.2604 201.469 77.3713 204.224 76.6984 206.411C75.0963 211.618 76.6984 240.856 76.6984 240.856C76.8736 242.988 76.9244 245.128 76.8506 247.265C76.6984 249.916 76.8506 250.966 77.5074 251.679" stroke="white" stroke-width="0.50848" stroke-linecap="round" stroke-linejoin="round"/>
<path d="M81.0343 192.797C81.0343 192.797 80.4415 194.567 79.6484 196.994" stroke="white" stroke-width="0.50848" stroke-linecap="round" stroke-linejoin="round"/>
<path d="M89.2513 62.2913C89.2513 62.2913 92.4555 63.3887 97.2618 67.5942C102.068 71.7997 106.971 75.789 105.937 77.2068C104.904 78.6247 102.973 83.6153 102.973 83.6153C102.973 83.6153 101.187 80.6514 95.884 76.4058C90.5811 72.1602 86.5117 68.3472 86.5117 68.3472C86.5117 68.3472 88.6986 63.1884 89.2513 62.2913Z" fill="white" stroke="#263238" stroke-width="0.50848" stroke-linecap="round" stroke-linejoin="round"/>
<path d="M84.9877 69.0322C84.9877 69.0322 74.7262 76.3298 72.9719 83.355C71.2176 90.3802 70.4886 93.8248 70.6328 107.25C70.777 120.676 71.5941 129.151 71.5941 129.768C71.5941 130.385 68.8945 155.321 68.8945 155.594C68.8945 155.866 73.7008 160.28 87.1425 160.552C96.2649 160.611 105.376 159.898 114.378 158.422L108.523 110.078C108.523 110.078 106.248 89.4831 103.909 85.63C101.569 81.777 84.9877 69.0322 84.9877 69.0322Z" fill="#A2B8C6" stroke="#263238" stroke-width="0.50848" stroke-linecap="round" stroke-linejoin="round"/>
<path d="M90.9355 136.038C90.9355 136.038 99.4748 137.76 105.354 135.621" stroke="#263238" stroke-width="0.50848" stroke-linecap="round" stroke-linejoin="round"/>
<path d="M90.9355 138.58C90.9355 138.58 99.4748 140.302 105.354 138.171" stroke="#263238" stroke-width="0.50848" stroke-linecap="round" stroke-linejoin="round"/>
<path d="M142.557 124.934L144.672 125.943L143.382 135.492L141.275 135.123L142.557 124.934Z" fill="white" stroke="#263238" stroke-width="0.50848" stroke-linecap="round" stroke-linejoin="round"/>
<path d="M94.1106 81.5977C92.9089 81.9771 91.8321 82.6746 90.9945 83.6163C89.6167 85.2184 82.183 94.4465 82.7277 98.4918C83.2724 102.537 92.9411 117.309 96.1453 121.907C100.09 127.733 105.772 132.168 112.383 134.579C120.465 137.519 141.493 136.053 141.493 136.053L142.606 124.654C142.606 124.654 131.135 120.985 123.237 118.598C118.844 117.299 114.548 115.693 110.38 113.792C110.38 113.792 108.546 109.29 107.256 108.561C105.966 107.832 105.79 107.367 105.79 107.367C105.79 107.367 103.315 93.8698 102.025 89.456C100.735 85.0422 98.997 83.9527 98.997 83.9527" fill="#A2B8C6"/>
<path d="M94.1106 81.5977C92.9089 81.9771 91.8321 82.6746 90.9945 83.6163C89.6167 85.2184 82.183 94.4465 82.7277 98.4918C83.2724 102.537 92.9411 117.309 96.1453 121.907C100.09 127.733 105.772 132.168 112.383 134.579C120.465 137.519 141.493 136.053 141.493 136.053L142.606 124.654C142.606 124.654 131.135 120.985 123.237 118.598C118.844 117.299 114.548 115.693 110.38 113.792C110.38 113.792 108.546 109.29 107.256 108.561C105.966 107.832 105.79 107.367 105.79 107.367C105.79 107.367 103.315 93.8698 102.025 89.456C100.735 85.0422 98.997 83.9527 98.997 83.9527" stroke="#263238" stroke-width="0.50848" stroke-linecap="round" stroke-linejoin="round"/>
<path d="M201.481 242.435C198.205 244.326 194.8 245.983 191.291 247.394C186.605 249.14 185.5 249.797 186.421 250.79C187.342 251.784 195.329 252.537 199.822 251.591C204.316 250.646 206.071 250.037 208.089 250.125C210.108 250.214 212.896 250.766 213.873 249.388C214.85 248.011 215.251 247.738 214.514 245.439C213.777 243.14 201.481 242.435 201.481 242.435Z" fill="#A2B8C6" stroke="#263238" stroke-width="0.50848" stroke-linecap="round" stroke-linejoin="round"/>
<path d="M199.806 251.615C204.308 250.702 206.054 250.061 208.072 250.149C210.091 250.237 212.879 250.79 213.856 249.412C214.577 248.427 214.97 248.002 214.865 247.009C211.597 246.737 205.293 247.77 197.779 249.412C193.976 250.338 190.033 250.539 186.156 250.005C186.112 250.148 186.112 250.301 186.156 250.444C186.201 250.587 186.287 250.713 186.404 250.806C187.325 251.799 195.312 252.536 199.806 251.615Z" fill="#263238" stroke="#263238" stroke-width="0.50848" stroke-linecap="round" stroke-linejoin="round"/>
<path d="M218.818 248.5C216.979 250.49 215.018 252.362 212.946 254.108C209.91 256.583 204.679 259.988 205.232 261.453C205.785 262.919 209.542 264.297 217.44 262.255C222.495 260.873 227.276 258.638 231.579 255.646C232.461 255.482 233.248 254.99 233.781 254.268C234.43 253.163 233.693 251.424 233.693 251.424L218.818 248.5Z" fill="#A2B8C6" stroke="#263238" stroke-width="0.50848" stroke-linecap="round" stroke-linejoin="round"/>
<path d="M217.38 262.27C222.435 260.889 227.216 258.654 231.519 255.662C232.401 255.498 233.188 255.006 233.721 254.284C234.071 253.438 234.071 252.487 233.721 251.641C222.298 260.284 211.612 262.054 205.957 262.31C207.447 263.336 211.116 263.873 217.38 262.27Z" fill="#263238" stroke="#263238" stroke-width="0.50848" stroke-linecap="round" stroke-linejoin="round"/>
<path d="M205.051 141.533C205.051 141.533 200.189 142.182 196.696 140.892C193.204 139.602 189.904 138.601 189.904 138.601C189.904 138.601 187.973 163.666 190.088 173.767C192.203 183.868 197.802 196.196 197.89 199.016C198.002 202.408 198.401 205.785 199.084 209.109C199.724 211.681 202.849 231.539 203.033 233.718C203.155 234.817 203.155 235.927 203.033 237.026C203.033 237.026 200.83 237.763 200.83 238.404V243.082C202.647 244.037 204.555 244.807 206.525 245.381C209.922 246.39 214.696 247.215 214.696 247.215C215.106 245.365 215.411 243.493 215.609 241.608C215.609 240.326 214.808 236.93 214.808 235.087C214.808 233.245 215.273 211.216 215.273 211.216C215.273 211.216 219.767 230.041 219.767 236.281C219.767 242.521 219.679 244.548 219.679 244.548C219.679 244.548 217.66 243.907 217.66 245.285C217.66 246.663 217.564 249.963 217.564 249.963C217.564 249.963 224.725 251.797 228.122 252.807C230.147 253.418 232.287 253.544 234.37 253.175C234.37 253.175 236.204 246.198 236.02 243.907C235.836 241.616 233.545 239.678 233.545 238.396C233.545 237.114 234.738 224.442 232.992 213.419C231.246 202.397 226.656 197.35 226.472 191.935C226.287 186.52 227.273 167.054 227.393 163.898C227.513 160.742 230.693 154.165 231.158 151.225C231.622 148.286 231.246 139.57 231.246 139.57C231.246 139.57 210.659 142.542 205.051 141.533Z" fill="#263238" stroke="#263238" stroke-width="0.50848" stroke-linecap="round" stroke-linejoin="round"/>
<path d="M196.268 154.114L201.226 157.326" stroke="white" stroke-width="0.50848" stroke-linecap="round" stroke-linejoin="round"/>
<path d="M214.191 208.401C214.88 210.187 215.305 211.22 215.305 211.22" stroke="white" stroke-width="0.50848" stroke-linecap="round" stroke-linejoin="round"/>
<path d="M199.549 156.501C199.549 156.501 202.849 175.87 206.798 187.99C208.825 194.206 210.996 200.166 212.63 204.484" stroke="white" stroke-width="0.50848" stroke-linecap="round" stroke-linejoin="round"/>
<path d="M162.326 127.322C162.414 127.594 162.871 137.608 162.871 137.608L189.225 135.204L188.681 122.259L162.326 127.322Z" fill="#263238" stroke="#263238" stroke-width="0.50848" stroke-linecap="round" stroke-linejoin="round"/>
<path d="M213.996 74.8735C213.996 74.8735 208.028 76.9802 206.835 78.4542C205.641 79.9281 198.568 104.801 196.245 112.146C193.922 119.492 193.217 141.713 193.217 141.713C194.501 142.188 195.822 142.558 197.166 142.819C198.489 143.042 199.83 143.133 201.171 143.091C201.171 143.091 208.885 117.105 212.65 108.205C216.415 99.3055 222.744 86.5368 225.139 81.5783C227.534 76.6198 229.633 75.6986 229.36 73.3114C229.088 70.9243 227.982 70.0031 226.605 69.8188C225.227 69.6346 213.996 74.8735 213.996 74.8735Z" fill="white" stroke="#263238" stroke-width="0.50848" stroke-linecap="round" stroke-linejoin="round"/>
<path d="M214.802 74.1431C214.802 74.1431 208.834 76.2499 207.641 77.7238C206.447 79.1978 199.382 104.07 197.107 111.416C194.832 118.762 194.055 140.983 194.055 140.983C195.339 141.458 196.66 141.828 198.004 142.088C199.327 142.307 200.668 142.398 202.009 142.361C202.009 142.361 209.723 116.375 213.488 107.467C217.253 98.5592 223.589 85.8385 225.977 80.8399C228.364 75.8413 230.47 74.9682 230.198 72.5811C229.926 70.1939 228.82 69.2727 227.442 69.0885C226.065 68.9042 214.802 74.1431 214.802 74.1431Z" fill="#A2B8C6" stroke="#263238" stroke-width="0.50848" stroke-linecap="round" stroke-linejoin="round"/>
<path d="M222.776 77.1649C219.033 83.5667 215.752 90.227 212.955 97.095C209.19 106.828 206.162 115.519 202.301 128.496C199.981 136.509 199.203 144.89 200.01 153.193C200.01 153.193 201.845 156.317 212.683 156.685C223.521 157.054 237.107 153.561 237.107 153.561C237.107 153.561 235.264 142.539 235.08 136.026C234.896 129.514 240.135 106.644 242.338 100.676C244.541 94.7079 249.315 88.7401 244.741 82.9565C240.167 77.1729 229.225 70.6523 229.225 70.6523C229.225 70.6523 223.97 75.1462 222.776 77.1649Z" fill="#263238" stroke="#263238" stroke-width="0.50848" stroke-linecap="round" stroke-linejoin="round"/>
<path d="M210.461 77.0759C210.461 77.0759 207.617 80.6566 205.046 88.2906C202.474 95.9246 197.7 116.207 195.497 124.835C193.294 133.462 192.189 152.655 192.189 152.655C192.189 152.655 190.995 152.567 188.52 152.567C186.889 152.518 185.289 152.111 183.834 151.373C183.834 151.373 185.58 132.549 187.142 123.737C188.704 114.926 193.294 99.2169 194.119 93.0648C194.945 86.9128 195.217 85.3587 196.322 84.5256C197.428 83.6925 206.055 78.4697 207.801 77.2761C209.548 76.0825 210.461 77.0759 210.461 77.0759Z" fill="#263238" stroke="#263238" stroke-width="0.50848" stroke-linecap="round" stroke-linejoin="round"/>
<path d="M232.066 72.6687C232.066 72.6687 226.835 83.0423 225.457 84.9728C224.658 86.0748 223.951 87.2402 223.342 88.4574L218.752 90.2037L220.587 93.1436C220.587 93.1436 211.318 109.741 208.931 115.269C206.544 120.796 204.125 126.748 204.125 126.748" stroke="white" stroke-width="0.50848" stroke-linecap="round" stroke-linejoin="round"/>
<path d="M194.407 119.41C194.239 121.245 194.207 121.974 194.207 121.974" stroke="white" stroke-width="0.50848" stroke-linecap="round" stroke-linejoin="round"/>
<path d="M205.722 80.2861L200.58 88.1845L201.773 90.0189L198.922 93.5115C198.922 93.5115 195.894 106.088 195.068 112.881C194.908 114.203 194.772 115.356 194.668 116.357" stroke="white" stroke-width="0.50848" stroke-linecap="round" stroke-linejoin="round"/>
<path d="M206.81 76.892L205.801 81.7543L211.032 78.2698L206.81 76.892Z" fill="white" stroke="#263238" stroke-width="0.50848" stroke-linecap="round" stroke-linejoin="round"/>
<path d="M211.125 73.0366C211.028 73.309 206.719 76.8897 206.719 76.8897L211.581 78.9083L212.59 74.9592L211.125 73.0366Z" fill="white" stroke="#263238" stroke-width="0.50848" stroke-linecap="round" stroke-linejoin="round"/>
<path d="M209.44 36.3969C207.367 37.6879 205.734 39.5756 204.754 41.812C203.103 45.5769 201.822 47.1389 202.19 48.3325C202.455 49.1399 202.637 49.9719 202.735 50.8158C202.735 51.0881 198.882 54.765 198.786 55.8624C198.69 56.9598 201.269 58.9865 201.269 58.9865C201.269 58.9865 201.541 65.3228 201.541 65.8755C201.541 66.4283 201.726 69.272 204.393 70.001C206.207 70.4193 208.096 70.389 209.896 69.9128L211.643 78.9086C211.643 78.9086 223.859 71.3788 225.14 70.7379C226.422 70.0971 227.984 69.272 228.08 68.2627C228.176 67.2533 227.343 61.646 227.343 61.646C227.343 61.646 233.864 55.6782 233.752 48.701C233.64 41.7238 229.923 37.3181 223.122 35.2433C216.321 33.1686 209.44 36.3969 209.44 36.3969Z" fill="white" stroke="#263238" stroke-width="0.50848" stroke-linecap="round" stroke-linejoin="round"/>
<path d="M233.769 48.7034C233.681 41.7262 229.916 37.3204 223.124 35.2057C216.331 33.0909 209.442 36.3992 209.442 36.3992C208.905 36.7209 208.4 37.0938 207.936 37.5127C210.178 37.1122 213.871 36.8318 216.515 38.514C220.52 41.0854 217.981 43.6568 216.603 45.0346C215.225 46.4124 214.953 46.9571 215.962 48.2388C216.971 49.5204 218.902 49.5204 218.437 50.714C217.973 51.9076 216.603 53.5658 217.708 54.0224C218.814 54.479 219.815 53.4696 220.28 52.0918C220.744 50.714 223.027 50.714 223.949 53.5658C224.282 54.6381 224.276 55.7874 223.93 56.856C223.585 57.9245 222.917 58.8599 222.018 59.5336C221.278 60.0815 220.364 60.3407 219.447 60.2625C221.024 61.0635 222.688 61.6816 224.405 62.105C225.402 62.1882 226.405 62.1098 227.377 61.8727C227.377 61.7285 227.377 61.6403 227.377 61.6403C227.377 61.6403 233.866 55.6805 233.769 48.7034Z" fill="#263238" stroke="#263238" stroke-width="0.50848" stroke-linecap="round" stroke-linejoin="round"/>
<path d="M207.041 52.2846C207.041 52.9976 206.816 53.5743 206.536 53.5743C206.256 53.5743 206.031 52.9976 206.031 52.2846C206.031 51.5717 206.256 51.0029 206.536 51.0029C206.816 51.0029 207.041 51.5797 207.041 52.2846Z" fill="black"/>
<path d="M204.656 48.4311C204.656 48.4311 205.025 47.1414 207.059 47.2375C209.094 47.3337 209.174 48.7996 209.174 48.7996" fill="white"/>
<path d="M204.656 48.4311C204.656 48.4311 205.025 47.1414 207.059 47.2375C209.094 47.3337 209.174 48.7996 209.174 48.7996" stroke="#263238" stroke-width="0.50848" stroke-linecap="round" stroke-linejoin="round"/>
<path d="M201.227 58.9857C201.788 59.1884 202.389 59.2527 202.981 59.1733C203.572 59.0938 204.135 58.8728 204.623 58.5291C206.089 57.3356 204.895 56.3182 204.895 56.3182" fill="white"/>
<path d="M201.227 58.9857C201.788 59.1884 202.389 59.2527 202.981 59.1733C203.572 59.0938 204.135 58.8728 204.623 58.5291C206.089 57.3356 204.895 56.3182 204.895 56.3182" stroke="#263238" stroke-width="0.50848" stroke-linecap="round" stroke-linejoin="round"/>
<path d="M201.61 60.4582C201.61 60.4582 206.472 58.055 208.675 57.983C210.878 57.9109 213.177 61.6838 212.272 64.888C211.367 68.0922 210.349 69.6943 207.225 70.952C204.101 72.2096 201.161 71.9613 200.616 69.8465C200.072 67.7317 202.539 64.7118 203.733 64.159C204.926 63.6063 205.847 63.5182 205.663 64.5275C205.479 65.5369 204.926 66.2658 207.225 65.8092C209.524 65.3526 210.806 64.7118 210.894 62.2285C210.982 59.7453 210.093 58.8321 207.69 59.2005C205.287 59.569 201.722 61.4915 201.722 61.4915L201.61 60.4582Z" fill="#263238" stroke="#263238" stroke-width="0.50848" stroke-linecap="round" stroke-linejoin="round"/>
<path d="M203.516 62.3831C203.516 62.3831 207.377 62.1989 208.755 60.6368Z" fill="white"/>
<path d="M203.516 62.3831C203.516 62.3831 207.377 62.1989 208.755 60.6368" stroke="#263238" stroke-width="0.50848" stroke-linecap="round" stroke-linejoin="round"/>
<path d="M219.083 60.1793C219.088 60.9331 218.926 61.6788 218.607 62.3619C218.289 63.0451 217.822 63.6486 217.24 64.1285" fill="white"/>
<path d="M219.083 60.1793C219.088 60.9331 218.926 61.6788 218.607 62.3619C218.289 63.0451 217.822 63.6486 217.24 64.1285" stroke="#263238" stroke-width="0.50848" stroke-linecap="round" stroke-linejoin="round"/>
<path d="M211.6 78.9096L214.267 85.0617C214.267 85.0617 224.36 77.5318 226.844 74.5919C229.327 71.6521 231.249 70.1861 229.872 68.1835C228.494 66.1809 226.475 67.815 226.107 67.9993C225.738 68.1835 211.6 78.9096 211.6 78.9096Z" fill="white" stroke="#263238" stroke-width="0.50848" stroke-linecap="round" stroke-linejoin="round"/>
<path d="M191.461 133.174C190.318 129.455 189.401 125.669 188.714 121.839C188.161 118.323 187.913 114.742 187.913 114.742C183.477 114.338 179.142 113.19 175.088 111.345C169.032 108.414 167.742 107.34 167.742 107.34C167.742 107.34 175.913 133.967 177.571 139.567C179.229 145.166 179.59 146.359 179.59 146.359C182.21 147.658 184.985 148.616 187.849 149.211C190.122 149.635 192.426 149.879 194.738 149.94L191.461 133.174Z" fill="white" stroke="#263238" stroke-width="0.50848" stroke-linecap="round" stroke-linejoin="round"/>
<path d="M200.588 133.176C198.646 132.815 196.761 132.198 194.981 131.341C193.646 130.567 192.188 130.025 190.671 129.739H190.303L191.4 133.136C190.045 133.435 188.663 133.591 187.275 133.6C185.072 133.6 180.474 132.863 180.298 133.136C180.127 133.794 180.065 134.476 180.114 135.154C180.114 135.803 183.414 139.752 185.344 141.13C187.275 142.508 189.013 143.421 190.76 143.421C192.506 143.421 201.87 142.139 201.87 142.139L200.588 133.176Z" fill="white" stroke="#263238" stroke-width="0.50848" stroke-linecap="round" stroke-linejoin="round"/>
<path d="M227.273 97.367C227.273 97.367 227.73 107.653 228.01 115.086C228.291 122.52 228.747 123.169 228.747 123.169C228.747 123.169 208.176 130.883 205.052 131.524C201.928 132.165 199.549 132.902 199.549 132.902L200.927 142.907C207.658 143.475 214.437 142.854 220.953 141.072C230.966 138.133 246.386 135.193 246.667 133.823C246.947 132.453 246.667 128.312 246.667 127.414C246.667 126.517 246.386 106.755 246.386 97.9438C246.386 89.1322 247.027 87.1055 245.93 85.2711C244.832 83.4367 239.225 82.5155 236.013 84.3499" fill="#263238"/>
<path d="M227.273 97.367C227.273 97.367 227.73 107.653 228.01 115.086C228.291 122.52 228.747 123.169 228.747 123.169C228.747 123.169 208.176 130.883 205.052 131.524C201.928 132.165 199.549 132.902 199.549 132.902L200.927 142.907C207.658 143.475 214.437 142.854 220.953 141.072C230.966 138.133 246.386 135.193 246.667 133.823C246.947 132.453 246.667 128.312 246.667 127.414C246.667 126.517 246.386 106.755 246.386 97.9438C246.386 89.1322 247.027 87.1055 245.93 85.2711C244.832 83.4367 239.225 82.5155 236.013 84.3499" stroke="#263238" stroke-width="0.50848" stroke-linecap="round" stroke-linejoin="round"/>
<path d="M211.754 129.073L228.76 123.169L227.254 100.508" stroke="white" stroke-width="0.50848" stroke-linecap="round" stroke-linejoin="round"/>
<path d="M207.021 130.731L209.481 129.882" stroke="white" stroke-width="0.50848" stroke-linecap="round" stroke-linejoin="round"/>
<path d="M233.184 89.089C233.184 89.089 239.592 81.0785 245.96 85.252" stroke="white" stroke-width="0.50848" stroke-linecap="round" stroke-linejoin="round"/>
<path d="M180.48 134.101C180.48 134.101 184.71 136.945 187.554 137.409" stroke="#263238" stroke-width="0.50848" stroke-linecap="round" stroke-linejoin="round"/>
<path d="M181.242 136.851C182.488 137.948 183.917 138.819 185.464 139.423L187.394 139.968" stroke="#263238" stroke-width="0.50848" stroke-linecap="round" stroke-linejoin="round"/>
<path d="M185.818 141.437C186.911 141.838 188.054 142.086 189.215 142.174" stroke="#263238" stroke-width="0.50848" stroke-linecap="round" stroke-linejoin="round"/>
<path d="M107.868 107.063C107.868 107.063 106.602 94.1264 105.112 85.0104C104.311 79.9718 101.259 75.6782 98.0708 71.8331C95.4354 68.6289 91.4541 65.6971 89.2593 62.2926C88.4983 61.1231 84.509 69.5822 84.501 69.5902C83.7 71.3926 93.1924 77.1041 94.4741 78.4018C96.1563 80.084 97.6783 82.0706 99.2083 83.881C99.9053 84.682 101.74 87.734 102.789 87.9903L104.487 88.4149L103.214 92.2359L107.868 107.063Z" fill="#A2B8C6" stroke="#263238" stroke-width="0.50848" stroke-linecap="round" stroke-linejoin="round"/>
</g>
<defs>
<clipPath id="clip0_934_8727">
<rect width="312.41" height="263.546" fill="white"/>
</clipPath>
</defs>
</svg>
