<svg width="356" height="265" viewBox="0 0 356 265" fill="none" xmlns="http://www.w3.org/2000/svg">
<path d="M177.825 265C253.993 265 315.739 261.395 315.739 256.948C315.739 252.501 253.993 248.896 177.825 248.896C101.658 248.896 39.9121 252.501 39.9121 256.948C39.9121 261.395 101.658 265 177.825 265Z" fill="#F5F5F5"/>
<path d="M218.916 46.1629C218.337 44.2516 217.57 42.4026 216.625 40.6433L218.048 35.9843L208.851 26.7801L204.192 28.2027C202.433 27.2579 200.584 26.4907 198.672 25.9123L196.382 21.6445H183.365L181.082 25.9123C179.17 26.4894 177.321 27.2567 175.562 28.2027L170.903 26.7801L161.699 35.9843L163.122 40.6433C162.182 42.4042 161.418 44.2529 160.838 46.1629L156.535 48.4533V61.47L160.838 63.7533C161.416 65.6638 162.181 67.5126 163.122 69.2729L161.699 73.9319L170.903 83.1361L175.562 81.7135C177.323 82.6542 179.172 83.419 181.082 83.9967L183.365 88.2645H196.382L198.672 83.9967C200.582 83.4176 202.431 82.6528 204.192 81.7135L208.851 83.1361L218.055 73.9319L216.633 69.2729C217.579 67.5142 218.346 65.6651 218.923 63.7533L223.226 61.47V48.4533L218.916 46.1629ZM189.874 73.4482C186.216 73.4482 182.64 72.3636 179.599 70.3315C176.558 68.2994 174.187 65.411 172.788 62.0318C171.388 58.6525 171.022 54.934 171.735 51.3466C172.449 47.7592 174.21 44.4639 176.797 41.8775C179.383 39.2911 182.678 37.5298 186.266 36.8162C189.853 36.1026 193.572 36.4688 196.951 37.8686C200.33 39.2683 203.218 41.6387 205.251 44.68C207.283 47.7213 208.367 51.2968 208.367 54.9545C208.367 59.8594 206.419 64.5633 202.951 68.0315C199.482 71.4998 194.778 73.4482 189.874 73.4482Z" fill="#A3B8C7"/>
<path opacity="0.2" d="M218.916 46.1629C218.337 44.2516 217.57 42.4026 216.625 40.6433L218.048 35.9843L208.851 26.7801L204.192 28.2027C202.433 27.2579 200.584 26.4907 198.672 25.9123L196.382 21.6445H183.365L181.082 25.9123C179.17 26.4894 177.321 27.2567 175.562 28.2027L170.903 26.7801L161.699 35.9843L163.122 40.6433C162.182 42.4042 161.418 44.2529 160.838 46.1629L156.535 48.4533V61.47L160.838 63.7533C161.416 65.6638 162.181 67.5126 163.122 69.2729L161.699 73.9319L170.903 83.1361L175.562 81.7135C177.323 82.6542 179.172 83.419 181.082 83.9967L183.365 88.2645H196.382L198.672 83.9967C200.582 83.4176 202.431 82.6528 204.192 81.7135L208.851 83.1361L218.055 73.9319L216.633 69.2729C217.579 67.5142 218.346 65.6651 218.923 63.7533L223.226 61.47V48.4533L218.916 46.1629ZM189.874 73.4482C186.216 73.4482 182.64 72.3636 179.599 70.3315C176.558 68.2994 174.187 65.411 172.788 62.0318C171.388 58.6525 171.022 54.934 171.735 51.3466C172.449 47.7592 174.21 44.4639 176.797 41.8775C179.383 39.2911 182.678 37.5298 186.266 36.8162C189.853 36.1026 193.572 36.4688 196.951 37.8686C200.33 39.2683 203.218 41.6387 205.251 44.68C207.283 47.7213 208.367 51.2968 208.367 54.9545C208.367 59.8594 206.419 64.5633 202.951 68.0315C199.482 71.4998 194.778 73.4482 189.874 73.4482Z" fill="white"/>
<path d="M189.873 48.8301C188.66 48.8301 187.474 49.1897 186.466 49.8634C185.458 50.5371 184.672 51.4947 184.208 52.6151C183.744 53.7354 183.622 54.9682 183.859 56.1576C184.096 57.347 184.68 58.4395 185.537 59.297C186.395 60.1545 187.487 60.7384 188.676 60.975C189.866 61.2116 191.099 61.0902 192.219 60.6261C193.339 60.162 194.297 59.3762 194.971 58.3679C195.644 57.3596 196.004 56.1741 196.004 54.9615C196.004 53.3353 195.358 51.7758 194.208 50.6259C193.058 49.4761 191.499 48.8301 189.873 48.8301Z" fill="#A3B8C7"/>
<path d="M311.548 66.8115C310.721 64.079 309.628 61.4344 308.283 58.9161L310.317 52.2584L297.18 39.1208L290.515 41.1622C288.005 39.8021 285.362 38.7056 282.627 37.8902L279.362 31.7446H260.761L257.489 37.8902C254.755 38.7082 252.112 39.8046 249.601 41.1622L242.943 39.1208L229.791 52.2726L231.826 58.9304C230.475 61.4458 229.381 64.091 228.561 66.8258L222.408 70.0906V88.691L228.554 91.963C229.373 94.6959 230.467 97.3388 231.819 99.8512L229.784 106.502L242.936 119.654L249.594 117.619C252.107 118.973 254.753 120.064 257.489 120.877L260.761 127.03H279.362L282.627 120.884C285.36 120.063 288.003 118.966 290.515 117.612L297.18 119.647L310.332 106.495L308.297 99.837C309.638 97.3212 310.727 94.6789 311.548 91.9487L317.693 88.6768V70.0764L311.548 66.8115ZM270.058 113.096C263.388 113.096 256.868 111.118 251.323 107.412C245.777 103.707 241.455 98.4401 238.902 92.2781C236.35 86.1161 235.682 79.3356 236.983 72.7941C238.285 66.2525 241.496 60.2438 246.212 55.5276C250.929 50.8114 256.937 47.5996 263.479 46.2984C270.021 44.9972 276.801 45.6651 282.963 48.2174C289.125 50.7698 294.392 55.0921 298.097 60.6378C301.803 66.1834 303.78 72.7033 303.78 79.373C303.78 83.8015 302.908 88.1867 301.214 92.2781C299.519 96.3695 297.035 100.087 293.903 103.218C290.772 106.35 287.054 108.834 282.963 110.529C278.872 112.223 274.486 113.096 270.058 113.096Z" fill="#A3B8C7"/>
<path d="M270.058 50.3809C264.323 50.3823 258.717 52.0843 253.949 55.2716C249.181 58.459 245.465 62.9886 243.271 68.2877C241.077 73.5868 240.504 79.4174 241.624 85.0423C242.743 90.6672 245.506 95.8337 249.562 99.8887C253.618 103.944 258.785 106.705 264.41 107.823C270.035 108.942 275.866 108.367 281.164 106.172C286.463 103.977 290.992 100.26 294.178 95.4909C297.364 90.7222 299.065 85.1157 299.065 79.3804C299.055 71.6909 295.996 64.3192 290.558 58.8825C285.12 53.4459 277.747 50.3884 270.058 50.3809ZM270.058 104.518C265.086 104.519 260.225 103.046 256.09 100.285C251.956 97.5234 248.733 93.598 246.829 89.0049C244.925 84.4118 244.427 79.3573 245.396 74.4807C246.365 69.6041 248.758 65.1244 252.274 61.6082C255.789 58.092 260.268 55.6972 265.144 54.7267C270.02 53.7562 275.075 54.2536 279.669 56.156C284.262 58.0583 288.189 61.2802 290.951 65.4142C293.714 69.5481 295.188 74.4084 295.188 79.3804C295.18 86.0437 292.531 92.432 287.82 97.1443C283.109 101.857 276.721 104.508 270.058 104.518Z" fill="#A3B8C7"/>
<path opacity="0.2" d="M270.058 50.3809C264.323 50.3823 258.717 52.0843 253.949 55.2716C249.181 58.459 245.465 62.9886 243.271 68.2877C241.077 73.5868 240.504 79.4174 241.624 85.0423C242.743 90.6672 245.506 95.8337 249.562 99.8887C253.618 103.944 258.785 106.705 264.41 107.823C270.035 108.942 275.866 108.367 281.164 106.172C286.463 103.977 290.992 100.26 294.178 95.4909C297.364 90.7222 299.065 85.1157 299.065 79.3804C299.055 71.6909 295.996 64.3192 290.558 58.8825C285.12 53.4459 277.747 50.3884 270.058 50.3809ZM270.058 104.518C265.086 104.519 260.225 103.046 256.09 100.285C251.956 97.5234 248.733 93.598 246.829 89.0049C244.925 84.4118 244.427 79.3573 245.396 74.4807C246.365 69.6041 248.758 65.1244 252.274 61.6082C255.789 58.092 260.268 55.6972 265.144 54.7267C270.02 53.7562 275.075 54.2536 279.669 56.156C284.262 58.0583 288.189 61.2802 290.951 65.4142C293.714 69.5481 295.188 74.4084 295.188 79.3804C295.18 86.0437 292.531 92.432 287.82 97.1443C283.109 101.857 276.721 104.508 270.058 104.518Z" fill="black"/>
<path d="M203.431 128.858C203.242 128.858 203.061 128.783 202.928 128.65C202.795 128.517 202.72 128.336 202.72 128.147V126.724C202.72 126.536 202.795 126.355 202.928 126.222C203.061 126.088 203.242 126.013 203.431 126.013C203.62 126.013 203.801 126.088 203.934 126.222C204.067 126.355 204.142 126.536 204.142 126.724V128.147C204.142 128.336 204.067 128.517 203.934 128.65C203.801 128.783 203.62 128.858 203.431 128.858Z" fill="#A3B8C7"/>
<path d="M192.355 110.478C191.702 110.058 191.191 109.451 190.89 108.735C190.815 108.562 190.675 108.425 190.5 108.355C190.324 108.285 190.128 108.287 189.955 108.362C189.781 108.436 189.644 108.577 189.574 108.752C189.504 108.928 189.507 109.124 189.581 109.297C189.999 110.269 190.694 111.095 191.58 111.673C191.694 111.747 191.828 111.787 191.964 111.787C192.118 111.788 192.268 111.739 192.392 111.648C192.516 111.556 192.607 111.427 192.651 111.279C192.695 111.132 192.69 110.974 192.637 110.829C192.583 110.685 192.485 110.562 192.355 110.478Z" fill="#A3B8C7"/>
<path d="M189.873 101.595C190.062 101.595 190.243 101.52 190.376 101.386C190.51 101.253 190.585 101.072 190.585 100.883V98.1591C190.585 97.9704 190.51 97.7895 190.376 97.6561C190.243 97.5227 190.062 97.4478 189.873 97.4478C189.685 97.4478 189.504 97.5227 189.37 97.6561C189.237 97.7895 189.162 97.9704 189.162 98.1591V100.883C189.162 101.072 189.237 101.253 189.37 101.386C189.504 101.52 189.685 101.595 189.873 101.595Z" fill="#A3B8C7"/>
<path d="M197.278 111.104H194.546C194.358 111.104 194.177 111.179 194.043 111.313C193.91 111.446 193.835 111.627 193.835 111.816C193.835 112.004 193.91 112.185 194.043 112.319C194.177 112.452 194.358 112.527 194.546 112.527H197.278C197.466 112.527 197.647 112.452 197.781 112.319C197.914 112.185 197.989 112.004 197.989 111.816C197.989 111.627 197.914 111.446 197.781 111.313C197.647 111.179 197.466 111.104 197.278 111.104Z" fill="#A3B8C7"/>
<path d="M190.585 106.339V103.615C190.585 103.426 190.51 103.245 190.376 103.112C190.243 102.978 190.062 102.903 189.873 102.903C189.685 102.903 189.504 102.978 189.37 103.112C189.237 103.245 189.162 103.426 189.162 103.615V106.339C189.162 106.528 189.237 106.708 189.37 106.842C189.504 106.975 189.685 107.05 189.873 107.05C190.062 107.05 190.243 106.975 190.376 106.842C190.51 106.708 190.585 106.528 190.585 106.339Z" fill="#A3B8C7"/>
<path d="M204.1 115.727C204.075 115.541 203.977 115.372 203.828 115.257C203.678 115.142 203.49 115.092 203.303 115.116C203.21 115.131 203.122 115.165 203.042 115.215C202.963 115.265 202.894 115.33 202.839 115.407C202.785 115.483 202.747 115.57 202.726 115.662C202.706 115.754 202.703 115.848 202.72 115.941C202.743 116.106 202.754 116.272 202.755 116.439V118.573C202.755 118.761 202.83 118.942 202.964 119.076C203.097 119.209 203.278 119.284 203.467 119.284C203.655 119.284 203.836 119.209 203.97 119.076C204.103 118.942 204.178 118.761 204.178 118.573V116.439C204.167 116.2 204.141 115.963 204.1 115.727Z" fill="#A3B8C7"/>
<path d="M203.431 120.558C203.242 120.558 203.061 120.633 202.928 120.766C202.795 120.899 202.72 121.08 202.72 121.269V124C202.72 124.189 202.795 124.37 202.928 124.503C203.061 124.637 203.242 124.712 203.431 124.712C203.62 124.712 203.801 124.637 203.934 124.503C204.067 124.37 204.142 124.189 204.142 124V121.269C204.142 121.08 204.067 120.899 203.934 120.766C203.801 120.633 203.62 120.558 203.431 120.558Z" fill="#A3B8C7"/>
<path d="M202.811 112.903C202.115 112.108 201.196 111.541 200.173 111.275C200.082 111.251 199.988 111.246 199.895 111.259C199.802 111.272 199.713 111.303 199.633 111.351C199.552 111.398 199.482 111.461 199.425 111.536C199.369 111.611 199.328 111.696 199.305 111.787C199.281 111.877 199.276 111.972 199.289 112.064C199.302 112.157 199.334 112.246 199.381 112.327C199.429 112.407 199.492 112.478 199.566 112.534C199.641 112.59 199.726 112.631 199.817 112.654C200.564 112.847 201.236 113.261 201.745 113.842C201.811 113.918 201.893 113.979 201.985 114.021C202.077 114.062 202.177 114.084 202.278 114.084C202.415 114.084 202.548 114.044 202.663 113.97C202.778 113.896 202.869 113.79 202.925 113.666C202.982 113.541 203.001 113.403 202.981 113.268C202.96 113.133 202.902 113.006 202.811 112.903Z" fill="#A3B8C7"/>
<path d="M189.873 96.1098C189.685 96.1098 189.504 96.0349 189.37 95.9015C189.237 95.7681 189.162 95.5872 189.162 95.3985V93.9759C189.162 93.7873 189.237 93.6064 189.37 93.473C189.504 93.3396 189.685 93.2646 189.873 93.2646C190.062 93.2646 190.243 93.3396 190.376 93.473C190.51 93.6064 190.585 93.7873 190.585 93.9759V95.3985C190.585 95.5872 190.51 95.7681 190.376 95.9015C190.243 96.0349 190.062 96.1098 189.873 96.1098Z" fill="#A3B8C7"/>
<path d="M237.125 164.672H72.4316V167.311H237.125V164.672Z" fill="#A3B8C7"/>
<path d="M237.126 167.311H272.861V164.672H237.126V167.311Z" fill="#A3B8C7"/>
<path opacity="0.2" d="M237.126 167.311H272.861V164.672H237.126V167.311Z" fill="black"/>
<path d="M260.925 170.135H84.3667L78.4629 167.311H266.828L260.925 170.135Z" fill="#A3B8C7"/>
<path opacity="0.6" d="M260.925 170.135H84.3667L78.4629 167.311H266.828L260.925 170.135Z" fill="white"/>
<path d="M89.7021 170.135V254.31H91.9641L94.8092 170.135H89.7021Z" fill="#A3B8C7"/>
<path d="M116.404 170.135V254.31H118.666L121.511 170.135H116.404Z" fill="#A3B8C7"/>
<path d="M260.925 170.135V254.31H258.671L255.818 170.135H260.925Z" fill="#A3B8C7"/>
<path d="M234.231 170.135V254.31H231.969L229.124 170.135H234.231Z" fill="#A3B8C7"/>
<path d="M180.485 132.721L173.052 163.001L172.846 164.672H224.116L224.329 163.001L231.755 132.721H180.485Z" fill="#A3B8C7"/>
<path opacity="0.3" d="M180.485 132.721L173.052 163.001L172.846 164.672H224.116L224.329 163.001L231.755 132.721H180.485Z" fill="black"/>
<path d="M230.184 132.721H178.906L171.48 163.001H222.751L230.184 132.721Z" fill="#A3B8C7"/>
<path d="M221.662 161.613L228.419 134.107H179.994L173.244 161.613H221.662Z" fill="white"/>
<path d="M209.392 163L209.178 164.672H152.723L152.929 163H209.392Z" fill="#A3B8C7"/>
<path opacity="0.6" d="M209.392 163L209.178 164.672H152.723L152.929 163H209.392Z" fill="white"/>
<path d="M102.741 159.167C102.705 158.083 102.281 157.049 101.546 156.252C100.811 155.456 99.8136 154.95 98.7365 154.828V154.01C98.7356 153.963 98.7252 153.916 98.706 153.873C98.6869 153.829 98.6593 153.79 98.6248 153.758C98.5904 153.725 98.5498 153.7 98.5054 153.684C98.4611 153.667 98.4139 153.66 98.3666 153.661H90.6846C90.637 153.66 90.5894 153.667 90.5447 153.684C90.4999 153.7 90.4589 153.725 90.4238 153.758C90.3888 153.79 90.3605 153.829 90.3406 153.872C90.3207 153.915 90.3094 153.962 90.3076 154.01V164.679H98.7365V163.513C99.8153 163.392 100.814 162.886 101.55 162.087C102.286 161.289 102.708 160.252 102.741 159.167ZM98.7365 162.133V156.208C99.4473 156.313 100.097 156.67 100.566 157.213C101.036 157.757 101.294 158.452 101.294 159.17C101.294 159.889 101.036 160.584 100.566 161.127C100.097 161.671 99.4473 162.028 98.7365 162.133Z" fill="#A3B8C7"/>
<path d="M246.508 164.672H253.649L251.537 149.031H246.508V164.672Z" fill="#263238"/>
<path d="M236.037 164.673H249.566L252.077 146.364H238.555L236.037 164.673Z" fill="#A3B8C7"/>
<path opacity="0.3" d="M236.037 164.673H249.566L252.077 146.364H238.555L236.037 164.673Z" fill="black"/>
<path d="M234.23 164.673H248.307L250.825 146.364H236.748L234.23 164.673Z" fill="#A3B8C7"/>
<path opacity="0.4" d="M247.062 163.228L249.181 147.807H237.993L235.873 163.228H247.062Z" fill="white"/>
<path d="M140.508 137.643L139.925 138.269L139.299 138.98C138.88 139.463 138.46 139.954 138.062 140.459C137.265 141.469 136.497 142.501 135.778 143.561C134.349 145.61 133.156 147.815 132.222 150.133C131.787 151.235 131.449 152.372 131.212 153.533C131.098 154.187 131.027 154.472 130.991 154.749C130.952 154.97 130.952 155.197 130.991 155.418C131.111 155.766 131.298 156.086 131.542 156.361C131.786 156.636 132.083 156.859 132.414 157.018C132.894 157.314 133.399 157.569 133.922 157.779C134.197 157.893 134.481 158 134.775 158.099C135.046 158.199 135.387 158.299 135.601 158.384V162.303C135.103 162.374 134.74 162.431 134.32 162.46C133.901 162.488 133.495 162.495 133.075 162.46C132.213 162.442 131.354 162.333 130.515 162.133C129.569 161.91 128.662 161.546 127.826 161.051C126.843 160.476 125.998 159.692 125.351 158.754C124.685 157.756 124.243 156.625 124.056 155.439C124.009 155.162 123.978 154.881 123.964 154.6C123.95 154.33 123.95 154.059 123.964 153.789V153.391C123.956 153.284 123.956 153.177 123.964 153.071L124.021 152.445C124.203 150.819 124.546 149.215 125.045 147.658C126.008 144.665 127.364 141.814 129.078 139.179C129.901 137.885 130.796 136.638 131.76 135.445C132.236 134.847 132.727 134.264 133.239 133.688C133.488 133.396 133.751 133.112 134.021 132.827C134.292 132.543 134.541 132.294 134.911 131.938L140.508 137.643Z" fill="#B55B52"/>
<path d="M134.185 158.299L137.499 155.866L139.384 162.68C139.384 162.68 136.446 163.769 134.206 162.303L134.185 158.299Z" fill="#B55B52"/>
<path d="M142.102 154.23L143.397 159.935L139.385 162.68L137.5 155.866L142.102 154.23Z" fill="#B55B52"/>
<path d="M163.064 111.495C162.914 111.915 163.021 112.335 163.298 112.427C163.576 112.52 163.917 112.264 164.06 111.844C164.202 111.424 164.102 110.998 163.832 110.905C163.562 110.813 163.213 111.069 163.064 111.495Z" fill="#263238"/>
<path d="M162.985 112.321C163.041 113.786 163.297 115.236 163.746 116.631C163.388 116.734 163.012 116.758 162.643 116.701C162.275 116.645 161.923 116.509 161.612 116.304L162.985 112.321Z" fill="#A02724"/>
<path d="M162.381 108.636C162.434 108.654 162.492 108.654 162.545 108.636C162.857 108.532 163.189 108.503 163.515 108.553C163.84 108.602 164.149 108.728 164.416 108.921C164.469 108.959 164.535 108.977 164.601 108.969C164.667 108.961 164.727 108.929 164.77 108.879C164.813 108.829 164.836 108.764 164.833 108.698C164.831 108.632 164.804 108.569 164.757 108.522C164.423 108.273 164.035 108.108 163.624 108.04C163.213 107.972 162.792 108.003 162.396 108.131C162.344 108.149 162.299 108.182 162.267 108.227C162.235 108.272 162.218 108.325 162.218 108.38C162.218 108.435 162.235 108.488 162.267 108.533C162.299 108.578 162.344 108.611 162.396 108.629L162.381 108.636Z" fill="#263238"/>
<path d="M147.464 113.046C148.261 117.093 149.051 124.512 146.22 127.215C146.22 127.215 147.329 131.319 154.855 131.319C163.127 131.319 158.81 127.215 158.81 127.215C154.293 126.134 154.407 122.784 155.196 119.64L147.464 113.046Z" fill="#B55B52"/>
<path d="M145.139 128.623C144.541 127.321 143.894 125.835 145.238 125.372C146.725 124.86 154.862 124.334 157.664 125.294C158.035 125.395 158.382 125.569 158.684 125.805C158.987 126.042 159.239 126.336 159.427 126.671C159.614 127.006 159.733 127.375 159.776 127.757C159.819 128.139 159.785 128.525 159.677 128.893L145.139 128.623Z" fill="#263238"/>
<path d="M173.555 135.566C175.298 138.703 177.168 141.932 179.061 145.033C180.953 148.135 182.937 151.222 185.057 154.038C185.583 154.75 186.131 155.425 186.671 156.101C186.942 156.45 187.226 156.734 187.504 157.054L187.916 157.524L188.023 157.645L188.073 157.701L188.122 157.765C188.454 158.086 188.852 158.329 189.289 158.477C189.961 158.711 190.654 158.88 191.359 158.982C194.816 159.331 198.302 159.29 201.751 158.861L202.832 162.631C201.872 163.058 200.976 163.342 200.022 163.698C199.069 164.053 198.13 164.288 197.177 164.53C195.157 165.037 193.086 165.313 191.003 165.355C189.834 165.374 188.667 165.257 187.525 165.006C186.123 164.728 184.801 164.14 183.656 163.285L183.179 162.894L183.065 162.794L182.994 162.723L182.859 162.588L182.304 162.04C181.941 161.678 181.543 161.329 181.216 160.945C180.504 160.198 179.836 159.451 179.217 158.683C176.732 155.68 174.439 152.523 172.353 149.23C171.315 147.608 170.314 145.97 169.351 144.315C168.384 142.643 167.452 141.007 166.549 139.243L173.555 135.566Z" fill="#B55B52"/>
<path d="M136.311 128.467C131.118 129.654 125.172 143.802 125.172 143.802L135.592 150.915C138.184 147.199 140.484 143.287 142.471 139.214C145.551 132.77 141.617 127.25 136.311 128.467Z" fill="#A3B8C7"/>
<path opacity="0.2" d="M140.025 137.486L135.103 150.602L135.586 150.944C135.586 150.944 137.72 147.949 140.025 143.909V137.486Z" fill="black"/>
<path d="M167.325 128.744C167.325 128.744 173.215 135.402 167.652 176.586H138.041C137.842 172.041 140.694 149.877 136.312 128.46C139.585 127.829 142.895 127.411 146.221 127.208C150.414 126.962 154.618 126.962 158.811 127.208C161.685 127.497 164.531 128.011 167.325 128.744Z" fill="#A3B8C7"/>
<path opacity="0.2" d="M164.031 140.659C164.804 145.333 166.824 149.712 169.878 153.334C169.999 150.681 170.049 148.298 170.042 146.171L164.031 140.659Z" fill="black"/>
<path d="M161.463 133.24C160.752 138.482 171.065 151.869 171.065 151.869L181.443 144.756C181.443 144.756 178.562 137.379 173.719 132.543C168.199 126.995 162.274 127.535 161.463 133.24Z" fill="#A3B8C7"/>
<path d="M200.584 158.897L204.809 157.161L209.155 160.447C209.155 160.447 205.008 164.118 201.238 162.688L200.584 158.897Z" fill="#B55B52"/>
<path d="M207.598 156.99L210.784 159.266L209.134 160.447L204.788 157.16L207.598 156.99Z" fill="#B55B52"/>
<path d="M149.308 105.706C147.828 110.998 146.69 114.021 148.383 117.584C150.922 122.954 158.142 122.805 161.186 118.068C163.918 113.8 165.881 105.862 161.528 102.042C160.572 101.193 159.415 100.603 158.167 100.327C156.919 100.051 155.621 100.099 154.396 100.466C153.172 100.833 152.061 101.507 151.171 102.424C150.28 103.341 149.639 104.471 149.308 105.706Z" fill="#B55B52"/>
<path d="M160.574 105.762C158.44 111.837 155.929 118.509 149.798 117.243C145.843 116.425 145.53 110.059 144.107 107.164C142.848 104.624 142.927 99.5172 145.53 99.4532C144.363 97.7603 150.26 91.5649 154.286 94.8369C155.317 93.4143 162.75 89.2247 168.256 95.8754C173.441 102.163 170.902 107.405 160.574 105.762Z" fill="#263238"/>
<path d="M155.773 109.646C155.63 111.003 155.935 112.369 156.64 113.537C157.586 115.059 158.973 114.476 159.485 112.918C159.941 111.495 159.991 109.041 158.675 108.053C157.359 107.064 155.972 108.01 155.773 109.646Z" fill="#B55B52"/>
<path d="M201.211 250.29C201.923 250.29 202.634 250.191 202.84 249.871C202.899 249.786 202.93 249.686 202.93 249.583C202.93 249.48 202.899 249.379 202.84 249.295C202.745 249.145 202.598 249.036 202.428 248.989C201.503 248.74 199.582 249.842 199.49 249.892C199.466 249.904 199.446 249.924 199.434 249.949C199.423 249.973 199.42 250.001 199.426 250.027C199.431 250.053 199.442 250.076 199.46 250.095C199.478 250.114 199.5 250.128 199.525 250.134C200.082 250.235 200.646 250.288 201.211 250.29ZM202.093 249.216C202.176 249.205 202.26 249.205 202.342 249.216C202.396 249.226 202.447 249.248 202.491 249.28C202.535 249.312 202.572 249.353 202.598 249.401C202.691 249.565 202.662 249.643 202.598 249.686C202.342 250.049 200.941 250.056 199.91 249.906C200.586 249.537 201.327 249.302 202.093 249.216Z" fill="#A3B8C7"/>
<path d="M199.539 250.134H199.596C200.265 249.836 201.588 248.641 201.481 248C201.481 247.851 201.353 247.673 200.998 247.631C200.87 247.619 200.741 247.634 200.619 247.673C200.497 247.712 200.384 247.775 200.286 247.858C199.575 248.434 199.433 249.928 199.426 249.992C199.423 250.015 199.426 250.038 199.435 250.059C199.444 250.08 199.458 250.099 199.475 250.113C199.495 250.124 199.517 250.132 199.539 250.134ZM200.891 247.894H200.969C201.204 247.894 201.218 248.015 201.225 248.043C201.289 248.42 200.386 249.359 199.703 249.764C199.76 249.138 200.008 248.545 200.414 248.064C200.547 247.951 200.717 247.89 200.891 247.894Z" fill="#A3B8C7"/>
<path d="M193.102 250.005H198.635L199.894 237.181H194.361L193.102 250.005Z" fill="#B55B52"/>
<path d="M198.949 249.366H192.91C192.799 249.367 192.691 249.405 192.604 249.475C192.518 249.545 192.458 249.642 192.433 249.75L191.338 254.644C191.31 254.763 191.309 254.887 191.336 255.007C191.363 255.126 191.417 255.238 191.494 255.333C191.571 255.429 191.669 255.505 191.78 255.557C191.891 255.609 192.012 255.635 192.135 255.633C194.311 255.597 197.462 255.469 200.201 255.469C203.409 255.469 206.176 255.64 209.931 255.64C212.207 255.64 212.84 253.342 211.887 253.136C207.556 252.19 204.02 252.09 200.279 249.779C199.882 249.521 199.422 249.379 198.949 249.366Z" fill="#263238"/>
<path opacity="0.2" d="M199.887 237.188L199.247 243.796H193.706L194.353 237.188H199.887Z" fill="black"/>
<path d="M179.024 250.284C179.259 250.314 179.497 250.298 179.725 250.236C179.954 250.174 180.168 250.066 180.354 249.921C180.419 249.831 180.455 249.723 180.455 249.611C180.455 249.5 180.419 249.392 180.354 249.302C180.312 249.224 180.253 249.156 180.182 249.103C180.111 249.05 180.029 249.014 179.942 248.996C179.131 248.804 177.601 249.85 177.537 249.892C177.517 249.908 177.501 249.929 177.491 249.953C177.481 249.976 177.478 250.002 177.48 250.028C177.486 250.052 177.498 250.075 177.515 250.092C177.533 250.11 177.556 250.122 177.58 250.127C178.054 250.231 178.538 250.283 179.024 250.284ZM179.735 249.231C179.787 249.224 179.84 249.224 179.892 249.231C179.943 249.238 179.991 249.258 180.033 249.287C180.075 249.317 180.11 249.356 180.134 249.402C180.255 249.622 180.183 249.707 180.134 249.743C179.899 250.049 178.768 250.056 177.936 249.921C178.471 249.559 179.081 249.323 179.721 249.231H179.735Z" fill="#A3B8C7"/>
<path d="M177.617 250.134H177.674C178.25 249.821 179.359 248.612 179.238 248C179.22 247.902 179.168 247.814 179.091 247.75C179.015 247.687 178.918 247.652 178.819 247.652C178.719 247.64 178.619 247.649 178.523 247.678C178.427 247.707 178.339 247.757 178.264 247.822C177.624 248.349 177.489 249.956 177.481 250.013C177.481 250.037 177.487 250.061 177.498 250.082C177.509 250.103 177.526 250.121 177.545 250.134C177.569 250.141 177.593 250.141 177.617 250.134ZM178.733 247.894H178.79C178.961 247.894 178.975 247.993 178.982 248.029C179.053 248.392 178.342 249.309 177.773 249.743C177.811 249.112 178.039 248.507 178.427 248.007C178.513 247.934 178.621 247.894 178.733 247.894Z" fill="#A3B8C7"/>
<path d="M171.272 250.005H176.806L179.588 237.181H174.054L171.272 250.005Z" fill="#B55B52"/>
<path d="M177.197 249.366H170.98C170.87 249.366 170.763 249.405 170.678 249.475C170.593 249.545 170.534 249.642 170.511 249.75L169.415 254.643C169.39 254.764 169.392 254.888 169.421 255.007C169.45 255.127 169.505 255.238 169.583 255.333C169.661 255.428 169.759 255.504 169.871 255.556C169.982 255.608 170.104 255.634 170.226 255.632C172.396 255.597 173.456 255.468 176.187 255.468C177.873 255.468 180.028 255.639 182.354 255.639C184.68 255.639 184.979 253.342 184.026 253.135C179.758 252.204 179.466 250.916 178.1 249.686C177.849 249.472 177.527 249.358 177.197 249.366Z" fill="#263238"/>
<g opacity="0.2">
<path d="M174.053 237.188H179.587L178.15 243.796H172.616L174.053 237.188Z" fill="black"/>
</g>
<path d="M167.652 176.593C167.652 176.593 209.12 180.981 208.665 202.135C208.371 215.421 205.817 228.559 201.111 240.986H192.889C192.889 240.986 193.308 227.564 193.031 205.905C192.946 199.411 179.836 197.27 167.026 196.516C161.601 196.175 156.38 194.325 151.95 191.174C147.521 188.023 144.061 183.697 141.96 178.684L141.085 176.593H167.652Z" fill="#263238"/>
<path d="M203.124 238.781C203.166 238.781 202.59 242.672 202.59 242.672H191.209L190.896 239.201L203.124 238.781Z" fill="#A3B8C7"/>
<path d="M158.774 176.593C158.774 176.593 188.834 186.551 189.595 198.899C191.017 221.618 179.843 240.986 179.843 240.986H171.542C171.542 240.986 174.693 231.384 175.81 210.799C177.233 184.943 128.985 210.756 138.026 176.593H158.774Z" fill="#263238"/>
<path d="M182.354 238.781C182.397 238.781 181.308 242.672 181.308 242.672H169.928L170.134 239.201L182.354 238.781Z" fill="#A3B8C7"/>
<path d="M180.455 198.374H134.221C134.221 196.974 134.777 195.631 135.767 194.642C136.756 193.652 138.099 193.096 139.499 193.096H175.177C176.577 193.096 177.919 193.652 178.909 194.642C179.899 195.631 180.455 196.974 180.455 198.374Z" fill="#A3B8C7"/>
<path d="M136.361 198.366L129.391 256.806H130.884L139.726 198.366H136.361Z" fill="#A3B8C7"/>
<path opacity="0.4" d="M136.361 198.366L129.391 256.806H130.884L139.726 198.366H136.361Z" fill="black"/>
<path d="M145.687 198.366L145.552 256.806H147.038L149.051 198.366H145.687Z" fill="#A3B8C7"/>
<path opacity="0.4" d="M145.687 198.366L145.552 256.806H147.038L149.051 198.366H145.687Z" fill="black"/>
<path d="M178.314 198.366L185.285 256.806H183.791L174.957 198.366H178.314Z" fill="#A3B8C7"/>
<path opacity="0.4" d="M178.314 198.366L185.285 256.806H183.791L174.957 198.366H178.314Z" fill="black"/>
<path d="M168.988 198.366L169.124 256.806H167.637L165.624 198.366H168.988Z" fill="#A3B8C7"/>
<path opacity="0.4" d="M168.988 198.366L169.124 256.806H167.637L165.624 198.366H168.988Z" fill="black"/>
</svg>
