<svg width="20" height="20" viewBox="0 0 20 20" fill="none" xmlns="http://www.w3.org/2000/svg">
<g id="certified 1">
<g id="Group">
<path id="Vector" d="M17.2656 12.8906C17.2677 12.405 17.1474 11.9267 16.9159 11.4998C16.6843 11.0729 16.3489 10.7113 15.9407 10.4482C15.5325 10.1852 15.0646 10.0292 14.5802 9.99478C14.0958 9.96031 13.6105 10.0484 13.1691 10.251C12.7278 10.4536 12.3446 10.7641 12.0549 11.1539C11.7652 11.5437 11.5784 12.0002 11.5118 12.4812C11.4451 12.9622 11.5007 13.4523 11.6734 13.9062C11.8461 14.3601 12.1304 14.7631 12.5 15.0781V18.125C12.5 18.1809 12.515 18.2358 12.5434 18.284C12.5719 18.3322 12.6128 18.3718 12.6618 18.3988C12.7108 18.4258 12.7661 18.4391 12.822 18.4374C12.878 18.4357 12.9324 18.419 12.9797 18.389L14.375 17.5L15.7703 18.3875C15.8201 18.4197 15.8781 18.437 15.9375 18.4375C15.9921 18.4388 16.0461 18.4253 16.0937 18.3984C16.1416 18.3708 16.1814 18.3309 16.2088 18.2828C16.2363 18.2348 16.2505 18.1803 16.25 18.125V15.0859C16.5683 14.8155 16.8239 14.4791 16.9993 14.1C17.1747 13.7209 17.2655 13.3083 17.2656 12.8906ZM12.1093 12.8906C12.1093 12.4425 12.2422 12.0045 12.4912 11.6319C12.7401 11.2593 13.094 10.9689 13.508 10.7974C13.9219 10.626 14.3775 10.5811 14.817 10.6685C15.2565 10.7559 15.6602 10.9717 15.977 11.2886C16.2939 11.6054 16.5096 12.0091 16.5971 12.4486C16.6845 12.8881 16.6396 13.3436 16.4681 13.7576C16.2967 14.1716 16.0063 14.5255 15.6337 14.7744C15.2611 15.0234 14.8231 15.1562 14.375 15.1562C13.7742 15.1558 13.1982 14.917 12.7734 14.4922C12.3486 14.0674 12.1098 13.4914 12.1093 12.8906ZM15.625 17.5562L14.5422 16.875C14.4921 16.8433 14.4342 16.8265 14.375 16.8265C14.3158 16.8265 14.2578 16.8433 14.2078 16.875L13.125 17.5562V15.4937C13.5145 15.6829 13.9419 15.7813 14.375 15.7813C14.808 15.7813 15.2354 15.6829 15.625 15.4937V17.5562Z" fill="#C97649" stroke="#C97649" stroke-width="0.25"/>
<path id="Vector_2" d="M11.5625 15.625H4.375V9.44531H4.53125C4.87498 9.44484 5.21297 9.35716 5.51357 9.19046C5.81418 9.02376 6.06756 8.7835 6.25 8.49219C6.43297 8.78269 6.68658 9.02207 6.98715 9.18798C7.28772 9.35389 7.62543 9.44091 7.96875 9.44091C8.31207 9.44091 8.64978 9.35389 8.95035 9.18798C9.25092 9.02207 9.50453 8.78269 9.6875 8.49219C9.87047 8.78269 10.1241 9.02207 10.4246 9.18798C10.7252 9.35389 11.0629 9.44091 11.4063 9.44091C11.7496 9.44091 12.0873 9.35389 12.3879 9.18798C12.6884 9.02207 12.942 8.78269 13.125 8.49219C13.3074 8.7835 13.5608 9.02376 13.8614 9.19046C14.162 9.35716 14.5 9.44484 14.8438 9.44531C15.9828 9.44531 16.875 8.5875 16.875 7.49219V6.25C16.8733 6.19106 16.8567 6.13352 16.8266 6.08281L14.6391 2.64531C14.6109 2.60079 14.5719 2.56412 14.5257 2.53872C14.4795 2.51331 14.4277 2.49999 14.375 2.5H5C4.9473 2.49999 4.89546 2.51331 4.84929 2.53872C4.80312 2.56412 4.76413 2.60079 4.73594 2.64531L2.54844 6.08281C2.51929 6.13393 2.50269 6.19122 2.5 6.25V7.5C2.49964 7.89273 2.61911 8.27623 2.84247 8.59926C3.06583 8.92229 3.38244 9.16948 3.75 9.30781V15.9375C3.75 16.0204 3.78293 16.0999 3.84153 16.1585C3.90014 16.2171 3.97962 16.25 4.0625 16.25H11.5625C11.6454 16.25 11.7249 16.2171 11.7835 16.1585C11.8421 16.0999 11.875 16.0204 11.875 15.9375C11.875 15.8546 11.8421 15.7751 11.7835 15.7165C11.7249 15.6579 11.6454 15.625 11.5625 15.625ZM7.96875 8.82812C7.59579 8.82812 7.23811 8.67997 6.97438 8.41624C6.71066 8.15252 6.5625 7.79484 6.5625 7.42188V6.5625H9.375V7.42188C9.375 7.79484 9.22684 8.15252 8.96312 8.41624C8.6994 8.67997 8.34171 8.82812 7.96875 8.82812ZM11.4063 8.82812C11.0333 8.82812 10.6756 8.67997 10.4119 8.41624C10.1482 8.15252 10 7.79484 10 7.42188V6.5625H12.8125V7.42188C12.8125 7.79484 12.6643 8.15252 12.4006 8.41624C12.1369 8.67997 11.7792 8.82812 11.4063 8.82812ZM14.8438 8.82812C14.4708 8.82812 14.1131 8.67997 13.8494 8.41624C13.5857 8.15252 13.4375 7.79484 13.4375 7.42188V6.5625H16.25V7.5C16.25 8.25781 15.6453 8.82812 14.8438 8.82812ZM5.17188 3.125H14.2031L15.9938 5.9375H3.38125L5.17188 3.125ZM3.125 7.5V6.5625H5.9375V7.42188C5.9375 7.60655 5.90113 7.78941 5.83046 7.96002C5.75979 8.13064 5.6562 8.28566 5.52562 8.41624C5.39504 8.54683 5.24001 8.65041 5.0694 8.72108C4.89879 8.79175 4.71592 8.82812 4.53125 8.82812C3.72969 8.82812 3.125 8.25781 3.125 7.5Z" fill="#C97649" stroke="#C97649" stroke-width="0.25"/>
<path id="Vector_3" d="M6.5625 9.6875C6.47962 9.6875 6.40013 9.72042 6.34153 9.77903C6.28292 9.83763 6.25 9.91712 6.25 10V13.4375C6.25 13.5204 6.28292 13.5999 6.34153 13.6585C6.40013 13.7171 6.47962 13.75 6.5625 13.75H10.625C10.7079 13.75 10.7874 13.7171 10.846 13.6585C10.9046 13.5999 10.9375 13.5204 10.9375 13.4375C10.9375 13.3546 10.9046 13.2751 10.846 13.2165C10.7874 13.1579 10.7079 13.125 10.625 13.125H6.875V10C6.875 9.91712 6.84208 9.83763 6.78347 9.77903C6.72487 9.72042 6.64538 9.6875 6.5625 9.6875Z" fill="#C97649" stroke="#C97649" stroke-width="0.25"/>
</g>
</g>
</svg>
