<svg xmlns="http://www.w3.org/2000/svg" height="30" viewBox="0 -960 960 960" width="30">
<style type="text/css">
	.st0{fill:#C97649;}
</style>
<path class="st0" d="M441.359-428q38.33 0 65.485-26.969Q534-481.938 534-518.734q0-36.797-27.766-64.032Q478.469-610 441.562-610q-36.906 0-63.734 27.023Q351-555.955 351-519.547q0 37.297 26.226 64.422T441.359-428ZM629-274 529-375q-22.994 12-43.876 18-20.882 6-41.782 6Q370-351 322.5-399.368 275-447.735 275-520q0-70 47.785-118.5Q370.571-687 442-687t119.715 48.5Q610-590 610-519.532q0 22.885-7 44.708Q596-453 583-430l103 101-57 55ZM190-99q-37.175 0-64.088-26.912Q99-152.825 99-190v-162h91v162h162v91H190Zm418 0v-91h162v-162h92v162q0 37.175-27.206 64.088Q807.588-99 770-99H608ZM99-608v-162q0-37.588 26.912-64.794Q152.825-862 190-862h162v92H190v162H99Zm671 0v-162H608v-92h162q37.588 0 64.794 27.206Q862-807.588 862-770v162h-92Z"/></svg>
