<svg width="20" height="20" viewBox="0 0 20 20" fill="none" xmlns="http://www.w3.org/2000/svg">
<g id="chart 1" clip-path="url(#clip0_145_14111)">
<g id="Group">
<path id="Vector" d="M19.0625 18.75H18.4947V7.10094C18.4947 7.01806 18.4618 6.93857 18.4032 6.87997C18.3446 6.82136 18.2651 6.78844 18.1822 6.78844H15.5772C15.4943 6.78844 15.4148 6.82136 15.3562 6.87997C15.2976 6.93857 15.2647 7.01806 15.2647 7.10094V18.75H14.1197V12.1009C14.1197 12.0181 14.0868 11.9386 14.0282 11.88C13.9696 11.8214 13.8901 11.7884 13.8072 11.7884H11.2022C11.1193 11.7884 11.0398 11.8214 10.9812 11.88C10.9226 11.9386 10.8897 12.0181 10.8897 12.1009V18.75H9.74469V9.60094C9.74469 9.51806 9.71176 9.43857 9.65316 9.37997C9.59455 9.32136 9.51507 9.28844 9.43219 9.28844H6.82719C6.74431 9.28844 6.66482 9.32136 6.60622 9.37997C6.54761 9.43857 6.51469 9.51806 6.51469 9.60094V18.75H5.36969V13.9759C5.36969 13.8931 5.33676 13.8136 5.27816 13.755C5.21955 13.6964 5.14007 13.6634 5.05719 13.6634H2.45219C2.36931 13.6634 2.28982 13.6964 2.23122 13.755C2.17261 13.8136 2.13969 13.8931 2.13969 13.9759V18.75H1.25V0.9375C1.25 0.85462 1.21708 0.775134 1.15847 0.716529C1.09987 0.657924 1.02038 0.625 0.9375 0.625C0.85462 0.625 0.775134 0.657924 0.716529 0.716529C0.657924 0.775134 0.625 0.85462 0.625 0.9375V19.0625C0.625 19.1454 0.657924 19.2249 0.716529 19.2835C0.775134 19.3421 0.85462 19.375 0.9375 19.375H19.0625C19.1454 19.375 19.2249 19.3421 19.2835 19.2835C19.3421 19.2249 19.375 19.1454 19.375 19.0625C19.375 18.9796 19.3421 18.9001 19.2835 18.8415C19.2249 18.7829 19.1454 18.75 19.0625 18.75ZM2.76469 18.75V14.2884H4.74469V18.75H2.76469ZM7.13969 18.75V9.91344H9.11969V18.75H7.13969ZM11.5147 18.75V12.4134H13.4947V18.75H11.5147ZM15.8897 18.75V7.41344H17.8697V18.75H15.8897Z" fill="#C97649" stroke="#C97649" stroke-width="0.25"/>
<path id="Vector_2" d="M3.75488 11.5625C4.44426 11.5625 5.00488 11.0019 5.00488 10.3125C5.00488 10.0819 4.9377 9.86811 4.82832 9.68249L7.35301 6.87217C7.57549 7.06148 7.85777 7.16598 8.14988 7.16717C8.53832 7.16717 8.88145 6.98561 9.11082 6.70686L11.3452 8.28968C11.2861 8.43597 11.2554 8.5922 11.2549 8.74999C11.2549 9.43936 11.8155 9.99999 12.5049 9.99999C13.1943 9.99999 13.7549 9.43936 13.7549 8.74999C13.7549 8.55843 13.708 8.37905 13.6308 8.21655L16.5668 4.3178C16.6674 4.34405 16.7711 4.36249 16.8799 4.36249C17.5693 4.36249 18.1299 3.80186 18.1299 3.11249C18.1299 2.42311 17.5693 1.86249 16.8799 1.86249C16.1905 1.86249 15.6299 2.42311 15.6299 3.11249C15.63 3.28061 15.6642 3.44696 15.7304 3.60149C15.7967 3.75602 15.8935 3.89551 16.0152 4.01155L13.218 7.72593C13.0092 7.57903 12.7602 7.50013 12.5049 7.49999C12.2049 7.49999 11.933 7.61061 11.7174 7.78718L9.37832 6.1303C9.3917 6.06013 9.39891 5.98892 9.39988 5.91749C9.39988 5.22811 8.83926 4.66749 8.14988 4.66749C7.46051 4.66749 6.89988 5.22811 6.89988 5.91749C6.89988 6.0703 6.93145 6.21499 6.98176 6.35061L4.38613 9.23999C4.19554 9.1251 3.97742 9.06388 3.75488 9.0628C3.06551 9.0628 2.50488 9.62343 2.50488 10.3128C2.50488 11.0022 3.06551 11.5625 3.75488 11.5625ZM16.8799 2.48749C17.2246 2.48749 17.5049 2.7678 17.5049 3.11249C17.5049 3.45718 17.2246 3.73749 16.8799 3.73749C16.5352 3.73749 16.2549 3.45718 16.2549 3.11249C16.2549 2.7678 16.5352 2.48749 16.8799 2.48749ZM12.5049 8.12499C12.8496 8.12499 13.1299 8.4053 13.1299 8.74999C13.1299 9.09468 12.8496 9.37499 12.5049 9.37499C12.1602 9.37499 11.8799 9.09468 11.8799 8.74999C11.8799 8.4053 12.1602 8.12499 12.5049 8.12499ZM8.14988 5.29249C8.49457 5.29249 8.77488 5.5728 8.77488 5.91749C8.77488 6.26218 8.49457 6.54249 8.14988 6.54249C7.80519 6.54249 7.52488 6.26218 7.52488 5.91749C7.52488 5.5728 7.80519 5.29249 8.14988 5.29249ZM3.75488 9.68749C4.09957 9.68749 4.37988 9.9678 4.37988 10.3125C4.37988 10.6572 4.09957 10.9375 3.75488 10.9375C3.4102 10.9375 3.12988 10.6572 3.12988 10.3125C3.12988 9.9678 3.4102 9.68749 3.75488 9.68749Z" fill="#C97649" stroke="#C97649" stroke-width="0.25"/>
</g>
</g>
<defs>
<clipPath id="clip0_145_14111">
<rect width="20" height="20" fill="white"/>
</clipPath>
</defs>
</svg>
