<svg width="20" height="20" viewBox="0 0 20 20" fill="none" xmlns="http://www.w3.org/2000/svg">
<g id="choice 2" clip-path="url(#clip0_145_14062)">
<g id="Group">
<path id="Vector" d="M6.98386 7.80638C7.02007 5.00933 3.74774 3.28798 1.48923 4.93244C1.42685 4.97774 1.38485 5.0458 1.37233 5.12187C1.35981 5.19793 1.37778 5.27587 1.42234 5.33877C1.4669 5.40168 1.53446 5.44448 1.61037 5.45791C1.68628 5.47133 1.76442 5.45429 1.82785 5.41048C3.70846 4.04185 6.4285 5.47804 6.39804 7.80646C6.39808 9.42034 5.09556 10.7334 3.49453 10.7334C1.35047 10.7603 -0.0910706 8.36565 0.912577 6.4681C0.947937 6.39893 0.954372 6.31855 0.930468 6.24464C0.906563 6.17073 0.854276 6.10934 0.78511 6.07398C0.715943 6.03862 0.635563 6.03218 0.561652 6.05609C0.487741 6.07999 0.426353 6.13228 0.390993 6.20145C-0.813853 8.48059 0.919138 11.3514 3.49453 11.3192C5.41856 11.3191 6.98386 9.74327 6.98386 7.80638Z" fill="#C97649" stroke="#C97649" stroke-width="0.25"/>
<path id="Vector_2" d="M2.51153 9.35332C2.57104 9.3533 2.62913 9.33517 2.67808 9.30134C2.72703 9.2675 2.76452 9.21957 2.78556 9.16391L2.94681 8.73742H4.04348L4.20297 9.16309C4.23023 9.23584 4.28526 9.29477 4.35598 9.32694C4.42669 9.35911 4.50728 9.36187 4.58002 9.33461C4.65277 9.30735 4.71171 9.25232 4.74387 9.18161C4.77604 9.1109 4.7788 9.0303 4.75154 8.95756L3.82518 6.48491C3.79996 6.41865 3.75521 6.36162 3.69684 6.32138C3.63847 6.28114 3.56925 6.25959 3.49835 6.25958C3.42885 6.25949 3.36091 6.28021 3.30329 6.31908C3.24568 6.35794 3.20102 6.41317 3.17507 6.47765L3.17254 6.48417L2.2377 8.9567C2.17018 9.13525 2.32654 9.35332 2.51153 9.35332ZM3.49765 7.28053L3.82401 8.15163H3.16828L3.49765 7.28053ZM11.1437 4.09123C11.1437 3.78073 10.9973 3.50408 10.7704 3.32686C11.162 2.76974 10.7406 1.95839 10.0544 1.96854H9.33118C9.2535 1.96854 9.179 1.9994 9.12408 2.05433C9.06915 2.10925 9.03829 2.18375 9.03829 2.26143V4.7693C9.03829 4.91512 9.18407 5.0622 9.33251 5.0622C9.33255 5.0622 9.99742 5.05919 10.1807 5.05919C10.7117 5.05915 11.1437 4.62492 11.1437 4.09123ZM10.0544 2.55429C10.4247 2.56635 10.4243 3.11129 10.0534 3.12262C9.91029 3.12324 9.7672 3.12348 9.62411 3.12328V2.55429H10.0544ZM9.62407 3.70989C9.80961 3.70911 9.99515 3.70883 10.1807 3.70903C10.68 3.72695 10.6797 4.45552 10.1807 4.47332C10.0785 4.47332 9.82723 4.47426 9.62407 4.47508V3.70989ZM16.5106 4.29368C14.5865 4.29368 13.0212 5.86949 13.0212 7.80641C13.197 12.4602 19.8248 12.459 19.9999 7.80637C19.9999 5.86949 18.4346 4.29368 16.5106 4.29368ZM16.5106 10.7334C14.9095 10.7334 13.607 9.42033 13.607 7.80641C13.7534 3.92862 19.2684 3.92967 19.4141 7.80645C19.4141 9.42029 18.1116 10.7334 16.5106 10.7334Z" fill="#C97649" stroke="#C97649" stroke-width="0.25"/>
<path id="Vector_3" d="M17.5358 8.48121C17.4761 8.43152 17.3991 8.40758 17.3217 8.41465C17.2444 8.42173 17.173 8.45924 17.1233 8.51894C16.5772 9.11128 15.5868 8.56514 15.6123 7.80639C15.6024 7.05045 16.4768 6.5769 17.0954 7.00874C17.1596 7.05244 17.2386 7.06884 17.3149 7.05434C17.3912 7.03983 17.4586 6.9956 17.5023 6.93138C17.5461 6.86716 17.5625 6.7882 17.5479 6.71189C17.5334 6.63558 17.4892 6.56815 17.425 6.52445C16.427 5.82697 15.0107 6.58697 15.0265 7.80642C14.9918 9.10226 16.6927 9.91565 17.5735 8.89372C17.6232 8.83401 17.6472 8.75701 17.6401 8.67965C17.633 8.60229 17.5955 8.53091 17.5358 8.48121ZM15.1325 15.3719C15.0548 15.3719 14.9803 15.4028 14.9254 15.4577C14.8705 15.5126 14.8396 15.5871 14.8396 15.6648C14.8396 16.2617 14.6187 16.8322 14.2189 17.2697L13.6632 17.8694C13.6131 17.9235 13.5852 17.9945 13.5852 18.0683L13.584 19.7043C13.584 19.7427 13.5915 19.7808 13.6062 19.8164C13.6209 19.8519 13.6425 19.8842 13.6696 19.9114C13.6968 19.9386 13.7291 19.9602 13.7646 19.975C13.8001 19.9897 13.8382 19.9973 13.8767 19.9973H13.8769C13.9545 19.9973 14.029 19.9665 14.0839 19.9116C14.1388 19.8567 14.1697 19.7823 14.1698 19.7046L14.1709 18.1834L14.65 17.6663C15.15 17.119 15.4253 16.4082 15.4253 15.6647C15.4253 15.6263 15.4178 15.5882 15.4031 15.5526C15.3883 15.5171 15.3668 15.4848 15.3396 15.4576C15.3124 15.4305 15.2801 15.4089 15.2446 15.3942C15.209 15.3795 15.1709 15.3719 15.1325 15.3719Z" fill="#C97649" stroke="#C97649" stroke-width="0.25"/>
<path id="Vector_4" d="M13.7356 13.0772V12.3443C13.7452 11.6084 14.8534 11.7042 14.8377 12.4254L14.8386 13.964C14.8386 14.0416 14.8695 14.1161 14.9244 14.171C14.9794 14.2259 15.0538 14.2567 15.1315 14.2567H15.1317C15.1701 14.2567 15.2082 14.2491 15.2437 14.2343C15.2793 14.2196 15.3115 14.198 15.3387 14.1708C15.3659 14.1436 15.3875 14.1113 15.4022 14.0757C15.4169 14.0402 15.4244 14.0021 15.4244 13.9637L15.4235 12.4252C15.4427 11.5125 14.4288 10.9615 13.6637 11.4052C13.4201 10.7378 12.5261 10.4918 11.9461 10.8731C11.6864 10.3126 10.9152 10.1207 10.3794 10.3977V7.00697C14.7352 6.3751 14.4009 0.163303 10.0027 0.00256348C6.52332 0.0188093 5.21452 4.60228 8.129 6.47902C8.06043 6.7839 8.12213 12.1813 8.10405 14.2602L6.20879 12.5808C5.78687 12.2068 5.10154 12.3338 4.74066 12.7185C4.34529 13.1399 4.31776 13.7382 4.67364 14.1733L4.67798 14.1784L8.10428 18.1768V19.7045C8.10428 19.7822 8.13514 19.8567 8.19007 19.9116C8.245 19.9665 8.3195 19.9974 8.39718 19.9974C8.47486 19.9974 8.54935 19.9665 8.60428 19.9116C8.65921 19.8567 8.69007 19.7822 8.69007 19.7045V18.0685C8.69007 17.9986 8.66508 17.931 8.61958 17.8779L5.12517 13.8001C4.92143 13.5485 5.02062 13.2763 5.16793 13.1192C5.31219 12.9654 5.57165 12.8517 5.83272 13.0303L8.20293 15.1304C8.24517 15.1678 8.29732 15.1922 8.3531 15.2007C8.40888 15.2092 8.46592 15.2014 8.51738 15.1782C8.56883 15.1551 8.61249 15.1176 8.64313 15.0702C8.67377 15.0228 8.69007 14.9676 8.69007 14.9111C8.68995 14.586 8.68722 6.94519 8.68644 6.74274C8.68562 6.54045 8.76454 6.39182 8.92095 6.30094C9.10699 6.19292 9.36771 6.19265 9.55492 6.30039C9.7125 6.39107 9.79268 6.53947 9.79353 6.74122V6.74165L9.79365 6.74294C9.79311 6.74215 9.7942 12.147 9.79373 12.147C9.80607 12.5342 10.3674 12.5341 10.3795 12.147V11.3736C10.3795 11.0599 10.62 10.8579 10.9243 10.8579C11.3285 10.8579 11.4719 11.1357 11.4719 11.3736V12.5494C11.4835 12.936 12.0456 12.937 12.0576 12.5494V11.7781C12.0576 11.4087 12.3402 11.2776 12.5822 11.2776C12.7931 11.2776 13.15 11.3915 13.15 11.8185V13.0772C13.1608 13.4631 13.7238 13.4652 13.7356 13.0772ZM8.62669 5.79443C8.54711 5.84056 8.47386 5.89684 8.40877 5.96185C6.02423 4.37765 7.12793 0.600378 10.0027 0.58835C13.6513 0.720035 13.9435 5.87562 10.336 6.42271C10.2614 6.15535 10.0924 5.93389 9.84711 5.79267C9.48135 5.58218 8.99089 5.58288 8.62669 5.79443Z" fill="#C97649" stroke="#C97649" stroke-width="0.25"/>
</g>
</g>
<defs>
<clipPath id="clip0_145_14062">
<rect width="20" height="20" fill="white"/>
</clipPath>
</defs>
</svg>
