<svg width="20" height="20" viewBox="0 0 20 20" fill="none" xmlns="http://www.w3.org/2000/svg">
<g id="delivery 1" clip-path="url(#clip0_145_14103)">
<g id="Group">
<path id="Vector" d="M18.5999 9.03764L18.082 6.96596C18.2236 6.93588 18.3298 6.81025 18.3298 6.65975V6.32572C18.3298 5.60049 17.7398 5.01049 17.0146 5.01049H14.6555V4.3215C14.6555 3.96463 14.3652 3.67432 14.0084 3.67432H1.98328C1.62641 3.67432 1.33609 3.96463 1.33609 4.3215V10C1.33609 10.0831 1.36909 10.1627 1.42782 10.2215C1.48655 10.2802 1.5662 10.3132 1.64926 10.3132C1.73231 10.3132 1.81197 10.2802 1.8707 10.2215C1.92943 10.1627 1.96242 10.0831 1.96242 10V4.3215C1.96242 4.30998 1.97176 4.30064 1.98328 4.30064H14.0083C14.0198 4.30064 14.0292 4.30998 14.0292 4.3215V10.0001C14.0292 10.0832 14.0622 10.1628 14.1209 10.2215C14.1796 10.2803 14.2593 10.3133 14.3423 10.3133C14.4254 10.3133 14.5051 10.2803 14.5638 10.2215C14.6225 10.1628 14.6555 10.0832 14.6555 10.0001V9.6451H18.3496L18.3504 9.64518L18.3513 9.64514C18.8059 9.64545 19.1918 9.94381 19.3244 10.3549H18.3507C18.2676 10.3549 18.188 10.3879 18.1292 10.4467C18.0705 10.5054 18.0375 10.585 18.0375 10.6681V11.3362C18.0375 11.8772 18.4777 12.3174 19.0187 12.3174H19.3736V13.6952H18.5548C18.2858 12.9185 17.5475 12.3591 16.6805 12.3591C15.8135 12.3591 15.0752 12.9185 14.8062 13.6952H14.6554V11.3361C14.6554 11.2531 14.6224 11.1734 14.5637 11.1147C14.505 11.0559 14.4253 11.0229 14.3423 11.0229C14.2592 11.0229 14.1796 11.0559 14.1208 11.1147C14.0621 11.1734 14.0291 11.2531 14.0291 11.3361V13.6951H7.53191C7.26293 12.9185 6.52461 12.359 5.65762 12.359C4.79063 12.359 4.05227 12.9185 3.78332 13.6951H1.98328C1.97775 13.6951 1.97244 13.6929 1.96853 13.689C1.96462 13.6851 1.96242 13.6798 1.96242 13.6743V12.9853H3.31941C3.40247 12.9853 3.48212 12.9523 3.54085 12.8936C3.59958 12.8349 3.63258 12.7552 3.63258 12.6722C3.63258 12.5891 3.59958 12.5095 3.54085 12.4507C3.48212 12.392 3.40247 12.359 3.31941 12.359H0.313164C0.230108 12.359 0.150453 12.392 0.0917236 12.4507C0.032994 12.5095 0 12.5891 0 12.6722C0 12.7552 0.032994 12.8349 0.0917236 12.8936C0.150453 12.9523 0.230108 12.9853 0.313164 12.9853H1.33613V13.6743C1.33613 14.0312 1.62645 14.3215 1.98332 14.3215H3.67488C3.6748 14.3284 3.67434 14.3353 3.67434 14.3423C3.67434 15.4359 4.56406 16.3256 5.65762 16.3256C6.75117 16.3256 7.6409 15.4359 7.6409 14.3423C7.6409 14.3353 7.64043 14.3284 7.64035 14.3215H14.6978C14.6977 14.3284 14.6972 14.3353 14.6972 14.3423C14.6972 15.4359 15.587 16.3256 16.6805 16.3256C17.7741 16.3256 18.6638 15.4359 18.6638 14.3423C18.6638 14.3353 18.6633 14.3284 18.6632 14.3215H19.6868C19.7699 14.3215 19.8495 14.2885 19.9082 14.2297C19.967 14.171 20 14.0914 20 14.0083V10.668C20 9.84334 19.3915 9.15814 18.5999 9.03764ZM14.6555 5.63678H17.0146C17.3945 5.63678 17.7036 5.94584 17.7036 6.32572V6.34658H14.6555V5.63678ZM14.6555 9.01881V6.97287H17.4382L17.9496 9.01881H14.6555ZM5.65762 15.6994C4.90938 15.6994 4.30062 15.0907 4.30062 14.3424C4.30062 13.5941 4.90938 12.9854 5.65762 12.9854C6.40586 12.9854 7.01461 13.5941 7.01461 14.3424C7.01461 15.0907 6.40586 15.6994 5.65762 15.6994ZM16.6806 15.6994C15.9323 15.6994 15.3236 15.0907 15.3236 14.3424C15.3236 13.5941 15.9323 12.9854 16.6806 12.9854C17.4288 12.9854 18.0376 13.5941 18.0376 14.3424C18.0376 15.0907 17.4288 15.6994 16.6806 15.6994ZM19.3737 11.691H19.0188C18.8231 11.691 18.6639 11.5318 18.6639 11.3361V10.9812H19.3737V11.691H19.3737Z" fill="#C97649"/>
<path id="Vector_2" d="M5.65754 13.6952C5.30066 13.6952 5.01035 13.9855 5.01035 14.3424C5.01035 14.6993 5.30066 14.9896 5.65754 14.9896C6.01441 14.9896 6.30473 14.6993 6.30473 14.3424C6.30473 13.9855 6.01441 13.6952 5.65754 13.6952ZM16.6805 13.6952C16.3236 13.6952 16.0333 13.9855 16.0333 14.3424C16.0333 14.6993 16.3236 14.9896 16.6805 14.9896C17.0374 14.9896 17.3277 14.6993 17.3277 14.3424C17.3277 13.9855 17.0374 13.6952 16.6805 13.6952ZM13.0062 12.3591H8.32977C8.24671 12.3591 8.16705 12.3921 8.10833 12.4509C8.04959 12.5096 8.0166 12.5892 8.0166 12.6723C8.0166 12.7553 8.04959 12.835 8.10833 12.8937C8.16705 12.9525 8.24671 12.9855 8.32977 12.9855H13.0062C13.0892 12.9855 13.1689 12.9525 13.2276 12.8937C13.2863 12.835 13.3193 12.7553 13.3193 12.6723C13.3193 12.5892 13.2863 12.5096 13.2276 12.4509C13.1689 12.3921 13.0892 12.3591 13.0062 12.3591ZM4.98949 11.023H0.981133C0.898077 11.023 0.818422 11.056 0.759692 11.1147C0.700963 11.1734 0.667969 11.2531 0.667969 11.3362C0.667969 11.4192 0.700963 11.4989 0.759692 11.5576C0.818422 11.6163 0.898077 11.6493 0.981133 11.6493H4.98949C5.07255 11.6493 5.1522 11.6163 5.21093 11.5576C5.26966 11.4989 5.30266 11.4192 5.30266 11.3362C5.30266 11.2531 5.26966 11.1734 5.21093 11.1147C5.1522 11.056 5.07255 11.023 4.98949 11.023ZM10.8894 6.77229C10.8307 6.71358 10.751 6.6806 10.668 6.6806C10.5849 6.68061 10.5053 6.71361 10.4466 6.77233L7.66172 9.55714L6.21301 8.10843C6.18393 8.07934 6.14941 8.05628 6.11142 8.04054C6.07343 8.0248 6.03271 8.0167 5.99158 8.0167C5.95046 8.0167 5.90974 8.0248 5.87175 8.04054C5.83375 8.05628 5.79923 8.07934 5.77016 8.10843C5.74108 8.1375 5.71801 8.17202 5.70227 8.21001C5.68653 8.24801 5.67843 8.28873 5.67843 8.32985C5.67843 8.37097 5.68653 8.41169 5.70227 8.44969C5.71801 8.48768 5.74108 8.5222 5.77016 8.55128L7.44031 10.2214C7.50145 10.2826 7.5816 10.3132 7.66172 10.3132C7.74184 10.3132 7.82203 10.2826 7.88312 10.2214L10.8894 7.21518C10.9481 7.15645 10.9811 7.0768 10.9811 6.99375C10.9811 6.91069 10.9481 6.83103 10.8894 6.77229Z" fill="#C97649"/>
</g>
</g>
<defs>
<clipPath id="clip0_145_14103">
<rect width="20" height="20" fill="white"/>
</clipPath>
</defs>
</svg>
