<svg width="20" height="20" viewBox="0 0 20 20" fill="none" xmlns="http://www.w3.org/2000/svg">
<g id="need 1" clip-path="url(#clip0_145_14076)">
<g id="Group">
<path id="Vector" d="M18.2467 8.70248C17.9502 8.70205 17.6627 8.80358 17.4322 8.99004C17.2017 9.17649 17.0423 9.43653 16.9808 9.72654H15.2484C15.1855 8.51562 14.7037 7.36419 13.8856 6.46927L15.1139 5.24306C15.3784 5.41816 15.6983 5.48927 16.0121 5.44274C16.3259 5.3962 16.6114 5.23531 16.8137 4.99098C17.016 4.74666 17.1208 4.43617 17.108 4.11922C17.0952 3.80227 16.9657 3.50125 16.7443 3.27404C16.523 3.04683 16.2255 2.90947 15.9089 2.88839C15.5924 2.86731 15.2793 2.964 15.0298 3.15985C14.7803 3.3557 14.612 3.63689 14.5572 3.94934C14.5025 4.2618 14.5653 4.58345 14.7334 4.85244L13.4968 6.08904C12.5957 5.28191 11.4429 4.8118 10.2344 4.75865V3.0249C10.5482 2.96695 10.8294 2.79503 11.024 2.54222C11.2186 2.28941 11.3128 1.97357 11.2886 1.65545C11.2644 1.33734 11.1233 1.03942 10.8927 0.819018C10.662 0.598614 10.358 0.471291 10.0391 0.461542C9.72022 0.451793 9.40899 0.560307 9.16529 0.766209C8.92159 0.972111 8.76264 1.26086 8.71901 1.57689C8.67538 1.89293 8.75016 2.21394 8.92896 2.47817C9.10776 2.74239 9.37795 2.93117 9.68756 3.00818V4.76271C8.49042 4.83322 7.35378 5.31257 6.46767 6.1206L5.24025 4.89322C5.41885 4.62896 5.49342 4.308 5.44962 3.99207C5.40582 3.67614 5.24674 3.38757 5.00299 3.18187C4.75924 2.97617 4.44803 2.86786 4.12924 2.87779C3.81045 2.88772 3.50658 3.01519 3.27611 3.23566C3.04563 3.45614 2.90483 3.75405 2.88078 4.07209C2.85672 4.39013 2.95113 4.70583 3.14582 4.95846C3.34052 5.21109 3.62176 5.3828 3.93543 5.44056C4.24911 5.49832 4.57306 5.43805 4.84498 5.27134L6.08279 6.5049C5.27447 7.40474 4.80343 8.55719 4.75006 9.7656H3.0265C2.96949 9.46874 2.8116 9.20073 2.57958 9.00697C2.34756 8.81322 2.05568 8.70564 1.75341 8.70248C1.58306 8.70154 1.4142 8.73429 1.25654 8.79883C1.09889 8.86337 0.955542 8.95844 0.834751 9.07857C0.71396 9.1987 0.618104 9.34152 0.552695 9.49882C0.487286 9.65612 0.453613 9.8248 0.453613 9.99515C0.453613 10.1655 0.487286 10.3342 0.552695 10.4915C0.618104 10.6488 0.71396 10.7916 0.834751 10.9117C0.955542 11.0319 1.09889 11.1269 1.25654 11.1915C1.4142 11.256 1.58306 11.2888 1.75341 11.2878C2.04206 11.2921 2.32353 11.1978 2.55132 11.0204C2.77911 10.8431 2.9396 10.5934 3.00627 10.3125H4.7542C4.82116 11.5087 5.29876 12.6452 6.10638 13.5303L4.88619 14.7526C4.61928 14.5731 4.29541 14.4987 3.97693 14.5437C3.65846 14.5887 3.36789 14.75 3.16117 14.9964C2.95445 15.2428 2.84619 15.557 2.85723 15.8784C2.86828 16.1999 2.99784 16.5059 3.22099 16.7375C3.44414 16.9692 3.74508 17.1101 4.0659 17.1331C4.38671 17.1562 4.70471 17.0597 4.95867 16.8623C5.21264 16.665 5.38461 16.3806 5.44148 16.0641C5.49836 15.7475 5.43611 15.4211 5.26674 15.1476L6.49424 13.9201C7.38654 14.7232 8.52775 15.1951 9.72662 15.2569V16.9827C9.41466 17.0502 9.13868 17.2307 8.95178 17.4894C8.76487 17.7481 8.68025 18.0668 8.71418 18.3842C8.74812 18.7016 8.89822 18.9952 9.1356 19.2085C9.37299 19.4219 9.68088 19.5399 10.0001 19.5399C10.3192 19.5399 10.6271 19.4219 10.8645 19.2085C11.1019 18.9952 11.252 18.7016 11.2859 18.3842C11.3199 18.0668 11.2352 17.7481 11.0483 17.4894C10.8614 17.2307 10.5855 17.0502 10.2735 16.9827V15.2569C11.4828 15.1946 12.6332 14.7151 13.5287 13.8999L14.7501 15.1213C14.5747 15.3881 14.5042 15.7104 14.5522 16.026C14.6002 16.3417 14.7632 16.6285 15.0099 16.8312C15.2566 17.0339 15.5695 17.1382 15.8885 17.1241C16.2075 17.11 16.51 16.9783 16.7378 16.7546C16.9655 16.5309 17.1025 16.2308 17.1224 15.9121C17.1422 15.5934 17.0435 15.2787 16.8452 15.0284C16.647 14.7781 16.3631 14.61 16.0484 14.5564C15.7336 14.5028 15.4101 14.5675 15.1402 14.738L13.9141 13.5074C14.7179 12.6151 15.1892 11.4729 15.2484 10.2734H16.9848C17.0373 10.5115 17.156 10.7298 17.3273 10.9033C17.4985 11.0768 17.7153 11.1983 17.9527 11.2539C18.19 11.3094 18.4383 11.2967 18.6687 11.2172C18.8992 11.1377 19.1024 10.9947 19.2551 10.8047C19.4077 10.6146 19.5035 10.3852 19.5314 10.1431C19.5593 9.90091 19.5182 9.65579 19.4127 9.43601C19.3073 9.21622 19.1418 9.03073 18.9355 8.90094C18.7291 8.77115 18.4903 8.70235 18.2465 8.70248H18.2467ZM15.3036 3.64103C15.4435 3.50107 15.6333 3.42243 15.8313 3.42243C16.0292 3.42242 16.219 3.50104 16.359 3.64099C16.499 3.78095 16.5776 3.97077 16.5776 4.1687C16.5776 4.36663 16.499 4.55646 16.359 4.69642C16.2899 4.76639 16.2076 4.822 16.1169 4.86005C16.0261 4.8981 15.9288 4.91784 15.8304 4.91813C15.732 4.91842 15.6346 4.89925 15.5436 4.86174C15.4527 4.82423 15.3701 4.76911 15.3005 4.69954C15.2309 4.62998 15.1758 4.54735 15.1383 4.45641C15.1008 4.36547 15.0816 4.268 15.0819 4.16963C15.0822 4.07125 15.1019 3.9739 15.14 3.88318C15.178 3.79245 15.2336 3.71019 15.3036 3.64103ZM4.69654 4.69642C4.59217 4.80081 4.45919 4.8719 4.31441 4.90071C4.16963 4.92951 4.01957 4.91474 3.88319 4.85825C3.74681 4.80177 3.63024 4.70611 3.54823 4.58338C3.46621 4.46064 3.42244 4.31634 3.42244 4.16873C3.42244 4.02111 3.46621 3.87681 3.54823 3.75408C3.63024 3.63134 3.74681 3.53568 3.88319 3.4792C4.01957 3.42271 4.16963 3.40794 4.31441 3.43675C4.45919 3.46555 4.59217 3.53665 4.69654 3.64103C4.76586 3.71032 4.82085 3.79258 4.85837 3.88313C4.89588 3.97367 4.91519 4.07072 4.91519 4.16873C4.91519 4.26674 4.89588 4.36378 4.85837 4.45433C4.82085 4.54487 4.76586 4.62714 4.69654 4.69642ZM1.75341 10.7463C1.60581 10.7463 1.46152 10.7025 1.33879 10.6205C1.21606 10.5385 1.12041 10.4219 1.06393 10.2856C1.00744 10.1492 0.992669 9.99912 1.02147 9.85435C1.05027 9.70958 1.12136 9.5766 1.22573 9.47223C1.33011 9.36786 1.46309 9.29678 1.60787 9.26799C1.75264 9.23919 1.9027 9.25397 2.03907 9.31046C2.17544 9.36695 2.292 9.46261 2.37401 9.58534C2.45601 9.70808 2.49978 9.85237 2.49978 9.99998C2.49955 10.1979 2.42085 10.3876 2.28092 10.5275C2.141 10.6674 1.95129 10.7461 1.75341 10.7463ZM4.69654 16.3589C4.62724 16.4282 4.54497 16.4832 4.45443 16.5207C4.36388 16.5582 4.26684 16.5775 4.16883 16.5775C4.07083 16.5775 3.97378 16.5582 3.88323 16.5207C3.79269 16.4832 3.71041 16.4283 3.64111 16.359C3.57181 16.2897 3.51683 16.2074 3.47932 16.1168C3.44182 16.0263 3.42251 15.9293 3.4225 15.8313C3.4225 15.7332 3.4418 15.6362 3.4793 15.5457C3.5168 15.4551 3.57177 15.3728 3.64107 15.3035C3.77614 15.1682 3.95807 15.09 4.14919 15.0852C4.34031 15.0803 4.52598 15.1491 4.66775 15.2774C4.68746 15.3084 4.71332 15.335 4.74373 15.3555C4.86221 15.4986 4.92304 15.6808 4.91431 15.8664C4.90558 16.052 4.82793 16.2276 4.69654 16.359V16.3589ZM15.3036 15.3035C15.4079 15.1991 15.5409 15.1281 15.6857 15.0992C15.8305 15.0704 15.9805 15.0852 16.1169 15.1417C16.2533 15.1982 16.3699 15.2938 16.4519 15.4166C16.5339 15.5393 16.5777 15.6836 16.5777 15.8312C16.5777 15.9788 16.5339 16.1231 16.4519 16.2459C16.3699 16.3686 16.2533 16.4643 16.1169 16.5208C15.9805 16.5772 15.8305 16.592 15.6857 16.5632C15.5409 16.5344 15.4079 16.4633 15.3036 16.3589C15.2343 16.2896 15.1793 16.2074 15.1417 16.1168C15.1042 16.0263 15.0849 15.9292 15.0849 15.8312C15.0849 15.7332 15.1042 15.6362 15.1417 15.5456C15.1793 15.4551 15.2343 15.3728 15.3036 15.3035ZM9.25373 1.75338C9.25373 1.60577 9.2975 1.46147 9.37951 1.33874C9.46151 1.216 9.57808 1.12035 9.71445 1.06386C9.85082 1.00737 10.0009 0.992591 10.1457 1.02139C10.2904 1.05019 10.4234 1.12127 10.5278 1.22564C10.6322 1.33002 10.7032 1.463 10.732 1.60777C10.7608 1.75255 10.7461 1.90261 10.6896 2.03898C10.6331 2.17536 10.5374 2.29192 10.4147 2.37392C10.292 2.45593 10.1477 2.4997 10.0001 2.4997C9.80219 2.49947 9.6125 2.42076 9.47258 2.28085C9.33267 2.14093 9.25397 1.95124 9.25373 1.75338ZM10.7464 18.2466C10.7465 18.3919 10.7043 18.5341 10.6248 18.6557C10.5453 18.7773 10.432 18.8731 10.2988 18.9312C10.1657 18.9894 10.0185 19.0074 9.8752 18.9831C9.73195 18.9588 9.59891 18.8932 9.4924 18.7944C9.38589 18.6956 9.31055 18.5678 9.27562 18.4268C9.24069 18.2857 9.24768 18.1375 9.29575 18.0004C9.34382 17.8633 9.43086 17.7432 9.54621 17.6548C9.66156 17.5665 9.80019 17.5137 9.9451 17.503C9.98136 17.5104 10.0188 17.5104 10.055 17.503C10.2428 17.517 10.4183 17.6014 10.5465 17.7392C10.6747 17.8771 10.7461 18.0583 10.7464 18.2466ZM10.0001 14.7171C9.0688 14.7171 8.15846 14.4409 7.38414 13.9236C6.60983 13.4062 6.00633 12.6708 5.64995 11.8104C5.29358 10.9501 5.20033 10.0033 5.38201 9.08998C5.56369 8.17662 6.01214 7.33765 6.67063 6.67915C7.32913 6.02065 8.16811 5.57221 9.08147 5.39053C9.99483 5.20885 10.9416 5.30209 11.8019 5.65847C12.6623 6.01485 13.3977 6.61835 13.915 7.39266C14.4324 8.16697 14.7086 9.07731 14.7086 10.0086C14.7072 11.2569 14.2106 12.4537 13.3279 13.3364C12.4452 14.2192 11.2484 14.7157 10.0001 14.7171ZM18.2467 10.7463C18.0991 10.7463 17.9548 10.7025 17.8321 10.6205C17.7093 10.5385 17.6137 10.422 17.5572 10.2856C17.5007 10.1492 17.4859 9.99915 17.5147 9.85438C17.5435 9.7096 17.6146 9.57662 17.719 9.47224C17.8233 9.36787 17.9563 9.29679 18.1011 9.26799C18.2459 9.23919 18.3959 9.25397 18.5323 9.31046C18.6687 9.36695 18.7852 9.46261 18.8672 9.58534C18.9493 9.70807 18.993 9.85237 18.993 9.99998C18.9928 10.1978 18.9141 10.3875 18.7742 10.5275C18.6343 10.6674 18.4446 10.7461 18.2467 10.7463Z" fill="#C97649" stroke="#C97649" stroke-width="0.25"/>
<path id="Vector_2" d="M13.2617 7.95892L10.1367 6.15474C10.0952 6.13074 10.048 6.1181 10 6.1181C9.952 6.1181 9.90485 6.13074 9.86328 6.15474L6.73828 7.95892C6.69671 7.98292 6.66219 8.01744 6.63819 8.05902C6.61419 8.10059 6.60156 8.14775 6.60156 8.19575V11.8042C6.60156 11.8522 6.61419 11.8994 6.63819 11.9409C6.66219 11.9825 6.69671 12.017 6.73828 12.041L9.86328 13.8452C9.90485 13.8692 9.952 13.8818 10 13.8818C10.048 13.8818 10.0952 13.8692 10.1367 13.8452L13.2617 12.041C13.3033 12.017 13.3378 11.9825 13.3618 11.9409C13.3858 11.8994 13.3984 11.8522 13.3984 11.8042V8.19575C13.3984 8.14775 13.3858 8.10059 13.3618 8.05902C13.3378 8.01744 13.3033 7.98292 13.2617 7.95892ZM10 6.70728L10.9848 7.27579L8.40684 8.76407L7.42207 8.19552L10 6.70728ZM9.72656 13.1348L7.14844 11.6463V8.66911L9.72656 10.1576V13.1348ZM10 9.68399L8.95371 9.07993L11.5316 7.59165L12.5781 8.1956L10 9.68399ZM12.8516 11.6463L10.2734 13.1348V10.1576L12.8516 8.66911V11.6463Z" fill="#C97649" stroke="#C97649" stroke-width="0.25"/>
</g>
</g>
<defs>
<clipPath id="clip0_145_14076">
<rect width="20" height="20" fill="white"/>
</clipPath>
</defs>
</svg>
