<svg xmlns="http://www.w3.org/2000/svg" height="30" viewBox="0 -960 960 960" width="30">
<style type="text/css">
	.st0{fill:#C97649;}
</style>
<path class="st0"  d="M340.4-474q42.6 0 73.361-31.073Q444.522-536.146 457-581l-70-17q-4.208 20.772-15.863 35.886Q359.481-547 339.741-547q-19.741 0-31.158-15.114Q297.167-577.228 294-598l-71 17q12.478 44.854 43.639 75.927Q297.8-474 340.4-474Zm139.338 220Q520-254 558-273.5t73-57.5l-53-48q-25 25.531-48.52 38.265Q505.961-328 479.98-328q-25.98 0-49.48-12.735Q407-353.469 383-379l-53 48q34 39 71.738 58 37.739 19 78 19ZM620.4-474q42.6 0 73.361-31.073Q724.522-536.146 737-581l-70-17q-4.208 20.772-15.864 35.886Q639.481-547 619.741-547q-19.741 0-31.158-15.114Q577.167-577.228 574-598l-71 17q12.478 44.854 43.639 75.927Q577.8-474 620.4-474ZM480.054-59Q393.51-59 316.32-91.445q-77.19-32.445-134.81-90.065-57.62-57.62-90.065-134.756Q59-393.401 59-479.946q0-86.544 32.445-163.734 32.445-77.19 89.908-134.863 57.463-57.672 134.672-90.565Q393.234-902 479.862-902q86.628 0 163.936 32.815 77.309 32.815 134.907 90.355 57.597 57.54 90.446 134.853Q902-566.663 902-479.917q0 86.683-32.892 163.857-32.893 77.173-90.565 134.672-57.673 57.498-134.809 89.943Q566.599-59 480.054-59ZM480-480Zm0 330q138.375 0 234.188-95.812Q810-341.625 810-480t-95.812-234.188Q618.375-810 480-810t-234.188 95.812Q150-618.375 150-480t95.812 234.188Q341.625-150 480-150Z"/></svg>
