<svg xmlns="http://www.w3.org/2000/svg" height="30" viewBox="0 -960 960 960" width="30">
<style type="text/css">
	.st0{fill:#C97649;}
</style>
<path class="st0" d="M867-515.516V-179q0 37.175-27.206 64.088Q812.588-88 775-88H185q-37.812 0-64.406-26.912Q94-141.825 94-179v-333q-30-31-36-69.057T63-654l42.2-134.877Q117-824 141.83-844q24.83-20 61.29-20h549.627q36.044 0 63.149 21Q843-822 855-789l43 135q11 34 2.5 71T867-515.516ZM571-558q23.436 0 41.718-16.183Q631-590.367 628-614l-24-158h-86v157q0 23.865 14.958 40.433Q547.917-558 571-558Zm-187.467 0q23.745 0 41.606-16.192Q443-590.385 443-615v-157h-85l-24 158q-4 22 10 39t39.533 17Zm-181.299 0q18.966 0 35.366-15t18.4-36l26-163h-86l-44 140q-9 29.212 6 51.606Q173-558 202.234-558Zm555.298 0Q786-558 802-580q16-22 7-52l-44-140h-84l24 163q1 21 16.5 36t36.032 15ZM185-179h590v-288q2.875 1-4.062.5-6.938-.5-13.076-.5-19.862 0-43.362-8.5Q691-484 666.053-503 650-486 625.129-476.5t-51.837 9.5Q545-467 522.5-474.5T481-497q-18.726 13.947-40.863 21.974Q418-467 391.582-467q-31.056 0-54.457-9.026Q313.723-485.053 295-503q-27 20-52.5 28t-40.5 8q-7 0-11.438.5-4.437.5-5.562-.5v288Zm590 0H185 775Zm-437-44h80q5.6 0 11.8-5.8 6.2-5.8 6.2-12.7 0-5.7-6.4-12.1-6.4-6.4-11.6-6.4h-62v-47h61.882q5.718 0 11.918-6.5Q436-320 436-325v-80q0-6.8-6.4-12.9-6.4-6.1-11.6-6.1h-80q-8 0-13.5 5.157t-5.5 13.7q0 5.343 5.7 11.743T338-387h61v43h-60.882q-8.118 0-13.618 6.3T319-325v83.636q0 4.964 5.7 11.664 5.7 6.7 13.3 6.7Zm267-84v66q0 4.2 5.4 11.1 5.4 6.9 13.1 6.9 5.7 0 12.1-6.9 6.4-6.9 6.4-11.1v-163.81q0-6.99-5.7-13.09T623-424q-6.4 0-12.2 6.3-5.8 6.3-5.8 12.7v61h-43v-60.882q0-6.918-5.8-13.018-5.8-6.1-12.7-6.1-6.9 0-12.7 6.3-5.8 6.3-5.8 12.7v80q0 4.6 5.7 11.3 5.7 6.7 13.3 6.7h61Z"/></svg>
