<svg width="20" height="20" viewBox="0 0 20 20" fill="none" xmlns="http://www.w3.org/2000/svg">
<g id="shop 1">
<g id="Group">
<path id="Vector" d="M5.60547 12.7444C5.52777 12.7444 5.45325 12.7753 5.39831 12.8302C5.34337 12.8851 5.3125 12.9597 5.3125 13.0374V13.5647C5.3125 13.6424 5.34337 13.7169 5.39831 13.7719C5.45325 13.8268 5.52777 13.8577 5.60547 13.8577C5.68317 13.8577 5.75769 13.8268 5.81263 13.7719C5.86757 13.7169 5.89844 13.6424 5.89844 13.5647V13.0374C5.89844 12.9597 5.86757 12.8851 5.81263 12.8302C5.75769 12.7753 5.68317 12.7444 5.60547 12.7444Z" fill="#C97649"/>
<path id="Vector_2" d="M19.0747 16.6347H18.6004V8.50627C19.3861 8.36721 19.9849 7.6799 19.9849 6.85487V5.7269C19.9849 5.72115 19.9844 5.71553 19.9841 5.70987C19.9839 5.7067 19.9839 5.70354 19.9836 5.70037C19.9826 5.68894 19.9809 5.67758 19.9786 5.66635C19.9785 5.66569 19.9782 5.66506 19.9781 5.66444C19.9758 5.65386 19.9728 5.64343 19.9693 5.63319C19.9685 5.63061 19.9675 5.62803 19.9665 5.62549C19.9633 5.61679 19.9597 5.60825 19.9557 5.5999C19.9549 5.59838 19.9545 5.59678 19.9537 5.5953L18.6583 3.01916V1.67174C18.6583 1.32401 18.3754 1.04108 18.0277 1.04108H4.70531C4.62761 1.04108 4.55309 1.07194 4.49815 1.12689C4.44321 1.18183 4.41234 1.25635 4.41234 1.33405C4.41234 1.41175 4.44321 1.48626 4.49815 1.54121C4.55309 1.59615 4.62761 1.62701 4.70531 1.62701H18.0277C18.0523 1.62701 18.0724 1.64709 18.0724 1.67174V2.79846H1.92762V1.67174C1.92762 1.64709 1.9477 1.62701 1.97234 1.62701H3.34219C3.41989 1.62701 3.49441 1.59615 3.54935 1.54121C3.60429 1.48626 3.63516 1.41175 3.63516 1.33405C3.63516 1.25635 3.60429 1.18183 3.54935 1.12689C3.49441 1.07194 3.41989 1.04108 3.34219 1.04108H1.97234C1.62461 1.04108 1.34168 1.32401 1.34168 1.67174V3.01916L0.0463281 5.5953C0.0455859 5.59682 0.0450781 5.59842 0.044375 5.5999C0.040349 5.60825 0.0367251 5.61679 0.0335156 5.62549C0.0325781 5.62807 0.0315625 5.63061 0.0307031 5.63319C0.0272027 5.64343 0.0242814 5.65386 0.0219531 5.66444L0.0214453 5.66635C0.0191016 5.67748 0.0174609 5.68881 0.0164453 5.70037C0.0161719 5.70354 0.0161719 5.7067 0.0159766 5.70987C0.0156641 5.71553 0.0151172 5.72115 0.0151172 5.7269V6.85487C0.0151172 7.67987 0.613945 8.36721 1.39969 8.50627V16.6347H0.925313C0.415078 16.6347 0 17.0499 0 17.5601V18.4867C0 18.7471 0.211836 18.959 0.472227 18.959H19.5278C19.7882 18.959 20 18.7471 20 18.4867V17.5601C20 17.0499 19.5849 16.6347 19.0747 16.6347ZM19.3989 6.8549C19.3989 7.45682 18.9093 7.94651 18.3073 7.94651C17.7054 7.94651 17.2157 7.45682 17.2157 6.8549V6.0199H19.3989V6.8549ZM18.1861 3.3844L19.2167 5.43393H17.1289L16.3928 3.3844H18.1861ZM15.7702 3.3844L16.5063 5.43393H14.3902L13.9486 3.3844H15.7702ZM16.6298 6.01987V6.85487C16.6298 7.45678 16.1402 7.94647 15.5382 7.94647C14.9363 7.94647 14.4466 7.45678 14.4466 6.85487V6.01987H16.6298ZM13.3492 3.3844L13.7909 5.43393H11.6573L11.51 3.3844H13.3492ZM13.8607 6.01987V6.85487C13.8607 7.45678 13.371 7.94647 12.7691 7.94647C12.1673 7.94647 11.6775 7.45678 11.6775 6.85487V6.01987H13.8607ZM9.07742 3.3844H10.9225L11.0698 5.43393H8.9302L9.07742 3.3844ZM8.9084 6.01987H11.0916V6.85487C11.0916 7.45678 10.6019 7.94647 10 7.94647C9.39809 7.94647 8.9084 7.45678 8.9084 6.85487V6.01987ZM10 8.5324C10.5744 8.5324 11.0821 8.24213 11.3846 7.80069C11.6871 8.24213 12.1948 8.5324 12.7691 8.5324C13.3435 8.5324 13.8512 8.24213 14.1537 7.80069C14.4562 8.24213 14.9639 8.5324 15.5382 8.5324C16.1126 8.5324 16.6203 8.24213 16.9228 7.80069C17.1727 8.1653 17.5626 8.42631 18.0144 8.50627V16.6347H6.98578V10.1244C6.98578 9.82397 6.74133 9.57951 6.44086 9.57951H3.05379C2.75332 9.57951 2.50887 9.82397 2.50887 10.1244V16.6347H1.98563V8.50627C2.43742 8.42631 2.82738 8.1653 3.07723 7.80069C3.37973 8.24213 3.88742 8.5324 4.4618 8.5324C5.03617 8.5324 5.54387 8.24213 5.84637 7.80069C6.14887 8.24213 6.65656 8.5324 7.2309 8.5324C7.80523 8.5324 8.31297 8.24213 8.61547 7.80069C8.91793 8.24213 9.42562 8.5324 10 8.5324ZM6.39984 10.1655V16.6347H3.0948V10.1655H6.39984ZM3.37016 6.8549V6.0199H5.55336V6.8549C5.55336 7.45682 5.06367 7.94651 4.46176 7.94651C3.85984 7.94651 3.37016 7.45678 3.37016 6.8549ZM6.65082 3.3844H8.48996L8.34273 5.43393H6.20914L6.65082 3.3844ZM6.1393 6.01987H8.32246V6.85487C8.32246 7.45678 7.83277 7.94647 7.23086 7.94647C6.62895 7.94647 6.1393 7.45678 6.1393 6.85487V6.01987ZM6.05141 3.3844L5.60973 5.43393H3.49371L4.2298 3.3844H6.05141ZM1.81387 3.3844H3.60723L2.87113 5.43393H0.78332L1.81387 3.3844ZM0.601055 6.8549V6.0199H2.78426V6.8549C2.78426 7.45682 2.29457 7.94651 1.69266 7.94651C1.09074 7.94651 0.601055 7.45678 0.601055 6.8549ZM0.585938 18.373V17.5601C0.585938 17.3729 0.738164 17.2207 0.925313 17.2207H19.0746C19.2618 17.2207 19.414 17.3729 19.414 17.5601V18.373H0.585938Z" fill="#C97649"/>
<path id="Vector_3" d="M16.6708 9.57953H13.0883C13.0106 9.57953 12.9361 9.6104 12.8811 9.66534C12.8262 9.72028 12.7953 9.7948 12.7953 9.8725C12.7953 9.9502 12.8262 10.0247 12.8811 10.0797C12.9361 10.1346 13.0106 10.1655 13.0883 10.1655H16.6298V14.7762H8.18359V10.1655H11.709C11.7867 10.1655 11.8612 10.1346 11.9161 10.0797C11.9711 10.0247 12.002 9.9502 12.002 9.8725C12.002 9.7948 11.9711 9.72028 11.9161 9.66534C11.8612 9.6104 11.7867 9.57953 11.709 9.57953H8.14258C7.84211 9.57953 7.59766 9.82394 7.59766 10.1245V14.8173C7.59766 15.1177 7.84211 15.3622 8.14258 15.3622H16.6708C16.9713 15.3622 17.2157 15.1177 17.2157 14.8173V10.1245C17.2157 9.82398 16.9713 9.57953 16.6708 9.57953Z" fill="#C97649"/>
</g>
</g>
</svg>
