<svg width="20" height="20" viewBox="0 0 20 20" fill="none" xmlns="http://www.w3.org/2000/svg">
<g id="time 1" clip-path="url(#clip0_136_8131)">
<g id="Group">
<g id="Clip path group">
<mask id="mask0_136_8131" style="mask-type:luminance" maskUnits="userSpaceOnUse" x="0" y="0" width="20" height="20">
<g id="a">
<path id="Vector" d="M0 5.91278e-05H19.9999V20H0V5.91278e-05Z" fill="white"/>
</g>
</mask>
<g mask="url(#mask0_136_8131)">
<g id="Group_2">
<path id="Vector_2" d="M17.0734 3.48629C18.6517 5.19937 19.6156 7.48714 19.6156 10.0001C19.6156 15.3108 15.3104 19.616 9.99974 19.616C4.68901 19.616 0.383789 15.3108 0.383789 10.0001C0.383789 4.68933 4.68901 0.384149 9.99974 0.384149C10.3917 0.384067 10.7832 0.407704 11.1723 0.45493" stroke="#C97649" stroke-miterlimit="10" stroke-linecap="round" stroke-linejoin="round"/>
<path id="Vector_3" d="M6.23452 4.01403C8.96623 2.2922 12.6199 2.62103 14.9994 5.00059C17.7605 7.76172 17.7605 12.2383 14.9994 14.9995C12.2383 17.7606 7.76167 17.7606 5.00054 14.9995C2.61746 12.6164 2.29117 8.95546 4.02164 6.22246" stroke="#C97649" stroke-miterlimit="10" stroke-linecap="round" stroke-linejoin="round"/>
<path id="Vector_4" d="M17.0049 4.91541V3.43103H18.4893" stroke="#C97649" stroke-miterlimit="10" stroke-linecap="round" stroke-linejoin="round"/>
<path id="Vector_5" d="M9.04443 10.0001C9.04443 10.5275 9.47205 10.9551 9.99951 10.9551C10.527 10.9551 10.9546 10.5275 10.9546 10.0001C10.9546 9.4726 10.527 9.04499 9.99951 9.04499C9.47205 9.04499 9.04443 9.4726 9.04443 10.0001Z" stroke="#C97649" stroke-miterlimit="10" stroke-linecap="round" stroke-linejoin="round"/>
<path id="Vector_6" d="M15.5594 10.0064H15.0776" stroke="#C97649" stroke-miterlimit="10" stroke-linecap="round" stroke-linejoin="round"/>
<path id="Vector_7" d="M4.43994 9.99371H4.9217" stroke="#C97649" stroke-miterlimit="10" stroke-linecap="round" stroke-linejoin="round"/>
<path id="Vector_8" d="M10.0063 4.44018V4.92194" stroke="#C97649" stroke-miterlimit="10" stroke-linecap="round" stroke-linejoin="round"/>
<path id="Vector_9" d="M9.99316 15.5599V15.0782" stroke="#C97649" stroke-miterlimit="10" stroke-linecap="round" stroke-linejoin="round"/>
<path id="Vector_10" d="M9.32449 9.32471L7.76562 7.76584" stroke="#C97649" stroke-miterlimit="10" stroke-linecap="round" stroke-linejoin="round"/>
<path id="Vector_11" d="M10.6753 9.32471L13.5815 6.41854" stroke="#C97649" stroke-miterlimit="10" stroke-linecap="round" stroke-linejoin="round"/>
</g>
</g>
</g>
</g>
</g>
<defs>
<clipPath id="clip0_136_8131">
<rect width="20" height="20" fill="white"/>
</clipPath>
</defs>
</svg>
