<svg xmlns="http://www.w3.org/2000/svg" height="30" viewBox="0 -960 960 960" width="30">
<style type="text/css">
	.st0{fill:#C97649;}
</style>
<path class="st0" d="M480.182-98Q401-98 331.92-127.959q-69.081-29.958-121.507-82.326-52.427-52.367-82.42-121.44Q98-400.797 98-480q0-81.131 34.5-154.065Q167-707 224-759q9.643-8 25.027-11t23.79 5.865L512-524q10 10 10 25t-10 25q-10 10-25.5 10T461-474L263-671q-35 39-54.5 89T189-480.473Q189-358 273.5-273.5 358-189 480-189t206.5-84.5Q771-358 771-480q0-112-75.5-195T510-770v64q0 15.15-9.475 25.575Q491.049-670 473.825-670q-17.225 0-26.525-9.425Q438-688.85 438-706v-121q0-16.15 10.425-26.075T474.217-863q78.392 0 149.246 30.436 70.853 30.436 123.679 82.765 52.826 52.328 84.342 122.382Q863-557.364 863-480.182 863-401 832.564-331.92q-30.436 69.081-82.765 121.507-52.328 52.427-122.382 82.42Q557.364-98 480.182-98ZM274.105-438q-20.505 0-31.805-11.695-11.3-11.694-11.3-32.2 0-20.505 11.195-32.305 11.194-11.8 31.7-11.8 20.505 0 32.305 11.695 11.8 11.694 11.8 32.2 0 20.505-11.695 32.305-11.694 11.8-32.2 11.8Zm204 206q-20.505 0-32.305-11.195-11.8-11.194-11.8-31.7 0-20.505 11.695-32.305 11.694-11.8 32.2-11.8 20.505 0 32.305 11.695 11.8 11.694 11.8 32.2 0 20.505-11.695 31.805-11.694 11.3-32.2 11.3Zm207-206q-20.505 0-32.305-11.695-11.8-11.694-11.8-32.2 0-20.505 11.695-32.305 11.694-11.8 32.2-11.8 20.505 0 31.805 11.695 11.3 11.694 11.3 32.2 0 20.505-11.195 32.305-11.194 11.8-31.7 11.8Z"/></svg>
