<svg width="20" height="20" viewBox="0 0 20 20" fill="none" xmlns="http://www.w3.org/2000/svg">
<g id="transactions 1">
<g id="Group">
<path id="Vector" d="M10.7769 8.29918L10.7736 8.29645L10.7684 8.29235C10.7023 8.24043 10.2558 7.9152 9.65328 8.09668C9.02754 8.2852 8.87215 9.14137 9.29738 9.47489C9.54156 9.66641 9.90895 9.82383 10.4041 9.99887C11.5122 10.3906 11.1026 11.9534 9.97535 11.9609C9.53547 11.9638 9.3298 11.9359 8.94336 11.6831M10.0001 7.25446V8.03891M10.0001 11.9611V12.7455" stroke="#C97649" stroke-width="0.75" stroke-miterlimit="10" stroke-linecap="round" stroke-linejoin="round"/>
<path id="Vector_2" d="M9.99996 14.3144C12.3827 14.3144 14.3144 12.3828 14.3144 10C14.3144 7.61724 12.3827 5.68561 9.99996 5.68561C7.61718 5.68561 5.68555 7.61724 5.68555 10C5.68555 12.3828 7.61718 14.3144 9.99996 14.3144Z" stroke="#C97649" stroke-width="0.75" stroke-miterlimit="10" stroke-linecap="round" stroke-linejoin="round"/>
<path id="Vector_3" d="M13.4809 7.4506H16.0794V9.01947L19.6094 5.88169L16.0794 2.74396V4.31282H11.3728V5.90876M6.51906 12.5494H3.92059V10.9806L0.390625 14.1183L3.92059 17.2561V15.6872H8.62723V14.0913" stroke="#C97649" stroke-width="0.75" stroke-miterlimit="10" stroke-linecap="round" stroke-linejoin="round"/>
</g>
</g>
</svg>
