<svg xmlns="http://www.w3.org/2000/svg" height="30" viewBox="0 -960 960 960" width="30">
<style type="text/css">
	.st0{fill:#C97649;}
</style>
<path class="st0" d="M227-38q-58.917 0-97.958-39.75Q90-117.5 90-175.471V-321h139v-573l65 64 63.771-64 63.772 64 63.771-64 63.772 64 64.771-64 63.572 64 63.904-64 63.334 64L871-894v719q0 57.5-40.042 97.25Q790.917-38 734-38H227Zm507.5-92q18.5 0 31.5-12.943 13-12.942 13-31.857V-759H320v438h369v146q0 19 13 32t32.5 13ZM374-597v-57h219v57H374Zm0 132v-57h219v57H374Zm312.421-132Q675-597 666.5-605.763t-8.5-19.5Q658-636 666.281-645q8.28-9 20-9 11.719 0 20.219 8.781 8.5 8.78 8.5 19.815 0 11.036-8.579 19.72t-20 8.684Zm0 127Q675-470 666.5-478.884t-8.5-19.8q0-10.916 8.281-19.616 8.28-8.7 20-8.7 11.719 0 20.219 8.7 8.5 8.7 8.5 19.616t-8.579 19.8q-8.579 8.884-20 8.884ZM226-130h372v-99H182v54q0 19 12.65 32T226-130Zm-44 0v-99 99Z"/></svg>
