<svg width="215" height="139" viewBox="0 0 215 139" fill="none" xmlns="http://www.w3.org/2000/svg">
<path id="Vector 2" d="M1.73308 2.18986C0.638395 2.33727 -0.129523 3.3442 0.017891 4.43888C0.165305 5.53357 1.17223 6.30149 2.26692 6.15408L1.73308 2.18986ZM198.564 138.401C199.338 139.189 200.604 139.201 201.393 138.427L214.24 125.82C215.028 125.046 215.04 123.78 214.266 122.991C213.493 122.203 212.226 122.191 211.438 122.965L200.018 134.172L188.812 122.752C188.038 121.964 186.772 121.952 185.983 122.726C185.195 123.499 185.183 124.766 185.957 125.554L198.564 138.401ZM2.26692 6.15408C35.2918 1.70686 84.6846 2.99078 125.571 21.1482C145.985 30.2139 164.215 43.4564 177.271 62.2321C190.318 80.9933 198.289 105.407 197.992 136.981L201.992 137.019C202.295 104.716 194.129 79.4686 180.555 59.9484C166.991 40.4428 148.116 26.7839 127.194 17.4925C85.4086 -1.06437 35.2055 -2.31762 1.73308 2.18986L2.26692 6.15408Z" fill="#C97649"/>
</svg>
