<svg width="285" height="56" viewBox="0 0 285 56" fill="none" xmlns="http://www.w3.org/2000/svg">
<path d="M285 1C285 0.447715 284.553 0 284 0C283.448 0 283 0.447715 283 1H285ZM89.063 19L89.0076 19.9985L89.063 19ZM7.29289 55.7071C7.68342 56.0976 8.31658 56.0976 8.70711 55.7071L15.0711 49.3431C15.4616 48.9526 15.4616 48.3195 15.0711 47.9289C14.6805 47.5384 14.0474 47.5384 13.6569 47.9289L8 53.5858L2.34315 47.9289C1.95262 47.5384 1.31946 47.5384 0.928932 47.9289C0.538408 48.3195 0.538408 48.9526 0.928932 49.3431L7.29289 55.7071ZM283 1C283 8.63928 280.561 14.6087 276.26 19.2583C271.938 23.9303 265.677 27.333 257.945 29.6949C242.462 34.4241 221.378 34.8924 199.123 33.3225C176.893 31.7544 153.609 28.163 133.773 24.8425C113.992 21.5312 97.5388 18.469 89.1184 18.0015L89.0076 19.9985C97.2815 20.4578 113.543 23.4839 133.443 26.8151C153.288 30.1371 176.651 33.7424 198.982 35.3176C221.287 36.891 242.678 36.4493 258.529 31.6077C266.463 29.1841 273.084 25.6362 277.728 20.6164C282.392 15.5743 285 9.11072 285 1H283ZM89.1184 18.0015C48.5193 15.7478 27.9329 22.1065 17.5015 30.5995C6.98975 39.158 7 49.7087 7 55H9C9 49.7913 9.01025 40.092 18.7643 32.1505C28.5986 24.1435 48.5437 17.7522 89.0076 19.9985L89.1184 18.0015Z" fill="#C97649"/>
</svg>
