<svg width="215" height="139" viewBox="0 0 215 139" fill="none" xmlns="http://www.w3.org/2000/svg">
<path id="Vector 3" d="M213.267 2.18986C214.362 2.33727 215.13 3.3442 214.982 4.43888C214.835 5.53357 213.828 6.30149 212.733 6.15408L213.267 2.18986ZM16.4355 138.401C15.6618 139.189 14.3956 139.201 13.6072 138.427L0.760315 125.82C-0.0280457 125.046 -0.0399323 123.78 0.733749 122.991C1.50743 122.203 2.7737 122.191 3.56204 122.965L14.9815 134.172L26.1885 122.752C26.9621 121.964 28.2284 121.952 29.0168 122.726C29.8051 123.499 29.817 124.766 29.0433 125.554L16.4355 138.401ZM212.733 6.15408C179.708 1.70686 130.315 2.99078 89.4293 21.1482C69.0155 30.2139 50.7855 43.4564 37.7289 62.2321C24.6824 80.9933 16.7114 105.407 17.008 136.981L13.0082 137.019C12.7048 104.716 20.8706 79.4686 34.4449 59.9484C48.0091 40.4428 66.8839 26.7839 87.8058 17.4925C129.591 -1.06437 179.795 -2.31762 213.267 2.18986L212.733 6.15408Z" fill="#C97649"/>
</svg>
