<svg width="285" height="56" viewBox="0 0 285 56" fill="none" xmlns="http://www.w3.org/2000/svg">
<path d="M-0.000488281 1C-0.000488281 0.447715 0.447235 0 0.999512 0C1.55179 0 1.99951 0.447715 1.99951 1H-0.000488281ZM195.937 19L195.992 19.9985L195.937 19ZM277.707 55.7071C277.317 56.0976 276.683 56.0976 276.293 55.7071L269.929 49.3431C269.538 48.9526 269.538 48.3195 269.929 47.9289C270.319 47.5384 270.953 47.5384 271.343 47.9289L277 53.5858L282.657 47.9289C283.047 47.5384 283.681 47.5384 284.071 47.9289C284.462 48.3195 284.462 48.9526 284.071 49.3431L277.707 55.7071ZM1.99951 1C1.99951 8.63928 4.43933 14.6087 8.74036 19.2583C13.0621 23.9303 19.3229 27.333 27.0553 29.6949C42.5382 34.4241 63.6216 34.8924 85.8771 33.3225C108.107 31.7544 131.391 28.163 151.227 24.8425C171.008 21.5312 187.461 18.469 195.882 18.0015L195.992 19.9985C187.719 20.4578 171.457 23.4839 151.557 26.8151C131.712 30.1371 108.349 33.7424 86.0179 35.3176C63.7126 36.891 42.322 36.4493 26.4711 31.6077C18.5367 29.1841 11.9156 25.6362 7.27219 20.6164C2.60809 15.5743 -0.000488281 9.11072 -0.000488281 1H1.99951ZM195.882 18.0015C236.481 15.7478 257.067 22.1065 267.499 30.5995C278.01 39.158 278 49.7087 278 55H276C276 49.7913 275.99 40.092 266.236 32.1505C256.401 24.1435 236.456 17.7522 195.992 19.9985L195.882 18.0015Z" fill="#C97649"/>
</svg>
